<?xml version="1.0" encoding="UTF-8" standalone="no"?>
<!-- Created with Inkscape (http://www.inkscape.org/) -->

<svg
   xmlns:dc="http://purl.org/dc/elements/1.1/"
   xmlns:cc="http://creativecommons.org/ns#"
   xmlns:rdf="http://www.w3.org/1999/02/22-rdf-syntax-ns#"
   xmlns:svg="http://www.w3.org/2000/svg"
   xmlns="http://www.w3.org/2000/svg"
   xmlns:xlink="http://www.w3.org/1999/xlink"
   xmlns:sodipodi="http://sodipodi.sourceforge.net/DTD/sodipodi-0.dtd"
   xmlns:inkscape="http://www.inkscape.org/namespaces/inkscape"
   width="48"
   height="48"
   id="svg2985"
   version="1.1"
   inkscape:version="0.48.4 r9939"
   sodipodi:docname="desktop-settings-icons.svg"
   inkscape:export-filename="/home/sam/design/icons/unity-tweak-tool/36/wm-settings-window-snapping.png"
   inkscape:export-xdpi="90"
   inkscape:export-ydpi="90">
  <defs
     id="defs2987">
    <linearGradient
       id="linearGradient4195">
      <stop
         id="stop4197"
         offset="0"
         style="stop-color:#df5e28;stop-opacity:0.94117647;" />
      <stop
         id="stop4199"
         offset="1"
         style="stop-color:#1a1716;stop-opacity:0.941" />
    </linearGradient>
    <filter
       color-interpolation-filters="sRGB"
       inkscape:collect="always"
       id="filter11507">
      <feGaussianBlur
         inkscape:collect="always"
         stdDeviation="1.05625"
         id="feGaussianBlur11509" />
    </filter>
    <linearGradient
       inkscape:collect="always"
       id="linearGradient10954">
      <stop
         style="stop-color:#909090;stop-opacity:1;"
         offset="0"
         id="stop10956" />
      <stop
         style="stop-color:#cecece;stop-opacity:1"
         offset="1"
         id="stop10958" />
    </linearGradient>
    <linearGradient
       inkscape:collect="always"
       id="linearGradient10938">
      <stop
         style="stop-color:#dadada;stop-opacity:1"
         offset="0"
         id="stop10940" />
      <stop
         style="stop-color:#f6f6f5;stop-opacity:1"
         offset="1"
         id="stop10942" />
    </linearGradient>
    <linearGradient
       inkscape:collect="always"
       id="linearGradient11438">
      <stop
         style="stop-color:#babdb6;stop-opacity:1;"
         offset="0"
         id="stop11440" />
      <stop
         style="stop-color:#4a4d46;stop-opacity:1"
         offset="1"
         id="stop11442" />
    </linearGradient>
    <linearGradient
       inkscape:collect="always"
       id="linearGradient10966">
      <stop
         style="stop-color:#ffffff;stop-opacity:1;"
         offset="0"
         id="stop10968" />
      <stop
         style="stop-color:#f0f0f0;stop-opacity:1"
         offset="1"
         id="stop10970" />
    </linearGradient>
    <linearGradient
       id="linearGradient11473">
      <stop
         style="stop-color:#ff6a00;stop-opacity:1;"
         offset="0"
         id="stop11475" />
      <stop
         id="stop7266"
         offset="1"
         style="stop-color:#5b1306;stop-opacity:1;" />
    </linearGradient>
    <linearGradient
       id="linearGradient4788"
       inkscape:collect="always">
      <stop
         id="stop4790"
         offset="0"
         style="stop-color:#ffffff;stop-opacity:1;" />
      <stop
         id="stop4792"
         offset="1"
         style="stop-color:#ffffff;stop-opacity:0;" />
    </linearGradient>
    <radialGradient
       inkscape:collect="always"
       xlink:href="#linearGradient12771"
       id="radialGradient12777"
       cx="144.16689"
       cy="129.17393"
       fx="144.16689"
       fy="129.17393"
       r="97.906487"
       gradientTransform="matrix(1.1657896,-0.05054328,0.0329754,0.74679303,-28.160936,39.99441)"
       gradientUnits="userSpaceOnUse" />
    <linearGradient
       inkscape:collect="always"
       id="linearGradient12771">
      <stop
         style="stop-color:#ffffff;stop-opacity:1;"
         offset="0"
         id="stop12773" />
      <stop
         style="stop-color:#ffffff;stop-opacity:0;"
         offset="1"
         id="stop12775" />
    </linearGradient>
    <radialGradient
       inkscape:collect="always"
       xlink:href="#linearGradient12771"
       id="radialGradient3521"
       cx="144.16689"
       cy="129.17393"
       fx="144.16689"
       fy="129.17393"
       r="97.906487"
       gradientTransform="matrix(1.1657896,-0.05054328,0.0329754,0.74679303,-28.160936,39.99441)"
       gradientUnits="userSpaceOnUse" />
    <radialGradient
       inkscape:collect="always"
       xlink:href="#linearGradient12771"
       id="radialGradient3529"
       cx="144.16689"
       cy="129.17393"
       fx="144.16689"
       fy="129.17393"
       r="97.906487"
       gradientTransform="matrix(1.1657896,-0.05054328,0.0329754,0.74679303,-28.160936,39.99441)"
       gradientUnits="userSpaceOnUse" />
    <radialGradient
       inkscape:collect="always"
       xlink:href="#linearGradient12771"
       id="radialGradient3537"
       cx="144.16689"
       cy="129.17393"
       fx="144.16689"
       fy="129.17393"
       r="97.906487"
       gradientTransform="matrix(1.1657896,-0.05054328,0.0329754,0.74679303,-28.160936,39.99441)"
       gradientUnits="userSpaceOnUse" />
    <radialGradient
       inkscape:collect="always"
       xlink:href="#linearGradient12771"
       id="radialGradient3545"
       cx="144.16689"
       cy="129.17393"
       fx="144.16689"
       fy="129.17393"
       r="97.906487"
       gradientTransform="matrix(1.1657896,-0.05054328,0.0329754,0.74679303,-28.160936,39.99441)"
       gradientUnits="userSpaceOnUse" />
    <radialGradient
       inkscape:collect="always"
       xlink:href="#linearGradient12771"
       id="radialGradient3553"
       cx="144.16689"
       cy="129.17393"
       fx="144.16689"
       fy="129.17393"
       r="97.906487"
       gradientTransform="matrix(1.1657896,-0.05054328,0.0329754,0.74679303,-28.160936,39.99441)"
       gradientUnits="userSpaceOnUse" />
    <radialGradient
       inkscape:collect="always"
       xlink:href="#linearGradient12771"
       id="radialGradient3561"
       cx="144.16689"
       cy="129.17393"
       fx="144.16689"
       fy="129.17393"
       r="97.906487"
       gradientTransform="matrix(1.1657896,-0.05054328,0.0329754,0.74679303,-28.160936,39.99441)"
       gradientUnits="userSpaceOnUse" />
    <radialGradient
       inkscape:collect="always"
       xlink:href="#linearGradient12771"
       id="radialGradient3569"
       cx="144.16689"
       cy="129.17393"
       fx="144.16689"
       fy="129.17393"
       r="97.906487"
       gradientTransform="matrix(1.1657896,-0.05054328,0.0329754,0.74679303,-28.160936,39.99441)"
       gradientUnits="userSpaceOnUse" />
    <radialGradient
       inkscape:collect="always"
       xlink:href="#linearGradient12771"
       id="radialGradient3577"
       cx="144.16689"
       cy="129.17393"
       fx="144.16689"
       fy="129.17393"
       r="97.906487"
       gradientTransform="matrix(1.1657896,-0.05054328,0.0329754,0.74679303,-28.160936,39.99441)"
       gradientUnits="userSpaceOnUse" />
    <radialGradient
       inkscape:collect="always"
       xlink:href="#linearGradient12771"
       id="radialGradient3585"
       cx="144.16689"
       cy="129.17393"
       fx="144.16689"
       fy="129.17393"
       r="97.906487"
       gradientTransform="matrix(1.1657896,-0.05054328,0.0329754,0.74679303,-28.160936,39.99441)"
       gradientUnits="userSpaceOnUse" />
    <radialGradient
       inkscape:collect="always"
       xlink:href="#linearGradient12771"
       id="radialGradient3593"
       cx="144.16689"
       cy="129.17393"
       fx="144.16689"
       fy="129.17393"
       r="97.906487"
       gradientTransform="matrix(1.1657896,-0.05054328,0.0329754,0.74679303,-28.160936,39.99441)"
       gradientUnits="userSpaceOnUse" />
    <radialGradient
       inkscape:collect="always"
       xlink:href="#linearGradient12771"
       id="radialGradient3601"
       cx="144.16689"
       cy="129.17393"
       fx="144.16689"
       fy="129.17393"
       r="97.906487"
       gradientTransform="matrix(1.1657896,-0.05054328,0.0329754,0.74679303,-28.160936,39.99441)"
       gradientUnits="userSpaceOnUse" />
    <radialGradient
       r="97.906487"
       fy="129.17393"
       fx="144.16689"
       cy="129.17393"
       cx="144.16689"
       gradientTransform="matrix(1.1657896,-0.05054328,0.0329754,0.74679303,-28.160936,39.99441)"
       gradientUnits="userSpaceOnUse"
       id="radialGradient3665"
       xlink:href="#linearGradient12771"
       inkscape:collect="always" />
    <radialGradient
       inkscape:collect="always"
       xlink:href="#linearGradient10966"
       id="radialGradient3348"
       gradientUnits="userSpaceOnUse"
       gradientTransform="matrix(0.17091321,2.3948575e-4,-1.885288e-4,0.1345469,-0.82414948,18.425831)"
       cx="149.56461"
       cy="258.76071"
       fx="149.56461"
       fy="258.76071"
       r="116.23129" />
    <linearGradient
       inkscape:collect="always"
       xlink:href="#linearGradient10938"
       id="linearGradient3355"
       gradientUnits="userSpaceOnUse"
       gradientTransform="matrix(0.17601918,0,0,0.17980627,-1.587065,12.337364)"
       x1="134.83331"
       y1="68.529434"
       x2="171.90327"
       y2="206.8764" />
    <linearGradient
       inkscape:collect="always"
       xlink:href="#linearGradient11438"
       id="linearGradient3357"
       gradientUnits="userSpaceOnUse"
       x1="184.9511"
       y1="149.20987"
       x2="185.07069"
       y2="236.39699"
       gradientTransform="matrix(0.17980539,0,0,0.17980539,-0.63860179,10.853331)" />
    <radialGradient
       inkscape:collect="always"
       xlink:href="#linearGradient12771"
       id="radialGradient3387"
       gradientUnits="userSpaceOnUse"
       gradientTransform="matrix(1.1657896,-0.05054328,0.0329754,0.74679303,-28.160936,39.99441)"
       cx="144.16689"
       cy="129.17393"
       fx="144.16689"
       fy="129.17393"
       r="97.906487" />
    <radialGradient
       inkscape:collect="always"
       xlink:href="#linearGradient4788"
       id="radialGradient3404"
       gradientUnits="userSpaceOnUse"
       gradientTransform="matrix(-1.8243761,0.00876531,-0.00620867,-1.3078007,609.52907,98.067298)"
       cx="326.0206"
       cy="58"
       fx="326.0206"
       fy="58"
       r="12.5" />
    <radialGradient
       inkscape:collect="always"
       xlink:href="#linearGradient4788"
       id="radialGradient3407"
       gradientUnits="userSpaceOnUse"
       gradientTransform="matrix(-1.8882016,0.00857771,-0.00642588,-1.2798107,636.86026,96.523354)"
       cx="326.0206"
       cy="58"
       fx="326.0206"
       fy="58"
       r="12.5" />
    <radialGradient
       inkscape:collect="always"
       xlink:href="#linearGradient11473"
       id="radialGradient4014"
       gradientUnits="userSpaceOnUse"
       gradientTransform="matrix(0.27084087,0,0,0.17776648,-16.458295,8.8402271)"
       cx="149.56461"
       cy="190.13727"
       fx="149.56461"
       fy="190.13727"
       r="108.51468" />
    <linearGradient
       inkscape:collect="always"
       xlink:href="#linearGradient10954"
       id="linearGradient4020"
       gradientUnits="userSpaceOnUse"
       gradientTransform="matrix(0.16968376,2.3939518e-4,-2.3776336e-4,0.17084857,-1.344677,13.527818)"
       x1="141.31458"
       y1="237.28619"
       x2="141.31458"
       y2="57.029434" />
    <radialGradient
       inkscape:collect="always"
       xlink:href="#linearGradient4195-5"
       id="radialGradient3889"
       gradientUnits="userSpaceOnUse"
       gradientTransform="matrix(0.20312507,-0.08812329,0.12363256,0.3357866,-42.385541,-18.859714)"
       cx="189.70168"
       cy="230.10397"
       fx="189.70168"
       fy="230.10397"
       r="108.51468" />
    <linearGradient
       id="linearGradient4195-5">
      <stop
         id="stop4197-5"
         offset="0"
         style="stop-color:#ff5200;stop-opacity:1;" />
      <stop
         id="stop4199-9"
         offset="1"
         style="stop-color:#000000;stop-opacity:1;" />
    </linearGradient>
    <radialGradient
       inkscape:collect="always"
       xlink:href="#linearGradient11473"
       id="radialGradient4112"
       gradientUnits="userSpaceOnUse"
       gradientTransform="matrix(0.27084087,0,0,0.17776648,-16.458295,8.8402271)"
       cx="149.56461"
       cy="190.13727"
       fx="149.56461"
       fy="190.13727"
       r="108.51468" />
    <radialGradient
       inkscape:collect="always"
       xlink:href="#linearGradient11473"
       id="radialGradient4115"
       gradientUnits="userSpaceOnUse"
       gradientTransform="matrix(0.27084087,0,0,0.17776648,-16.458295,8.8402271)"
       cx="149.56461"
       cy="190.13727"
       fx="149.56461"
       fy="190.13727"
       r="108.51468" />
    <linearGradient
       inkscape:collect="always"
       xlink:href="#linearGradient3060"
       id="linearGradient3866"
       gradientUnits="userSpaceOnUse"
       gradientTransform="translate(2,-4)"
       x1="10"
       y1="48"
       x2="10"
       y2="41" />
    <linearGradient
       inkscape:collect="always"
       id="linearGradient3060">
      <stop
         style="stop-color:#d5d5d5;stop-opacity:1;"
         offset="0"
         id="stop3062" />
      <stop
         style="stop-color:#ffffff;stop-opacity:1"
         offset="1"
         id="stop3064" />
    </linearGradient>
    <linearGradient
       inkscape:collect="always"
       xlink:href="#linearGradient3933"
       id="linearGradient3939"
       x1="12"
       y1="31"
       x2="12"
       y2="27"
       gradientUnits="userSpaceOnUse" />
    <linearGradient
       id="linearGradient3933">
      <stop
         style="stop-color:#9425c5;stop-opacity:1"
         offset="0"
         id="stop3935" />
      <stop
         style="stop-color:#bf79f7;stop-opacity:1"
         offset="1"
         id="stop3937" />
    </linearGradient>
    <linearGradient
       inkscape:collect="always"
       xlink:href="#linearGradient3933"
       id="linearGradient4295"
       gradientUnits="userSpaceOnUse"
       x1="12"
       y1="31"
       x2="12"
       y2="27"
       gradientTransform="translate(1,1)" />
    <filter
       inkscape:collect="always"
       id="filter4308">
      <feGaussianBlur
         inkscape:collect="always"
         stdDeviation="0.1125"
         id="feGaussianBlur4310" />
    </filter>
    <filter
       inkscape:collect="always"
       id="filter4314">
      <feGaussianBlur
         inkscape:collect="always"
         stdDeviation="0.16258681"
         id="feGaussianBlur4316" />
    </filter>
    <filter
       inkscape:collect="always"
       id="filter4325"
       x="-0.036"
       width="1.072"
       y="-0.18"
       height="1.36">
      <feGaussianBlur
         inkscape:collect="always"
         stdDeviation="0.075"
         id="feGaussianBlur4327" />
    </filter>
    <filter
       inkscape:collect="always"
       id="filter4352">
      <feGaussianBlur
         inkscape:collect="always"
         stdDeviation="0.175"
         id="feGaussianBlur4354" />
    </filter>
    <filter
       inkscape:collect="always"
       id="filter4358">
      <feGaussianBlur
         inkscape:collect="always"
         stdDeviation="0.025"
         id="feGaussianBlur4360" />
    </filter>
    <filter
       color-interpolation-filters="sRGB"
       inkscape:collect="always"
       id="filter11490-5-0-9"
       x="-0.10682371"
       width="1.2136474"
       y="-1.3517308"
       height="3.7034614">
      <feGaussianBlur
         inkscape:collect="always"
         stdDeviation="1.8304688"
         id="feGaussianBlur11492-5-8-8" />
    </filter>
    <filter
       color-interpolation-filters="sRGB"
       inkscape:collect="always"
       id="filter11472-2-8-0"
       x="-0.051793315"
       width="1.1035866"
       y="-0.6553846"
       height="2.3107691">
      <feGaussianBlur
         inkscape:collect="always"
         stdDeviation="0.8875"
         id="feGaussianBlur11474-3-4-3" />
    </filter>
  </defs>
  <sodipodi:namedview
     id="base"
     pagecolor="#ffffff"
     bordercolor="#666666"
     borderopacity="1.0"
     inkscape:pageopacity="0"
     inkscape:pageshadow="2"
     inkscape:zoom="1"
     inkscape:cx="12.379813"
     inkscape:cy="32.247595"
     inkscape:current-layer="layer1"
     showgrid="false"
     inkscape:document-units="px"
     inkscape:grid-bbox="true"
     inkscape:window-width="1366"
     inkscape:window-height="709"
     inkscape:window-x="0"
     inkscape:window-y="27"
     inkscape:window-maximized="1"
     showguides="true"
     inkscape:guide-bbox="true">
    <inkscape:grid
       type="xygrid"
       id="grid2982"
       empspacing="5"
       visible="true"
       enabled="true"
       snapvisiblegridlinesonly="true" />
  </sodipodi:namedview>
  <metadata
     id="metadata2990">
    <rdf:RDF>
      <cc:Work
         rdf:about="">
        <dc:format>image/svg+xml</dc:format>
        <dc:type
           rdf:resource="http://purl.org/dc/dcmitype/StillImage" />
        <dc:title />
      </cc:Work>
    </rdf:RDF>
  </metadata>
  <g
     id="layer1"
     inkscape:label="Layer 1"
     inkscape:groupmode="layer"
     transform="translate(0,-16)">
    <g
       id="g3990">
      <rect
         transform="matrix(0.9216359,0,0,1,2.4807384,-0.24883795)"
         ry="1.625"
         rx="1.7631692"
         y="51.605713"
         x="3.4375"
         height="3.25"
         width="41.125"
         id="rect11476"
         style="color:#000000;fill:#000000;fill-opacity:1;fill-rule:nonzero;stroke:none;stroke-width:1;marker:none;visibility:visible;display:inline;overflow:visible;filter:url(#filter11490-5-0-9);enable-background:accumulate" />
      <rect
         transform="matrix(0.92541589,0,0,1.0652463,1.4646861,-3.8551008)"
         style="color:#000000;fill:#000000;fill-opacity:1;fill-rule:nonzero;stroke:none;stroke-width:1;marker:none;visibility:visible;display:inline;overflow:visible;filter:url(#filter11472-2-8-0);enable-background:accumulate"
         id="rect11446"
         width="41.125"
         height="3.25"
         x="4.4374099"
         y="51.730713"
         rx="1.7559673"
         ry="1.5254687" />
    </g>
    <rect
       transform="matrix(0.17026392,2.3308569e-4,-2.3857596e-4,0.16634569,-1.4313965,13.672808)"
       ry="10.788308"
       rx="10.540042"
       y="49.529438"
       x="31.814575"
       height="187"
       width="235.5"
       id="rect10522"
       style="opacity:0.55612242;color:#000000;fill:#000000;fill-opacity:1;fill-rule:nonzero;stroke:none;stroke-width:2;marker:none;visibility:visible;display:inline;overflow:visible;filter:url(#filter11507);enable-background:accumulate" />
    <path
       inkscape:connector-curvature="0"
       style="color:#000000;fill:url(#linearGradient4020);fill-opacity:1;fill-rule:nonzero;stroke:none;stroke-width:2;marker:none;visibility:visible;display:inline;overflow:visible;enable-background:accumulate"
       d="m 5.84375,21.999998 c -0.994202,-0.0014 -1.811116,0.787048 -1.8125,1.78125 L 4,52.156248 c -0.0014,0.994202 0.787048,1.779847 1.78125,1.78125 l 36.375,0.0625 c 0.994202,0.0014 1.811116,-0.787048 1.8125,-1.78125 L 44,23.843748 c 0.0014,-0.994202 -0.787048,-1.779847 -1.78125,-1.78125 l -36.375,-0.0625 z m 1.5625,2.5 33.21875,0.0625 c 0.483082,6.84e-4 0.875674,0.389018 0.875,0.875 l -0.03125,21.1875 c -6.74e-4,0.485982 -0.391918,0.875684 -0.875,0.875 L 7.375,47.437498 C 6.891918,47.436814 6.499326,47.04848 6.5,46.562498 l 0.03125,-21.1875 c 6.74e-4,-0.485982 0.391918,-0.875684 0.875,-0.875 z"
       id="rect10524" />
    <path
       inkscape:connector-curvature="0"
       style="opacity:0.4;color:#000000;fill:#000000;fill-opacity:1;fill-rule:nonzero;stroke:none;stroke-width:2;marker:none;visibility:visible;display:inline;overflow:visible;enable-background:accumulate"
       d="m 7.262317,24.004279 c -0.675892,-9.51e-4 -1.217973,0.443676 -1.21875,1 l -0.03125,21.4375 c -7.77e-4,0.556323 0.542858,0.99905 1.21875,1 l 0.125,0 c -0.483082,-6.84e-4 -0.844424,-0.389018 -0.84375,-0.875 l 0.03125,-21.1875 c 6.74e-4,-0.485982 0.360668,-0.875684 0.84375,-0.875 l 33.25,0.03125 c 0.483082,6.84e-4 0.875674,0.389018 0.875,0.875 l -0.03125,21.21875 c -6.74e-4,0.485982 -0.391918,0.875684 -0.875,0.875 l 0.15625,0 c 0.675892,9.5e-4 1.217973,-0.443677 1.21875,-1 l 0.03125,-21.4375 c 7.77e-4,-0.556324 -0.542858,-1.030299 -1.21875,-1.03125 l -33.53125,-0.03125 z"
       id="rect10528" />
    <rect
       transform="matrix(0.999999,0.00141561,-0.00138697,0.99999904,0,0)"
       ry="0.87722546"
       rx="0.87199056"
       y="24.489498"
       x="6.564589"
       height="22.952982"
       width="34.970631"
       id="rect10538"
       style="color:#000000;fill:url(#radialGradient4115);fill-opacity:1;fill-rule:nonzero;stroke:none;stroke-width:2;marker:none;visibility:visible;display:inline;overflow:visible;enable-background:accumulate" />
    <path
       id="path4312"
       transform="translate(0,16)"
       d="M 9.84375 11 C 9.5625 11.046875 9 11.25 9 12 L 9 16 C 9 17 10.03125 17 10.03125 17 L 15 17 C 15 17 16 17 16 16 L 16 12 C 16 11 15 11 15 11 L 10 11 C 10 11 9.9375 10.984375 9.84375 11 z M 10 12 L 15 12 L 15 16 L 10 16 L 10 12 z "
       style="fill:#cccccc;fill-opacity:1;stroke:none;filter:url(#filter4314)" />
    <path
       style="fill:#aaaaaa;fill-opacity:1;stroke:none"
       d="M 9.84375 11 C 9.5625 11.046875 9 11.25 9 12 L 9 16 C 9 17 10.03125 17 10.03125 17 L 15 17 C 15 17 16 17 16 16 L 16 12 C 16 11 15 11 15 11 L 10 11 C 10 11 9.9375 10.984375 9.84375 11 z M 10 12 L 15 12 L 15 16 L 10 16 L 10 12 z "
       transform="translate(0,16)"
       id="rect3872" />
    <path
       inkscape:connector-curvature="0"
       style="opacity:0.3;fill:url(#radialGradient3407);fill-opacity:1;stroke:none;display:inline;enable-background:new"
       d="M 30.115007,25.07117 40.895026,25 41,45.90916 21,46 z"
       id="path10590"
       sodipodi:nodetypes="ccccc" />
    <path
       inkscape:connector-curvature="0"
       sodipodi:nodetypes="ccccc"
       id="path10592"
       d="m 20.779029,25.016466 6,0 -4.486155,15.605426 -2.960354,-0.160917 z"
       style="opacity:0.3;fill:url(#radialGradient3404);fill-opacity:1;stroke:none;display:inline;enable-background:new" />
    <path
       id="path4350"
       transform="translate(0,16)"
       d="M 12.5 20 C 10.567003 20 9 21.567003 9 23.5 C 9 25.432997 10.567003 27 12.5 27 C 14.432997 27 16 25.432997 16 23.5 C 16 21.567003 14.432997 20 12.5 20 z M 12.5 22 C 13.328427 22 14 22.671573 14 23.5 C 14 24.328427 13.328427 25 12.5 25 C 11.671573 25 11 24.328427 11 23.5 C 11 22.671573 11.671573 22 12.5 22 z "
       style="fill:#cccccc;fill-opacity:1;stroke:none;filter:url(#filter4352)" />
    <rect
       style="fill:none;fill-opacity:1;stroke:none"
       id="rect4189"
       width="16.705399"
       height="23.776466"
       x="6.7175145"
       y="7.2529716"
       rx="0.87199056"
       ry="0.87722546"
       transform="translate(0,16)" />
    <path
       sodipodi:nodetypes="ssccs"
       inkscape:connector-curvature="0"
       id="path4319"
       d="m 11,-34 c 0.666667,0 2.666667,0 3,0 1,0 1,1 1,1 l -5,0 c 0,0 0,-1 1,-1 z"
       style="fill:#cccccc;fill-opacity:1;stroke:none;filter:url(#filter4325)"
       transform="scale(1,-1)" />
    <path
       transform="scale(1,-1)"
       style="fill:#aaaaaa;fill-opacity:1;stroke:none"
       d="m 11,-34 c 0.666667,0 2.666667,0 3,0 1,0 1,1 1,1 l -5,0 c 0,0 0,-1 1,-1 z"
       id="rect3868"
       inkscape:connector-curvature="0"
       sodipodi:nodetypes="ssccs" />
    <path
       style="opacity:0.7;fill:#9425c5;fill-opacity:1;stroke:none"
       d="m 10,28 5,0 0,4 -5,0 z"
       id="rect3054" />
    <path
       id="path4306"
       d="m 10,28 5,0 0,4 -5,0 z"
       style="opacity:0.69999999999999996;fill:#9425c5;fill-opacity:1;stroke:none;filter:url(#filter4308)" />
    <path
       transform="matrix(5,0,0,5,-50,-78)"
       d="M 13,23.5 C 13,23.776142 12.776142,24 12.5,24 12.223858,24 12,23.776142 12,23.5 12,23.223858 12.223858,23 12.5,23 c 0.276142,0 0.5,0.223858 0.5,0.5 z"
       sodipodi:ry="0.5"
       sodipodi:rx="0.5"
       sodipodi:cy="23.5"
       sodipodi:cx="12.5"
       id="path4348"
       style="opacity:0.5;fill:#cccccc;fill-opacity:1;stroke:none"
       sodipodi:type="arc" />
    <path
       style="fill:#cccccc;fill-opacity:1;stroke:none"
       d="M 12.5 20 C 10.567003 20 9 21.567003 9 23.5 C 9 25.432997 10.567003 27 12.5 27 C 14.432997 27 16 25.432997 16 23.5 C 16 21.567003 14.432997 20 12.5 20 z M 12.5 22 C 13.328427 22 14 22.671573 14 23.5 C 14 24.328427 13.328427 25 12.5 25 C 11.671573 25 11 24.328427 11 23.5 C 11 22.671573 11.671573 22 12.5 22 z "
       transform="translate(0,16)"
       id="path4338" />
    <path
       sodipodi:type="arc"
       style="fill:#cccccc;fill-opacity:1;stroke:none"
       id="path4346"
       sodipodi:cx="12.5"
       sodipodi:cy="23.5"
       sodipodi:rx="0.5"
       sodipodi:ry="0.5"
       d="M 13,23.5 C 13,23.776142 12.776142,24 12.5,24 12.223858,24 12,23.776142 12,23.5 12,23.223858 12.223858,23 12.5,23 c 0.276142,0 0.5,0.223858 0.5,0.5 z"
       transform="translate(0,16)" />
    <path
       transform="translate(0,16)"
       d="M 13,23.5 C 13,23.776142 12.776142,24 12.5,24 12.223858,24 12,23.776142 12,23.5 12,23.223858 12.223858,23 12.5,23 c 0.276142,0 0.5,0.223858 0.5,0.5 z"
       sodipodi:ry="0.5"
       sodipodi:rx="0.5"
       sodipodi:cy="23.5"
       sodipodi:cx="12.5"
       id="path4356"
       style="fill:#cccccc;fill-opacity:1;stroke:none;filter:url(#filter4358)"
       sodipodi:type="arc" />
    <path
       sodipodi:type="arc"
       style="opacity:0.2;fill:#000000;fill-opacity:1;stroke:none"
       id="path4366"
       sodipodi:cx="-11.5"
       sodipodi:cy="21.5"
       sodipodi:rx="3.5"
       sodipodi:ry="3.5"
       d="m -8,21.5 c 0,1.932997 -1.5670034,3.5 -3.5,3.5 -0.941043,0 -1.842441,-0.378947 -2.500811,-1.051338 L -11.5,21.5 z"
       transform="translate(24,18)"
       sodipodi:start="0"
       sodipodi:end="2.3667304" />
    <path
       sodipodi:end="2.3667304"
       sodipodi:start="0"
       transform="matrix(-1,0,0,-1,1,61)"
       d="m -8,21.5 c 0,1.932997 -1.5670034,3.5 -3.5,3.5 -0.941043,0 -1.842441,-0.378947 -2.500811,-1.051338 L -11.5,21.5 z"
       sodipodi:ry="3.5"
       sodipodi:rx="3.5"
       sodipodi:cy="21.5"
       sodipodi:cx="-11.5"
       id="path4368"
       style="opacity:0.2;fill:#000000;fill-opacity:1;stroke:none"
       sodipodi:type="arc" />
  </g>
</svg>
