<?xml version="1.0" encoding="UTF-8" standalone="no"?>
<!-- Created with Inkscape (http://www.inkscape.org/) -->

<svg
   xmlns:dc="http://purl.org/dc/elements/1.1/"
   xmlns:cc="http://creativecommons.org/ns#"
   xmlns:rdf="http://www.w3.org/1999/02/22-rdf-syntax-ns#"
   xmlns:svg="http://www.w3.org/2000/svg"
   xmlns="http://www.w3.org/2000/svg"
   xmlns:xlink="http://www.w3.org/1999/xlink"
   xmlns:sodipodi="http://sodipodi.sourceforge.net/DTD/sodipodi-0.dtd"
   xmlns:inkscape="http://www.inkscape.org/namespaces/inkscape"
   width="48"
   height="48"
   id="svg2985"
   version="1.1"
   inkscape:version="0.48.4 r9939"
   sodipodi:docname="unity-settings-panel.svg"
   inkscape:export-filename="/home/sam/design/icons/unity-tweak-tool/36/wm-settings-hotcorners.png"
   inkscape:export-xdpi="300"
   inkscape:export-ydpi="300">
  <defs
     id="defs2987">
    <linearGradient
       id="linearGradient4195">
      <stop
         id="stop4197"
         offset="0"
         style="stop-color:#df5e28;stop-opacity:0.94117647;" />
      <stop
         id="stop4199"
         offset="1"
         style="stop-color:#1a1716;stop-opacity:0.941" />
    </linearGradient>
    <linearGradient
       inkscape:collect="always"
       id="linearGradient10954">
      <stop
         style="stop-color:#909090;stop-opacity:1;"
         offset="0"
         id="stop10956" />
      <stop
         style="stop-color:#cecece;stop-opacity:1"
         offset="1"
         id="stop10958" />
    </linearGradient>
    <linearGradient
       inkscape:collect="always"
       id="linearGradient10938">
      <stop
         style="stop-color:#dadada;stop-opacity:1"
         offset="0"
         id="stop10940" />
      <stop
         style="stop-color:#f6f6f5;stop-opacity:1"
         offset="1"
         id="stop10942" />
    </linearGradient>
    <linearGradient
       inkscape:collect="always"
       id="linearGradient11438">
      <stop
         style="stop-color:#babdb6;stop-opacity:1;"
         offset="0"
         id="stop11440" />
      <stop
         style="stop-color:#4a4d46;stop-opacity:1"
         offset="1"
         id="stop11442" />
    </linearGradient>
    <linearGradient
       inkscape:collect="always"
       id="linearGradient10966">
      <stop
         style="stop-color:#ffffff;stop-opacity:1;"
         offset="0"
         id="stop10968" />
      <stop
         style="stop-color:#f0f0f0;stop-opacity:1"
         offset="1"
         id="stop10970" />
    </linearGradient>
    <linearGradient
       id="linearGradient11473">
      <stop
         style="stop-color:#3877c4;stop-opacity:1;"
         offset="0"
         id="stop11475" />
      <stop
         id="stop7562"
         offset="1"
         style="stop-color:#1c3b62;stop-opacity:1;" />
    </linearGradient>
    <linearGradient
       id="linearGradient4788"
       inkscape:collect="always">
      <stop
         id="stop4790"
         offset="0"
         style="stop-color:#ffffff;stop-opacity:1;" />
      <stop
         id="stop4792"
         offset="1"
         style="stop-color:#ffffff;stop-opacity:0;" />
    </linearGradient>
    <radialGradient
       inkscape:collect="always"
       xlink:href="#linearGradient12771"
       id="radialGradient12777"
       cx="144.16689"
       cy="129.17393"
       fx="144.16689"
       fy="129.17393"
       r="97.906487"
       gradientTransform="matrix(1.1657896,-0.05054328,0.0329754,0.74679303,-28.160936,39.99441)"
       gradientUnits="userSpaceOnUse" />
    <linearGradient
       inkscape:collect="always"
       id="linearGradient12771">
      <stop
         style="stop-color:#ffffff;stop-opacity:1;"
         offset="0"
         id="stop12773" />
      <stop
         style="stop-color:#ffffff;stop-opacity:0;"
         offset="1"
         id="stop12775" />
    </linearGradient>
    <radialGradient
       inkscape:collect="always"
       xlink:href="#linearGradient12771"
       id="radialGradient3521"
       cx="144.16689"
       cy="129.17393"
       fx="144.16689"
       fy="129.17393"
       r="97.906487"
       gradientTransform="matrix(1.1657896,-0.05054328,0.0329754,0.74679303,-28.160936,39.99441)"
       gradientUnits="userSpaceOnUse" />
    <radialGradient
       inkscape:collect="always"
       xlink:href="#linearGradient12771"
       id="radialGradient3529"
       cx="144.16689"
       cy="129.17393"
       fx="144.16689"
       fy="129.17393"
       r="97.906487"
       gradientTransform="matrix(1.1657896,-0.05054328,0.0329754,0.74679303,-28.160936,39.99441)"
       gradientUnits="userSpaceOnUse" />
    <radialGradient
       inkscape:collect="always"
       xlink:href="#linearGradient12771"
       id="radialGradient3537"
       cx="144.16689"
       cy="129.17393"
       fx="144.16689"
       fy="129.17393"
       r="97.906487"
       gradientTransform="matrix(1.1657896,-0.05054328,0.0329754,0.74679303,-28.160936,39.99441)"
       gradientUnits="userSpaceOnUse" />
    <radialGradient
       inkscape:collect="always"
       xlink:href="#linearGradient12771"
       id="radialGradient3545"
       cx="144.16689"
       cy="129.17393"
       fx="144.16689"
       fy="129.17393"
       r="97.906487"
       gradientTransform="matrix(1.1657896,-0.05054328,0.0329754,0.74679303,-28.160936,39.99441)"
       gradientUnits="userSpaceOnUse" />
    <radialGradient
       inkscape:collect="always"
       xlink:href="#linearGradient12771"
       id="radialGradient3553"
       cx="144.16689"
       cy="129.17393"
       fx="144.16689"
       fy="129.17393"
       r="97.906487"
       gradientTransform="matrix(1.1657896,-0.05054328,0.0329754,0.74679303,-28.160936,39.99441)"
       gradientUnits="userSpaceOnUse" />
    <radialGradient
       inkscape:collect="always"
       xlink:href="#linearGradient12771"
       id="radialGradient3561"
       cx="144.16689"
       cy="129.17393"
       fx="144.16689"
       fy="129.17393"
       r="97.906487"
       gradientTransform="matrix(1.1657896,-0.05054328,0.0329754,0.74679303,-28.160936,39.99441)"
       gradientUnits="userSpaceOnUse" />
    <radialGradient
       inkscape:collect="always"
       xlink:href="#linearGradient12771"
       id="radialGradient3569"
       cx="144.16689"
       cy="129.17393"
       fx="144.16689"
       fy="129.17393"
       r="97.906487"
       gradientTransform="matrix(1.1657896,-0.05054328,0.0329754,0.74679303,-28.160936,39.99441)"
       gradientUnits="userSpaceOnUse" />
    <radialGradient
       inkscape:collect="always"
       xlink:href="#linearGradient12771"
       id="radialGradient3577"
       cx="144.16689"
       cy="129.17393"
       fx="144.16689"
       fy="129.17393"
       r="97.906487"
       gradientTransform="matrix(1.1657896,-0.05054328,0.0329754,0.74679303,-28.160936,39.99441)"
       gradientUnits="userSpaceOnUse" />
    <radialGradient
       inkscape:collect="always"
       xlink:href="#linearGradient12771"
       id="radialGradient3585"
       cx="144.16689"
       cy="129.17393"
       fx="144.16689"
       fy="129.17393"
       r="97.906487"
       gradientTransform="matrix(1.1657896,-0.05054328,0.0329754,0.74679303,-28.160936,39.99441)"
       gradientUnits="userSpaceOnUse" />
    <radialGradient
       inkscape:collect="always"
       xlink:href="#linearGradient12771"
       id="radialGradient3593"
       cx="144.16689"
       cy="129.17393"
       fx="144.16689"
       fy="129.17393"
       r="97.906487"
       gradientTransform="matrix(1.1657896,-0.05054328,0.0329754,0.74679303,-28.160936,39.99441)"
       gradientUnits="userSpaceOnUse" />
    <radialGradient
       inkscape:collect="always"
       xlink:href="#linearGradient12771"
       id="radialGradient3601"
       cx="144.16689"
       cy="129.17393"
       fx="144.16689"
       fy="129.17393"
       r="97.906487"
       gradientTransform="matrix(1.1657896,-0.05054328,0.0329754,0.74679303,-28.160936,39.99441)"
       gradientUnits="userSpaceOnUse" />
    <radialGradient
       r="97.906487"
       fy="129.17393"
       fx="144.16689"
       cy="129.17393"
       cx="144.16689"
       gradientTransform="matrix(1.1657896,-0.05054328,0.0329754,0.74679303,-28.160936,39.99441)"
       gradientUnits="userSpaceOnUse"
       id="radialGradient3665"
       xlink:href="#linearGradient12771"
       inkscape:collect="always" />
    <radialGradient
       inkscape:collect="always"
       xlink:href="#linearGradient10966"
       id="radialGradient3348"
       gradientUnits="userSpaceOnUse"
       gradientTransform="matrix(0.17091321,2.3948575e-4,-1.885288e-4,0.1345469,-0.82414948,18.425831)"
       cx="149.56461"
       cy="258.76071"
       fx="149.56461"
       fy="258.76071"
       r="116.23129" />
    <linearGradient
       inkscape:collect="always"
       xlink:href="#linearGradient10938"
       id="linearGradient3355"
       gradientUnits="userSpaceOnUse"
       gradientTransform="matrix(0.17601918,0,0,0.17980627,-1.587065,12.337364)"
       x1="134.83331"
       y1="68.529434"
       x2="171.90327"
       y2="206.8764" />
    <linearGradient
       inkscape:collect="always"
       xlink:href="#linearGradient11438"
       id="linearGradient3357"
       gradientUnits="userSpaceOnUse"
       x1="184.9511"
       y1="149.20987"
       x2="185.07069"
       y2="236.39699"
       gradientTransform="matrix(0.17980539,0,0,0.17980539,-0.63860179,10.853331)" />
    <radialGradient
       inkscape:collect="always"
       xlink:href="#linearGradient12771"
       id="radialGradient3387"
       gradientUnits="userSpaceOnUse"
       gradientTransform="matrix(1.1657896,-0.05054328,0.0329754,0.74679303,-28.160936,39.99441)"
       cx="144.16689"
       cy="129.17393"
       fx="144.16689"
       fy="129.17393"
       r="97.906487" />
    <radialGradient
       inkscape:collect="always"
       xlink:href="#linearGradient4788"
       id="radialGradient3404"
       gradientUnits="userSpaceOnUse"
       gradientTransform="matrix(-1.8243761,0.00876531,-0.00620867,-1.3078007,609.52907,98.067298)"
       cx="326.0206"
       cy="58"
       fx="326.0206"
       fy="58"
       r="12.5" />
    <radialGradient
       inkscape:collect="always"
       xlink:href="#linearGradient4788"
       id="radialGradient3407"
       gradientUnits="userSpaceOnUse"
       gradientTransform="matrix(-1.8882016,0.00857771,-0.00642588,-1.2798107,636.86026,96.523354)"
       cx="326.0206"
       cy="58"
       fx="326.0206"
       fy="58"
       r="12.5" />
    <radialGradient
       inkscape:collect="always"
       xlink:href="#linearGradient11473"
       id="radialGradient4014"
       gradientUnits="userSpaceOnUse"
       gradientTransform="matrix(0.27084087,0,0,0.17776648,-16.458295,8.8402271)"
       cx="149.56461"
       cy="190.13727"
       fx="149.56461"
       fy="190.13727"
       r="108.51468" />
    <radialGradient
       inkscape:collect="always"
       xlink:href="#linearGradient11473"
       id="radialGradient4017"
       gradientUnits="userSpaceOnUse"
       gradientTransform="matrix(0.27858123,3.9175803e-4,-2.5360296e-4,0.18163781,-17.627197,7.9749097)"
       cx="149.56461"
       cy="190.13727"
       fx="149.56461"
       fy="190.13727"
       r="108.51468" />
    <linearGradient
       inkscape:collect="always"
       xlink:href="#linearGradient10954"
       id="linearGradient4020"
       gradientUnits="userSpaceOnUse"
       gradientTransform="matrix(0.16968376,2.3939518e-4,-2.3776336e-4,0.17084857,-1.344677,13.527818)"
       x1="141.31458"
       y1="237.28619"
       x2="141.31458"
       y2="57.029434" />
    <radialGradient
       inkscape:collect="always"
       xlink:href="#linearGradient4195-5"
       id="radialGradient3889"
       gradientUnits="userSpaceOnUse"
       gradientTransform="matrix(0.20312507,-0.08812329,0.12363256,0.3357866,-42.385541,-18.859714)"
       cx="189.70168"
       cy="230.10397"
       fx="189.70168"
       fy="230.10397"
       r="108.51468" />
    <linearGradient
       id="linearGradient4195-5">
      <stop
         id="stop4197-5"
         offset="0"
         style="stop-color:#ff5200;stop-opacity:1;" />
      <stop
         id="stop4199-9"
         offset="1"
         style="stop-color:#1a1716;stop-opacity:0.941" />
    </linearGradient>
    <radialGradient
       r="108.51468"
       fy="230.10397"
       fx="189.70168"
       cy="230.10397"
       cx="189.70168"
       gradientTransform="matrix(0.20312507,-0.08812329,0.12363256,0.3357866,-42.94693,-18.046408)"
       gradientUnits="userSpaceOnUse"
       id="radialGradient3099"
       xlink:href="#linearGradient4195-5"
       inkscape:collect="always" />
    <linearGradient
       inkscape:collect="always"
       xlink:href="#linearGradient10954-4"
       id="linearGradient4020-4"
       gradientUnits="userSpaceOnUse"
       gradientTransform="matrix(0.16968376,2.3939518e-4,-2.3776336e-4,0.17084857,-4.9446771,-6.472182)"
       x1="141.31458"
       y1="237.28619"
       x2="141.31458"
       y2="57.029434" />
    <linearGradient
       id="linearGradient10954-4">
      <stop
         style="stop-color:#a4a4a4;stop-opacity:1;"
         offset="0"
         id="stop10956-8" />
      <stop
         style="stop-color:#cecece;stop-opacity:1"
         offset="1"
         id="stop10958-8" />
    </linearGradient>
    <linearGradient
       inkscape:collect="always"
       xlink:href="#linearGradient10954-4"
       id="linearGradient6521"
       gradientUnits="userSpaceOnUse"
       gradientTransform="matrix(0.16968376,2.3939518e-4,-2.3776336e-4,0.17084857,-1.3446778,13.527815)"
       x1="141.31458"
       y1="237.28619"
       x2="141.31458"
       y2="57.029434" />
    <radialGradient
       inkscape:collect="always"
       xlink:href="#linearGradient11473"
       id="radialGradient3843"
       gradientUnits="userSpaceOnUse"
       gradientTransform="matrix(0.27084087,0,0,0.17776648,-16.104742,8.8397266)"
       cx="149.56461"
       cy="190.13727"
       fx="149.56461"
       fy="190.13727"
       r="108.51468" />
    <radialGradient
       inkscape:collect="always"
       xlink:href="#linearGradient11473"
       id="radialGradient3848"
       gradientUnits="userSpaceOnUse"
       gradientTransform="matrix(0.27084087,0,0,0.17776648,-16.458295,8.8402271)"
       cx="149.56461"
       cy="190.13727"
       fx="149.56461"
       fy="190.13727"
       r="108.51468" />
    <radialGradient
       inkscape:collect="always"
       xlink:href="#linearGradient11473"
       id="radialGradient3865"
       gradientUnits="userSpaceOnUse"
       gradientTransform="matrix(0.27084087,0,0,0.17776648,-16.458295,8.8402271)"
       cx="149.56461"
       cy="190.13727"
       fx="149.56461"
       fy="190.13727"
       r="108.51468" />
    <radialGradient
       inkscape:collect="always"
       xlink:href="#linearGradient11473"
       id="radialGradient3910"
       gradientUnits="userSpaceOnUse"
       gradientTransform="matrix(0.27084087,0,0,0.17776648,-16.452747,12.840223)"
       cx="149.56461"
       cy="190.13727"
       fx="149.56461"
       fy="190.13727"
       r="108.51468" />
    <radialGradient
       inkscape:collect="always"
       xlink:href="#linearGradient11473-9"
       id="radialGradient4014-8"
       gradientUnits="userSpaceOnUse"
       gradientTransform="matrix(0.27084087,0,0,0.17776648,-16.458295,8.8402271)"
       cx="149.56461"
       cy="190.13727"
       fx="149.56461"
       fy="190.13727"
       r="108.51468" />
    <linearGradient
       id="linearGradient11473-9">
      <stop
         style="stop-color:#a026c4;stop-opacity:1;"
         offset="0"
         id="stop11475-1" />
      <stop
         id="stop8072"
         offset="1"
         style="stop-color:#501362;stop-opacity:1;" />
    </linearGradient>
    <linearGradient
       id="linearGradient4195-0">
      <stop
         id="stop4197-7"
         offset="0"
         style="stop-color:#ff7400;stop-opacity:1;" />
      <stop
         style="stop-color:#7f3a00;stop-opacity:1;"
         offset="1"
         id="stop3847" />
    </linearGradient>
    <radialGradient
       inkscape:collect="always"
       xlink:href="#linearGradient11473-1"
       id="radialGradient4014-6"
       gradientUnits="userSpaceOnUse"
       gradientTransform="matrix(0.27084087,0,0,0.17776648,-16.458295,8.8402271)"
       cx="149.56461"
       cy="190.13727"
       fx="149.56461"
       fy="190.13727"
       r="108.51468" />
    <linearGradient
       id="linearGradient11473-1">
      <stop
         style="stop-color:#e74d75;stop-opacity:1;"
         offset="0"
         id="stop11475-16" />
      <stop
         id="stop5517"
         offset="1"
         style="stop-color:#73263a;stop-opacity:1;" />
    </linearGradient>
    <radialGradient
       inkscape:collect="always"
       xlink:href="#linearGradient11473-14"
       id="radialGradient4014-1"
       gradientUnits="userSpaceOnUse"
       gradientTransform="matrix(0.27084087,0,0,0.17776648,-16.813635,12.200733)"
       cx="149.56461"
       cy="190.13727"
       fx="149.56461"
       fy="190.13727"
       r="108.51468" />
    <linearGradient
       id="linearGradient11473-14">
      <stop
         style="stop-color:#4db4e7;stop-opacity:1;"
         offset="0"
         id="stop11475-4" />
      <stop
         id="stop4036"
         offset="1"
         style="stop-color:#265a73;stop-opacity:1;" />
    </linearGradient>
    <radialGradient
       inkscape:collect="always"
       xlink:href="#linearGradient11473-7"
       id="radialGradient4014-15"
       gradientUnits="userSpaceOnUse"
       gradientTransform="matrix(0.27084087,0,0,0.17776648,-16.458295,8.8402271)"
       cx="149.56461"
       cy="190.13727"
       fx="149.56461"
       fy="190.13727"
       r="108.51468" />
    <linearGradient
       id="linearGradient11473-7">
      <stop
         style="stop-color:#958ed1;stop-opacity:1;"
         offset="0"
         id="stop11475-9" />
      <stop
         id="stop7776"
         offset="1"
         style="stop-color:#4a4768;stop-opacity:1;" />
    </linearGradient>
    <filter
       color-interpolation-filters="sRGB"
       inkscape:collect="always"
       id="filter3890"
       x="-1.0506629"
       width="3.1013258"
       y="-1.0506629"
       height="3.1013258">
      <feGaussianBlur
         inkscape:collect="always"
         stdDeviation="2.1888811"
         id="feGaussianBlur3892" />
    </filter>
    <filter
       color-interpolation-filters="sRGB"
       inkscape:collect="always"
       id="filter3894"
       x="-1.0506629"
       width="3.1013258"
       y="-1.0506629"
       height="3.1013258">
      <feGaussianBlur
         inkscape:collect="always"
         stdDeviation="2.1888811"
         id="feGaussianBlur3896" />
    </filter>
    <filter
       color-interpolation-filters="sRGB"
       inkscape:collect="always"
       id="filter3898"
       x="-1.0506629"
       width="3.1013258"
       y="-1.0506629"
       height="3.1013258">
      <feGaussianBlur
         inkscape:collect="always"
         stdDeviation="2.1888811"
         id="feGaussianBlur3900" />
    </filter>
    <filter
       color-interpolation-filters="sRGB"
       inkscape:collect="always"
       id="filter3902"
       x="-1.0506629"
       width="3.1013258"
       y="-1.0506629"
       height="3.1013258">
      <feGaussianBlur
         inkscape:collect="always"
         stdDeviation="2.1888811"
         id="feGaussianBlur3904" />
    </filter>
    <filter
       color-interpolation-filters="sRGB"
       inkscape:collect="always"
       id="filter3906"
       x="-1.0506629"
       width="3.1013258"
       y="-1.0506629"
       height="3.1013258">
      <feGaussianBlur
         inkscape:collect="always"
         stdDeviation="2.1888811"
         id="feGaussianBlur3908" />
    </filter>
    <filter
       color-interpolation-filters="sRGB"
       inkscape:collect="always"
       id="filter3910"
       x="-1.0506629"
       width="3.1013258"
       y="-1.0506629"
       height="3.1013258">
      <feGaussianBlur
         inkscape:collect="always"
         stdDeviation="2.1888811"
         id="feGaussianBlur3912" />
    </filter>
    <filter
       color-interpolation-filters="sRGB"
       inkscape:collect="always"
       id="filter3914"
       x="-1.0506629"
       width="3.1013258"
       y="-1.0506629"
       height="3.1013258">
      <feGaussianBlur
         inkscape:collect="always"
         stdDeviation="2.1888811"
         id="feGaussianBlur3916" />
    </filter>
    <filter
       color-interpolation-filters="sRGB"
       inkscape:collect="always"
       id="filter3918"
       x="-1.0506629"
       width="3.1013258"
       y="-1.0506629"
       height="3.1013258">
      <feGaussianBlur
         inkscape:collect="always"
         stdDeviation="2.1888811"
         id="feGaussianBlur3920" />
    </filter>
    <filter
       color-interpolation-filters="sRGB"
       inkscape:collect="always"
       id="filter3922"
       x="-1.0506629"
       width="3.1013258"
       y="-1.0506629"
       height="3.1013258">
      <feGaussianBlur
         inkscape:collect="always"
         stdDeviation="2.1888811"
         id="feGaussianBlur3924" />
    </filter>
    <radialGradient
       r="108.51468"
       fy="206.85263"
       fx="150.13383"
       cy="206.85263"
       cx="150.13383"
       gradientTransform="matrix(0.27084087,0,0,0.17776648,-16.595827,11.194513)"
       gradientUnits="userSpaceOnUse"
       id="radialGradient3216"
       xlink:href="#linearGradient11473-7"
       inkscape:collect="always" />
    <filter
       inkscape:collect="always"
       id="filter4699">
      <feGaussianBlur
         inkscape:collect="always"
         stdDeviation="0.2125"
         id="feGaussianBlur4701" />
    </filter>
  </defs>
  <sodipodi:namedview
     id="base"
     pagecolor="#ffffff"
     bordercolor="#666666"
     borderopacity="1.0"
     inkscape:pageopacity="0"
     inkscape:pageshadow="2"
     inkscape:zoom="11.313708"
     inkscape:cx="44.731828"
     inkscape:cy="18.427999"
     inkscape:current-layer="layer1"
     showgrid="true"
     inkscape:document-units="px"
     inkscape:grid-bbox="true"
     inkscape:window-width="1366"
     inkscape:window-height="711"
     inkscape:window-x="0"
     inkscape:window-y="27"
     inkscape:window-maximized="1"
     showguides="true"
     inkscape:guide-bbox="true"
     inkscape:snap-bbox="true">
    <inkscape:grid
       type="xygrid"
       id="grid2982"
       empspacing="5"
       visible="true"
       enabled="true"
       snapvisiblegridlinesonly="true" />
  </sodipodi:namedview>
  <metadata
     id="metadata2990">
    <rdf:RDF>
      <cc:Work
         rdf:about="">
        <dc:format>image/svg+xml</dc:format>
        <dc:type
           rdf:resource="http://purl.org/dc/dcmitype/StillImage" />
        <dc:title />
      </cc:Work>
    </rdf:RDF>
  </metadata>
  <g
     id="layer1"
     inkscape:label="Layer 1"
     inkscape:groupmode="layer"
     transform="translate(0,-16)">
    <path
       sodipodi:nodetypes="cccscscscccccc"
       id="path4020"
       d="m 6,26 c -1,0 -1,1 -1,1 l 0,29 c 0,0 0,1 1,1 l 38,0 c 0,0 1,0 1,-1 l 0,-29 c 0,0 0,-1 -1,-1 z m 37,2 0,27 -36,0 0,-27 z"
       style="color:#000000;fill:#b3b3b3;fill-opacity:1;fill-rule:nonzero;stroke:none;stroke-width:10.11600018;marker:none;visibility:visible;display:inline;overflow:visible;enable-background:new"
       inkscape:connector-curvature="0" />
    <rect
       transform="matrix(0.999999,0.00141561,-0.00138697,0.99999904,0,0)"
       ry="0.87722546"
       rx="0.87199056"
       y="25.992897"
       x="5.036056"
       height="28.946177"
       width="38.040184"
       id="rect10538"
       style="color:#000000;fill:url(#radialGradient3216);fill-opacity:1;fill-rule:nonzero;stroke:none;stroke-width:2;marker:none;visibility:visible;display:inline;overflow:visible;enable-background:accumulate" />
    <path
       sodipodi:nodetypes="ccccc"
       inkscape:connector-curvature="0"
       id="path4703"
       d="m 5,27 0,3 38,0 c 0,0 0,-2 0,-3 z"
       style="fill:#777777;fill-opacity:1;stroke:none" />
    <rect
       style="color:#000000;fill:#777777;fill-opacity:1;fill-rule:nonzero;stroke:none;stroke-width:10.11600018;marker:none;visibility:visible;display:inline;overflow:visible;enable-background:new"
       id="rect4627"
       width="13"
       height="13"
       x="26"
       y="28"
       rx="0"
       ry="0" />
    <path
       style="fill:#333333;fill-opacity:1;stroke:none"
       d="m 5,26 0,3 38,0 c 0,0 0,-2 0,-3 z"
       id="rect3064"
       inkscape:connector-curvature="0"
       sodipodi:nodetypes="ccccc" />
    <path
       inkscape:connector-curvature="0"
       style="color:#000000;fill:#333333;fill-opacity:1;fill-rule:nonzero;stroke:none;stroke-width:10.11600018;marker:none;visibility:visible;display:inline;overflow:visible;enable-background:new"
       d="m 5,25 c -1,0 -1,1 -1,1 l 0,29 c 0,0 0,1 1,1 l 38,0 c 0,0 1,0 1,-1 l 0,-29 c 0,0 0,-1 -1,-1 z m 37,2 0,27 -36,0 0,-27 z"
       id="rect3070"
       sodipodi:nodetypes="cccscscscccccc" />
    <path
       style="fill:#333333;fill-opacity:1;stroke:none"
       d="m 27,29 0,11 11,0 0,-11 z"
       id="path3948"
       inkscape:connector-curvature="0"
       sodipodi:nodetypes="ccccc" />
    <path
       sodipodi:type="arc"
       style="fill:#dfdbd2;fill-opacity:1;stroke:none;filter:url(#filter3890)"
       id="path3872"
       sodipodi:cx="57.5"
       sodipodi:cy="20.5"
       sodipodi:rx="2.5"
       sodipodi:ry="2.5"
       d="M 60,20.5 C 60,21.880712 58.880712,23 57.5,23 56.119288,23 55,21.880712 55,20.5 55,19.119288 56.119288,18 57.5,18 c 1.380712,0 2.5,1.119288 2.5,2.5 z"
       transform="matrix(0.2,0,0,0.2,21.999999,23.422097)" />
    <path
       sodipodi:type="arc"
       style="fill:#dfdbd2;fill-opacity:1;stroke:none;filter:url(#filter3894)"
       id="path3874"
       sodipodi:cx="57.5"
       sodipodi:cy="20.5"
       sodipodi:rx="2.5"
       sodipodi:ry="2.5"
       d="M 60,20.5 C 60,21.880712 58.880712,23 57.5,23 56.119288,23 55,21.880712 55,20.5 55,19.119288 56.119288,18 57.5,18 c 1.380712,0 2.5,1.119288 2.5,2.5 z"
       transform="matrix(0.2,0,0,0.2,19.999999,23.4)" />
    <path
       transform="matrix(0.2,0,0,0.2,23.999999,23.4)"
       d="M 60,20.5 C 60,21.880712 58.880712,23 57.5,23 56.119288,23 55,21.880712 55,20.5 55,19.119288 56.119288,18 57.5,18 c 1.380712,0 2.5,1.119288 2.5,2.5 z"
       sodipodi:ry="2.5"
       sodipodi:rx="2.5"
       sodipodi:cy="20.5"
       sodipodi:cx="57.5"
       id="path3876"
       style="fill:#dfdbd2;fill-opacity:1;stroke:none;filter:url(#filter3898)"
       sodipodi:type="arc" />
    <path
       sodipodi:type="arc"
       style="fill:#dfdbd2;fill-opacity:1;stroke:none;filter:url(#filter3902)"
       id="path3878"
       sodipodi:cx="57.5"
       sodipodi:cy="20.5"
       sodipodi:rx="2.5"
       sodipodi:ry="2.5"
       d="M 60,20.5 C 60,21.880712 58.880712,23 57.5,23 56.119288,23 55,21.880712 55,20.5 55,19.119288 56.119288,18 57.5,18 c 1.380712,0 2.5,1.119288 2.5,2.5 z"
       transform="matrix(0.2,0,0,0.2,28.949337,23.450663)" />
    <path
       sodipodi:type="arc"
       style="fill:#dfdbd2;fill-opacity:1;stroke:none;filter:url(#filter3906)"
       id="path3880"
       sodipodi:cx="57.5"
       sodipodi:cy="20.5"
       sodipodi:rx="2.5"
       sodipodi:ry="2.5"
       d="M 60,20.5 C 60,21.880712 58.880712,23 57.5,23 56.119288,23 55,21.880712 55,20.5 55,19.119288 56.119288,18 57.5,18 c 1.380712,0 2.5,1.119288 2.5,2.5 z"
       transform="matrix(0.2,0,0,0.2,25.999999,23.4)" />
    <path
       transform="matrix(0.2,0,0,0.2,26.999999,23.4)"
       d="M 60,20.5 C 60,21.880712 58.880712,23 57.5,23 56.119288,23 55,21.880712 55,20.5 55,19.119288 56.119288,18 57.5,18 c 1.380712,0 2.5,1.119288 2.5,2.5 z"
       sodipodi:ry="2.5"
       sodipodi:rx="2.5"
       sodipodi:cy="20.5"
       sodipodi:cx="57.5"
       id="path3882"
       style="fill:#dfdbd2;fill-opacity:1;stroke:none;filter:url(#filter3910)"
       sodipodi:type="arc" />
    <path
       transform="matrix(0.2,0,0,0.2,-4,23.4)"
       d="M 60,20.5 C 60,21.880712 58.880712,23 57.5,23 56.119288,23 55,21.880712 55,20.5 55,19.119288 56.119288,18 57.5,18 c 1.380712,0 2.5,1.119288 2.5,2.5 z"
       sodipodi:ry="2.5"
       sodipodi:rx="2.5"
       sodipodi:cy="20.5"
       sodipodi:cx="57.5"
       id="path3884"
       style="fill:#dfdbd2;fill-opacity:1;stroke:none;filter:url(#filter3914)"
       sodipodi:type="arc" />
    <path
       sodipodi:type="arc"
       style="fill:#dfdbd2;fill-opacity:1;stroke:none;filter:url(#filter3918)"
       id="path3886"
       sodipodi:cx="57.5"
       sodipodi:cy="20.5"
       sodipodi:rx="2.5"
       sodipodi:ry="2.5"
       d="M 60,20.5 C 60,21.880712 58.880712,23 57.5,23 56.119288,23 55,21.880712 55,20.5 55,19.119288 56.119288,18 57.5,18 c 1.380712,0 2.5,1.119288 2.5,2.5 z"
       transform="matrix(0.2,0,0,0.2,-3,23.4)" />
    <path
       transform="matrix(0.2,0,0,0.2,-2,23.4)"
       d="M 60,20.5 C 60,21.880712 58.880712,23 57.5,23 56.119288,23 55,21.880712 55,20.5 55,19.119288 56.119288,18 57.5,18 c 1.380712,0 2.5,1.119288 2.5,2.5 z"
       sodipodi:ry="2.5"
       sodipodi:rx="2.5"
       sodipodi:cy="20.5"
       sodipodi:cx="57.5"
       id="path3888"
       style="fill:#dfdbd2;fill-opacity:1;stroke:none;filter:url(#filter3922)"
       sodipodi:type="arc" />
    <path
       transform="matrix(0.2,0,0,0.2,22,23.422097)"
       d="M 60,20.5 C 60,21.880712 58.880712,23 57.5,23 56.119288,23 55,21.880712 55,20.5 55,19.119288 56.119288,18 57.5,18 c 1.380712,0 2.5,1.119288 2.5,2.5 z"
       sodipodi:ry="2.5"
       sodipodi:rx="2.5"
       sodipodi:cy="20.5"
       sodipodi:cx="57.5"
       id="path3979"
       style="fill:#dfdbd2;fill-opacity:1;stroke:none"
       sodipodi:type="arc" />
    <path
       transform="matrix(0.2,0,0,0.2,20,23.4)"
       d="M 60,20.5 C 60,21.880712 58.880712,23 57.5,23 56.119288,23 55,21.880712 55,20.5 55,19.119288 56.119288,18 57.5,18 c 1.380712,0 2.5,1.119288 2.5,2.5 z"
       sodipodi:ry="2.5"
       sodipodi:rx="2.5"
       sodipodi:cy="20.5"
       sodipodi:cx="57.5"
       id="path4005"
       style="fill:#dfdbd2;fill-opacity:1;stroke:none"
       sodipodi:type="arc" />
    <path
       sodipodi:type="arc"
       style="fill:#dfdbd2;fill-opacity:1;stroke:none"
       id="path4007"
       sodipodi:cx="57.5"
       sodipodi:cy="20.5"
       sodipodi:rx="2.5"
       sodipodi:ry="2.5"
       d="M 60,20.5 C 60,21.880712 58.880712,23 57.5,23 56.119288,23 55,21.880712 55,20.5 55,19.119288 56.119288,18 57.5,18 c 1.380712,0 2.5,1.119288 2.5,2.5 z"
       transform="matrix(0.2,0,0,0.2,24,23.4)" />
    <path
       transform="matrix(0.2,0,0,0.2,29,23.4)"
       d="M 60,20.5 C 60,21.880712 58.880712,23 57.5,23 56.119288,23 55,21.880712 55,20.5 55,19.119288 56.119288,18 57.5,18 c 1.380712,0 2.5,1.119288 2.5,2.5 z"
       sodipodi:ry="2.5"
       sodipodi:rx="2.5"
       sodipodi:cy="20.5"
       sodipodi:cx="57.5"
       id="path3858"
       style="fill:#dfdbd2;fill-opacity:1;stroke:none"
       sodipodi:type="arc" />
    <path
       transform="matrix(0.2,0,0,0.2,26,23.4)"
       d="M 60,20.5 C 60,21.880712 58.880712,23 57.5,23 56.119288,23 55,21.880712 55,20.5 55,19.119288 56.119288,18 57.5,18 c 1.380712,0 2.5,1.119288 2.5,2.5 z"
       sodipodi:ry="2.5"
       sodipodi:rx="2.5"
       sodipodi:cy="20.5"
       sodipodi:cx="57.5"
       id="path3862"
       style="fill:#dfdbd2;fill-opacity:1;stroke:none"
       sodipodi:type="arc" />
    <path
       sodipodi:type="arc"
       style="fill:#dfdbd2;fill-opacity:1;stroke:none"
       id="path3864"
       sodipodi:cx="57.5"
       sodipodi:cy="20.5"
       sodipodi:rx="2.5"
       sodipodi:ry="2.5"
       d="M 60,20.5 C 60,21.880712 58.880712,23 57.5,23 56.119288,23 55,21.880712 55,20.5 55,19.119288 56.119288,18 57.5,18 c 1.380712,0 2.5,1.119288 2.5,2.5 z"
       transform="matrix(0.2,0,0,0.2,27,23.4)" />
    <path
       sodipodi:type="arc"
       style="fill:#dfdbd2;fill-opacity:1;stroke:none"
       id="path3866"
       sodipodi:cx="57.5"
       sodipodi:cy="20.5"
       sodipodi:rx="2.5"
       sodipodi:ry="2.5"
       d="M 60,20.5 C 60,21.880712 58.880712,23 57.5,23 56.119288,23 55,21.880712 55,20.5 55,19.119288 56.119288,18 57.5,18 c 1.380712,0 2.5,1.119288 2.5,2.5 z"
       transform="matrix(0.2,0,0,0.2,-4,23.4)" />
    <path
       transform="matrix(0.2,0,0,0.2,-3,23.4)"
       d="M 60,20.5 C 60,21.880712 58.880712,23 57.5,23 56.119288,23 55,21.880712 55,20.5 55,19.119288 56.119288,18 57.5,18 c 1.380712,0 2.5,1.119288 2.5,2.5 z"
       sodipodi:ry="2.5"
       sodipodi:rx="2.5"
       sodipodi:cy="20.5"
       sodipodi:cx="57.5"
       id="path3868"
       style="fill:#dfdbd2;fill-opacity:1;stroke:none"
       sodipodi:type="arc" />
    <path
       sodipodi:type="arc"
       style="fill:#dfdbd2;fill-opacity:1;stroke:none"
       id="path3870"
       sodipodi:cx="57.5"
       sodipodi:cy="20.5"
       sodipodi:rx="2.5"
       sodipodi:ry="2.5"
       d="M 60,20.5 C 60,21.880712 58.880712,23 57.5,23 56.119288,23 55,21.880712 55,20.5 55,19.119288 56.119288,18 57.5,18 c 1.380712,0 2.5,1.119288 2.5,2.5 z"
       transform="matrix(0.2,0,0,0.2,-2,23.4)" />
    <g
       id="g4662"
       transform="translate(0,-2)">
      <path
         transform="matrix(0.2,0,0,0.2,17,28.4)"
         d="M 60,20.5 C 60,21.880712 58.880712,23 57.5,23 56.119288,23 55,21.880712 55,20.5 55,19.119288 56.119288,18 57.5,18 c 1.380712,0 2.5,1.119288 2.5,2.5 z"
         sodipodi:ry="2.5"
         sodipodi:rx="2.5"
         sodipodi:cy="20.5"
         sodipodi:cx="57.5"
         id="path3958"
         style="fill:#dfdbd2;fill-opacity:1;stroke:none"
         sodipodi:type="arc" />
      <path
         sodipodi:type="arc"
         style="fill:#dfdbd2;fill-opacity:1;stroke:none"
         id="path3970"
         sodipodi:cx="57.5"
         sodipodi:cy="20.5"
         sodipodi:rx="2.5"
         sodipodi:ry="2.5"
         d="M 60,20.5 C 60,21.880712 58.880712,23 57.5,23 56.119288,23 55,21.880712 55,20.5 55,19.119288 56.119288,18 57.5,18 c 1.380712,0 2.5,1.119288 2.5,2.5 z"
         transform="matrix(0.2,0,0,0.2,25,28.4)" />
      <path
         transform="matrix(0.2,0,0,0.2,17,31.4)"
         d="M 60,20.5 C 60,21.880712 58.880712,23 57.5,23 56.119288,23 55,21.880712 55,20.5 55,19.119288 56.119288,18 57.5,18 c 1.380712,0 2.5,1.119288 2.5,2.5 z"
         sodipodi:ry="2.5"
         sodipodi:rx="2.5"
         sodipodi:cy="20.5"
         sodipodi:cx="57.5"
         id="path3972"
         style="fill:#dfdbd2;fill-opacity:1;stroke:none"
         sodipodi:type="arc" />
      <path
         sodipodi:type="arc"
         style="fill:#dfdbd2;fill-opacity:1;stroke:none"
         id="path3974"
         sodipodi:cx="57.5"
         sodipodi:cy="20.5"
         sodipodi:rx="2.5"
         sodipodi:ry="2.5"
         d="M 60,20.5 C 60,21.880712 58.880712,23 57.5,23 56.119288,23 55,21.880712 55,20.5 55,19.119288 56.119288,18 57.5,18 c 1.380712,0 2.5,1.119288 2.5,2.5 z"
         transform="matrix(0.6,0,0,0.6,-2,26.2)" />
      <path
         transform="matrix(0.2,0,0,0.2,19,28.4)"
         d="M 60,20.5 C 60,21.880712 58.880712,23 57.5,23 56.119288,23 55,21.880712 55,20.5 55,19.119288 56.119288,18 57.5,18 c 1.380712,0 2.5,1.119288 2.5,2.5 z"
         sodipodi:ry="2.5"
         sodipodi:rx="2.5"
         sodipodi:cy="20.5"
         sodipodi:cx="57.5"
         id="path4000"
         style="fill:#dd4814;fill-opacity:1;stroke:none"
         sodipodi:type="arc" />
      <path
         sodipodi:type="arc"
         style="fill:#dd4814;fill-opacity:1;stroke:none"
         id="path4002"
         sodipodi:cx="57.5"
         sodipodi:cy="20.5"
         sodipodi:rx="2.5"
         sodipodi:ry="2.5"
         d="M 60,20.5 C 60,21.880712 58.880712,23 57.5,23 56.119288,23 55,21.880712 55,20.5 55,19.119288 56.119288,18 57.5,18 c 1.380712,0 2.5,1.119288 2.5,2.5 z"
         transform="matrix(0.2,0,0,0.2,20,28.4)" />
      <path
         transform="matrix(0.2,0,0,0.2,21,28.4)"
         d="M 60,20.5 C 60,21.880712 58.880712,23 57.5,23 56.119288,23 55,21.880712 55,20.5 55,19.119288 56.119288,18 57.5,18 c 1.380712,0 2.5,1.119288 2.5,2.5 z"
         sodipodi:ry="2.5"
         sodipodi:rx="2.5"
         sodipodi:cy="20.5"
         sodipodi:cx="57.5"
         id="path4004"
         style="fill:#dd4814;fill-opacity:1;stroke:none"
         sodipodi:type="arc" />
      <path
         sodipodi:type="arc"
         style="fill:#dd4814;fill-opacity:1;stroke:none"
         id="path4006"
         sodipodi:cx="57.5"
         sodipodi:cy="20.5"
         sodipodi:rx="2.5"
         sodipodi:ry="2.5"
         d="M 60,20.5 C 60,21.880712 58.880712,23 57.5,23 56.119288,23 55,21.880712 55,20.5 55,19.119288 56.119288,18 57.5,18 c 1.380712,0 2.5,1.119288 2.5,2.5 z"
         transform="matrix(0.2,0,0,0.2,23,28.4)" />
      <path
         transform="matrix(0.2,0,0,0.2,22,28.4)"
         d="M 60,20.5 C 60,21.880712 58.880712,23 57.5,23 56.119288,23 55,21.880712 55,20.5 55,19.119288 56.119288,18 57.5,18 c 1.380712,0 2.5,1.119288 2.5,2.5 z"
         sodipodi:ry="2.5"
         sodipodi:rx="2.5"
         sodipodi:cy="20.5"
         sodipodi:cx="57.5"
         id="path4008"
         style="fill:#dd4814;fill-opacity:1;stroke:none"
         sodipodi:type="arc" />
      <path
         transform="matrix(0.2,0,0,0.2,19,34.4)"
         d="M 60,20.5 C 60,21.880712 58.880712,23 57.5,23 56.119288,23 55,21.880712 55,20.5 55,19.119288 56.119288,18 57.5,18 c 1.380712,0 2.5,1.119288 2.5,2.5 z"
         sodipodi:ry="2.5"
         sodipodi:rx="2.5"
         sodipodi:cy="20.5"
         sodipodi:cx="57.5"
         id="path4010"
         style="fill:#dfdbd2;fill-opacity:1;stroke:none"
         sodipodi:type="arc" />
      <path
         sodipodi:type="arc"
         style="fill:#dfdbd2;fill-opacity:1;stroke:none"
         id="path4012"
         sodipodi:cx="57.5"
         sodipodi:cy="20.5"
         sodipodi:rx="2.5"
         sodipodi:ry="2.5"
         d="M 60,20.5 C 60,21.880712 58.880712,23 57.5,23 56.119288,23 55,21.880712 55,20.5 55,19.119288 56.119288,18 57.5,18 c 1.380712,0 2.5,1.119288 2.5,2.5 z"
         transform="matrix(0.2,0,0,0.2,23,34.4)" />
    </g>
    <g
       id="g4675"
       style="filter:url(#filter4699)"
       transform="translate(0,-2)">
      <path
         sodipodi:type="arc"
         style="fill:#dfdbd2;fill-opacity:1;stroke:none"
         id="path4677"
         sodipodi:cx="57.5"
         sodipodi:cy="20.5"
         sodipodi:rx="2.5"
         sodipodi:ry="2.5"
         d="M 60,20.5 C 60,21.880712 58.880712,23 57.5,23 56.119288,23 55,21.880712 55,20.5 55,19.119288 56.119288,18 57.5,18 c 1.380712,0 2.5,1.119288 2.5,2.5 z"
         transform="matrix(0.2,0,0,0.2,17,28.4)" />
      <path
         transform="matrix(0.2,0,0,0.2,25,28.4)"
         d="M 60,20.5 C 60,21.880712 58.880712,23 57.5,23 56.119288,23 55,21.880712 55,20.5 55,19.119288 56.119288,18 57.5,18 c 1.380712,0 2.5,1.119288 2.5,2.5 z"
         sodipodi:ry="2.5"
         sodipodi:rx="2.5"
         sodipodi:cy="20.5"
         sodipodi:cx="57.5"
         id="path4679"
         style="fill:#dfdbd2;fill-opacity:1;stroke:none"
         sodipodi:type="arc" />
      <path
         sodipodi:type="arc"
         style="fill:#dfdbd2;fill-opacity:1;stroke:none"
         id="path4681"
         sodipodi:cx="57.5"
         sodipodi:cy="20.5"
         sodipodi:rx="2.5"
         sodipodi:ry="2.5"
         d="M 60,20.5 C 60,21.880712 58.880712,23 57.5,23 56.119288,23 55,21.880712 55,20.5 55,19.119288 56.119288,18 57.5,18 c 1.380712,0 2.5,1.119288 2.5,2.5 z"
         transform="matrix(0.2,0,0,0.2,17,31.4)" />
      <path
         transform="matrix(0.6,0,0,0.6,-2,26.2)"
         d="M 60,20.5 C 60,21.880712 58.880712,23 57.5,23 56.119288,23 55,21.880712 55,20.5 55,19.119288 56.119288,18 57.5,18 c 1.380712,0 2.5,1.119288 2.5,2.5 z"
         sodipodi:ry="2.5"
         sodipodi:rx="2.5"
         sodipodi:cy="20.5"
         sodipodi:cx="57.5"
         id="path4683"
         style="fill:#dfdbd2;fill-opacity:1;stroke:none"
         sodipodi:type="arc" />
      <path
         sodipodi:type="arc"
         style="fill:#dd4814;fill-opacity:1;stroke:none"
         id="path4685"
         sodipodi:cx="57.5"
         sodipodi:cy="20.5"
         sodipodi:rx="2.5"
         sodipodi:ry="2.5"
         d="M 60,20.5 C 60,21.880712 58.880712,23 57.5,23 56.119288,23 55,21.880712 55,20.5 55,19.119288 56.119288,18 57.5,18 c 1.380712,0 2.5,1.119288 2.5,2.5 z"
         transform="matrix(0.2,0,0,0.2,19,28.4)" />
      <path
         transform="matrix(0.2,0,0,0.2,20,28.4)"
         d="M 60,20.5 C 60,21.880712 58.880712,23 57.5,23 56.119288,23 55,21.880712 55,20.5 55,19.119288 56.119288,18 57.5,18 c 1.380712,0 2.5,1.119288 2.5,2.5 z"
         sodipodi:ry="2.5"
         sodipodi:rx="2.5"
         sodipodi:cy="20.5"
         sodipodi:cx="57.5"
         id="path4687"
         style="fill:#dd4814;fill-opacity:1;stroke:none"
         sodipodi:type="arc" />
      <path
         sodipodi:type="arc"
         style="fill:#dd4814;fill-opacity:1;stroke:none"
         id="path4689"
         sodipodi:cx="57.5"
         sodipodi:cy="20.5"
         sodipodi:rx="2.5"
         sodipodi:ry="2.5"
         d="M 60,20.5 C 60,21.880712 58.880712,23 57.5,23 56.119288,23 55,21.880712 55,20.5 55,19.119288 56.119288,18 57.5,18 c 1.380712,0 2.5,1.119288 2.5,2.5 z"
         transform="matrix(0.2,0,0,0.2,21,28.4)" />
      <path
         transform="matrix(0.2,0,0,0.2,23,28.4)"
         d="M 60,20.5 C 60,21.880712 58.880712,23 57.5,23 56.119288,23 55,21.880712 55,20.5 55,19.119288 56.119288,18 57.5,18 c 1.380712,0 2.5,1.119288 2.5,2.5 z"
         sodipodi:ry="2.5"
         sodipodi:rx="2.5"
         sodipodi:cy="20.5"
         sodipodi:cx="57.5"
         id="path4691"
         style="fill:#dd4814;fill-opacity:1;stroke:none"
         sodipodi:type="arc" />
      <path
         sodipodi:type="arc"
         style="fill:#dd4814;fill-opacity:1;stroke:none"
         id="path4693"
         sodipodi:cx="57.5"
         sodipodi:cy="20.5"
         sodipodi:rx="2.5"
         sodipodi:ry="2.5"
         d="M 60,20.5 C 60,21.880712 58.880712,23 57.5,23 56.119288,23 55,21.880712 55,20.5 55,19.119288 56.119288,18 57.5,18 c 1.380712,0 2.5,1.119288 2.5,2.5 z"
         transform="matrix(0.2,0,0,0.2,22,28.4)" />
      <path
         sodipodi:type="arc"
         style="fill:#dfdbd2;fill-opacity:1;stroke:none"
         id="path4695"
         sodipodi:cx="57.5"
         sodipodi:cy="20.5"
         sodipodi:rx="2.5"
         sodipodi:ry="2.5"
         d="M 60,20.5 C 60,21.880712 58.880712,23 57.5,23 56.119288,23 55,21.880712 55,20.5 55,19.119288 56.119288,18 57.5,18 c 1.380712,0 2.5,1.119288 2.5,2.5 z"
         transform="matrix(0.2,0,0,0.2,19,34.4)" />
      <path
         transform="matrix(0.2,0,0,0.2,23,34.4)"
         d="M 60,20.5 C 60,21.880712 58.880712,23 57.5,23 56.119288,23 55,21.880712 55,20.5 55,19.119288 56.119288,18 57.5,18 c 1.380712,0 2.5,1.119288 2.5,2.5 z"
         sodipodi:ry="2.5"
         sodipodi:rx="2.5"
         sodipodi:cy="20.5"
         sodipodi:cx="57.5"
         id="path4697"
         style="fill:#dfdbd2;fill-opacity:1;stroke:none"
         sodipodi:type="arc" />
    </g>
  </g>
</svg>
