<?xml version="1.0" encoding="UTF-8" standalone="no"?>
<!-- Created with Inkscape (http://www.inkscape.org/) -->

<svg
   xmlns:dc="http://purl.org/dc/elements/1.1/"
   xmlns:cc="http://creativecommons.org/ns#"
   xmlns:rdf="http://www.w3.org/1999/02/22-rdf-syntax-ns#"
   xmlns:svg="http://www.w3.org/2000/svg"
   xmlns="http://www.w3.org/2000/svg"
   xmlns:xlink="http://www.w3.org/1999/xlink"
   xmlns:sodipodi="http://sodipodi.sourceforge.net/DTD/sodipodi-0.dtd"
   xmlns:inkscape="http://www.inkscape.org/namespaces/inkscape"
   width="48"
   height="48"
   id="svg2985"
   version="1.1"
   inkscape:version="0.48.4 r9939"
   sodipodi:docname="unity-settings-webapps.svg"
   inkscape:export-filename="/home/sam/design/icons/unity-tweak-tool/36/wm-settings-window-snapping.png"
   inkscape:export-xdpi="90"
   inkscape:export-ydpi="90">
  <defs
     id="defs2987">
    <linearGradient
       id="linearGradient4538">
      <stop
         style="stop-color:#ffffff;stop-opacity:1;"
         offset="0"
         id="stop4540" />
      <stop
         id="stop4546"
         offset="0.5"
         style="stop-color:#ffffff;stop-opacity:0;" />
      <stop
         style="stop-color:#ffffff;stop-opacity:0;"
         offset="1"
         id="stop4542" />
    </linearGradient>
    <linearGradient
       id="linearGradient4195">
      <stop
         id="stop4197"
         offset="0"
         style="stop-color:#df5e28;stop-opacity:0.94117647;" />
      <stop
         id="stop4199"
         offset="1"
         style="stop-color:#1a1716;stop-opacity:0.941" />
    </linearGradient>
    <filter
       color-interpolation-filters="sRGB"
       inkscape:collect="always"
       id="filter11507">
      <feGaussianBlur
         inkscape:collect="always"
         stdDeviation="1.05625"
         id="feGaussianBlur11509" />
    </filter>
    <linearGradient
       inkscape:collect="always"
       id="linearGradient10954">
      <stop
         style="stop-color:#909090;stop-opacity:1;"
         offset="0"
         id="stop10956" />
      <stop
         style="stop-color:#cecece;stop-opacity:1"
         offset="1"
         id="stop10958" />
    </linearGradient>
    <linearGradient
       inkscape:collect="always"
       id="linearGradient10938">
      <stop
         style="stop-color:#dadada;stop-opacity:1"
         offset="0"
         id="stop10940" />
      <stop
         style="stop-color:#f6f6f5;stop-opacity:1"
         offset="1"
         id="stop10942" />
    </linearGradient>
    <linearGradient
       inkscape:collect="always"
       id="linearGradient11438">
      <stop
         style="stop-color:#babdb6;stop-opacity:1;"
         offset="0"
         id="stop11440" />
      <stop
         style="stop-color:#4a4d46;stop-opacity:1"
         offset="1"
         id="stop11442" />
    </linearGradient>
    <linearGradient
       inkscape:collect="always"
       id="linearGradient10966">
      <stop
         style="stop-color:#ffffff;stop-opacity:1;"
         offset="0"
         id="stop10968" />
      <stop
         style="stop-color:#f0f0f0;stop-opacity:1"
         offset="1"
         id="stop10970" />
    </linearGradient>
    <linearGradient
       id="linearGradient11473">
      <stop
         style="stop-color:#ff4100;stop-opacity:1;"
         offset="0"
         id="stop11475" />
      <stop
         id="stop4454"
         offset="1"
         style="stop-color:#7f2000;stop-opacity:1;" />
    </linearGradient>
    <linearGradient
       id="linearGradient4788"
       inkscape:collect="always">
      <stop
         id="stop4790"
         offset="0"
         style="stop-color:#ffffff;stop-opacity:1;" />
      <stop
         id="stop4792"
         offset="1"
         style="stop-color:#ffffff;stop-opacity:0;" />
    </linearGradient>
    <radialGradient
       inkscape:collect="always"
       xlink:href="#linearGradient12771"
       id="radialGradient12777"
       cx="144.16689"
       cy="129.17393"
       fx="144.16689"
       fy="129.17393"
       r="97.906487"
       gradientTransform="matrix(1.1657896,-0.05054328,0.0329754,0.74679303,-28.160936,39.99441)"
       gradientUnits="userSpaceOnUse" />
    <linearGradient
       inkscape:collect="always"
       id="linearGradient12771">
      <stop
         style="stop-color:#ffffff;stop-opacity:1;"
         offset="0"
         id="stop12773" />
      <stop
         style="stop-color:#ffffff;stop-opacity:0;"
         offset="1"
         id="stop12775" />
    </linearGradient>
    <radialGradient
       inkscape:collect="always"
       xlink:href="#linearGradient12771"
       id="radialGradient3521"
       cx="144.16689"
       cy="129.17393"
       fx="144.16689"
       fy="129.17393"
       r="97.906487"
       gradientTransform="matrix(1.1657896,-0.05054328,0.0329754,0.74679303,-28.160936,39.99441)"
       gradientUnits="userSpaceOnUse" />
    <radialGradient
       inkscape:collect="always"
       xlink:href="#linearGradient12771"
       id="radialGradient3529"
       cx="144.16689"
       cy="129.17393"
       fx="144.16689"
       fy="129.17393"
       r="97.906487"
       gradientTransform="matrix(1.1657896,-0.05054328,0.0329754,0.74679303,-28.160936,39.99441)"
       gradientUnits="userSpaceOnUse" />
    <radialGradient
       inkscape:collect="always"
       xlink:href="#linearGradient12771"
       id="radialGradient3537"
       cx="144.16689"
       cy="129.17393"
       fx="144.16689"
       fy="129.17393"
       r="97.906487"
       gradientTransform="matrix(1.1657896,-0.05054328,0.0329754,0.74679303,-28.160936,39.99441)"
       gradientUnits="userSpaceOnUse" />
    <radialGradient
       inkscape:collect="always"
       xlink:href="#linearGradient12771"
       id="radialGradient3545"
       cx="144.16689"
       cy="129.17393"
       fx="144.16689"
       fy="129.17393"
       r="97.906487"
       gradientTransform="matrix(1.1657896,-0.05054328,0.0329754,0.74679303,-28.160936,39.99441)"
       gradientUnits="userSpaceOnUse" />
    <radialGradient
       inkscape:collect="always"
       xlink:href="#linearGradient12771"
       id="radialGradient3553"
       cx="144.16689"
       cy="129.17393"
       fx="144.16689"
       fy="129.17393"
       r="97.906487"
       gradientTransform="matrix(1.1657896,-0.05054328,0.0329754,0.74679303,-28.160936,39.99441)"
       gradientUnits="userSpaceOnUse" />
    <radialGradient
       inkscape:collect="always"
       xlink:href="#linearGradient12771"
       id="radialGradient3561"
       cx="144.16689"
       cy="129.17393"
       fx="144.16689"
       fy="129.17393"
       r="97.906487"
       gradientTransform="matrix(1.1657896,-0.05054328,0.0329754,0.74679303,-28.160936,39.99441)"
       gradientUnits="userSpaceOnUse" />
    <radialGradient
       inkscape:collect="always"
       xlink:href="#linearGradient12771"
       id="radialGradient3569"
       cx="144.16689"
       cy="129.17393"
       fx="144.16689"
       fy="129.17393"
       r="97.906487"
       gradientTransform="matrix(1.1657896,-0.05054328,0.0329754,0.74679303,-28.160936,39.99441)"
       gradientUnits="userSpaceOnUse" />
    <radialGradient
       inkscape:collect="always"
       xlink:href="#linearGradient12771"
       id="radialGradient3577"
       cx="144.16689"
       cy="129.17393"
       fx="144.16689"
       fy="129.17393"
       r="97.906487"
       gradientTransform="matrix(1.1657896,-0.05054328,0.0329754,0.74679303,-28.160936,39.99441)"
       gradientUnits="userSpaceOnUse" />
    <radialGradient
       inkscape:collect="always"
       xlink:href="#linearGradient12771"
       id="radialGradient3585"
       cx="144.16689"
       cy="129.17393"
       fx="144.16689"
       fy="129.17393"
       r="97.906487"
       gradientTransform="matrix(1.1657896,-0.05054328,0.0329754,0.74679303,-28.160936,39.99441)"
       gradientUnits="userSpaceOnUse" />
    <radialGradient
       inkscape:collect="always"
       xlink:href="#linearGradient12771"
       id="radialGradient3593"
       cx="144.16689"
       cy="129.17393"
       fx="144.16689"
       fy="129.17393"
       r="97.906487"
       gradientTransform="matrix(1.1657896,-0.05054328,0.0329754,0.74679303,-28.160936,39.99441)"
       gradientUnits="userSpaceOnUse" />
    <radialGradient
       inkscape:collect="always"
       xlink:href="#linearGradient12771"
       id="radialGradient3601"
       cx="144.16689"
       cy="129.17393"
       fx="144.16689"
       fy="129.17393"
       r="97.906487"
       gradientTransform="matrix(1.1657896,-0.05054328,0.0329754,0.74679303,-28.160936,39.99441)"
       gradientUnits="userSpaceOnUse" />
    <radialGradient
       r="97.906487"
       fy="129.17393"
       fx="144.16689"
       cy="129.17393"
       cx="144.16689"
       gradientTransform="matrix(1.1657896,-0.05054328,0.0329754,0.74679303,-28.160936,39.99441)"
       gradientUnits="userSpaceOnUse"
       id="radialGradient3665"
       xlink:href="#linearGradient12771"
       inkscape:collect="always" />
    <radialGradient
       inkscape:collect="always"
       xlink:href="#linearGradient10966"
       id="radialGradient3348"
       gradientUnits="userSpaceOnUse"
       gradientTransform="matrix(0.17091321,2.3948575e-4,-1.885288e-4,0.1345469,-0.82414948,18.425831)"
       cx="149.56461"
       cy="258.76071"
       fx="149.56461"
       fy="258.76071"
       r="116.23129" />
    <linearGradient
       inkscape:collect="always"
       xlink:href="#linearGradient10938"
       id="linearGradient3355"
       gradientUnits="userSpaceOnUse"
       gradientTransform="matrix(0.17601918,0,0,0.17980627,-1.587065,12.337364)"
       x1="134.83331"
       y1="68.529434"
       x2="171.90327"
       y2="206.8764" />
    <linearGradient
       inkscape:collect="always"
       xlink:href="#linearGradient11438"
       id="linearGradient3357"
       gradientUnits="userSpaceOnUse"
       x1="184.9511"
       y1="149.20987"
       x2="185.07069"
       y2="236.39699"
       gradientTransform="matrix(0.17980539,0,0,0.17980539,-0.63860179,10.853331)" />
    <radialGradient
       inkscape:collect="always"
       xlink:href="#linearGradient12771"
       id="radialGradient3387"
       gradientUnits="userSpaceOnUse"
       gradientTransform="matrix(1.1657896,-0.05054328,0.0329754,0.74679303,-28.160936,39.99441)"
       cx="144.16689"
       cy="129.17393"
       fx="144.16689"
       fy="129.17393"
       r="97.906487" />
    <radialGradient
       inkscape:collect="always"
       xlink:href="#linearGradient4788"
       id="radialGradient3404"
       gradientUnits="userSpaceOnUse"
       gradientTransform="matrix(-1.8243761,0.00876531,-0.00620867,-1.3078007,609.52907,98.067298)"
       cx="326.0206"
       cy="58"
       fx="326.0206"
       fy="58"
       r="12.5" />
    <radialGradient
       inkscape:collect="always"
       xlink:href="#linearGradient4788"
       id="radialGradient3407"
       gradientUnits="userSpaceOnUse"
       gradientTransform="matrix(-1.8882016,0.00857771,-0.00642588,-1.2798107,636.86026,96.523354)"
       cx="326.0206"
       cy="58"
       fx="326.0206"
       fy="58"
       r="12.5" />
    <radialGradient
       inkscape:collect="always"
       xlink:href="#linearGradient11473"
       id="radialGradient4014"
       gradientUnits="userSpaceOnUse"
       gradientTransform="matrix(0.27084087,0,0,0.17776648,-16.458295,8.8402271)"
       cx="149.56461"
       cy="190.13727"
       fx="149.56461"
       fy="190.13727"
       r="108.51468" />
    <linearGradient
       inkscape:collect="always"
       xlink:href="#linearGradient10954"
       id="linearGradient4020"
       gradientUnits="userSpaceOnUse"
       gradientTransform="matrix(0.16968376,2.3939518e-4,-2.3776336e-4,0.17084857,-1.344677,13.527818)"
       x1="141.31458"
       y1="237.28619"
       x2="141.31458"
       y2="57.029434" />
    <radialGradient
       inkscape:collect="always"
       xlink:href="#linearGradient4195-5"
       id="radialGradient3889"
       gradientUnits="userSpaceOnUse"
       gradientTransform="matrix(0.20312507,-0.08812329,0.12363256,0.3357866,-42.385541,-18.859714)"
       cx="189.70168"
       cy="230.10397"
       fx="189.70168"
       fy="230.10397"
       r="108.51468" />
    <linearGradient
       id="linearGradient4195-5">
      <stop
         id="stop4197-5"
         offset="0"
         style="stop-color:#ff5200;stop-opacity:1;" />
      <stop
         id="stop4199-9"
         offset="1"
         style="stop-color:#000000;stop-opacity:1;" />
    </linearGradient>
    <filter
       inkscape:collect="always"
       id="filter3920">
      <feGaussianBlur
         inkscape:collect="always"
         stdDeviation="0.2375"
         id="feGaussianBlur3922" />
    </filter>
    <filter
       inkscape:collect="always"
       id="filter4015"
       x="-0.36"
       width="1.72"
       y="-0.36"
       height="1.72">
      <feGaussianBlur
         inkscape:collect="always"
         stdDeviation="0.75"
         id="feGaussianBlur4017" />
    </filter>
    <filter
       inkscape:collect="always"
       id="filter4025"
       x="-0.36"
       width="1.72"
       y="-0.36"
       height="1.72">
      <feGaussianBlur
         inkscape:collect="always"
         stdDeviation="0.75"
         id="feGaussianBlur4027" />
    </filter>
    <filter
       inkscape:collect="always"
       id="filter4035"
       x="-0.36"
       width="1.72"
       y="-0.36"
       height="1.72">
      <feGaussianBlur
         inkscape:collect="always"
         stdDeviation="0.75"
         id="feGaussianBlur4037" />
    </filter>
    <radialGradient
       inkscape:collect="always"
       xlink:href="#linearGradient11473"
       id="radialGradient4112"
       gradientUnits="userSpaceOnUse"
       gradientTransform="matrix(0.27084087,0,0,0.17776648,-16.458295,8.8402271)"
       cx="149.56461"
       cy="190.13727"
       fx="149.56461"
       fy="190.13727"
       r="108.51468" />
    <radialGradient
       inkscape:collect="always"
       xlink:href="#linearGradient11473"
       id="radialGradient4115"
       gradientUnits="userSpaceOnUse"
       gradientTransform="matrix(0.27084087,0,0,0.17776648,-16.458295,8.8402271)"
       cx="149.56461"
       cy="190.13727"
       fx="149.56461"
       fy="190.13727"
       r="108.51468" />
    <filter
       color-interpolation-filters="sRGB"
       inkscape:collect="always"
       id="filter11490-5-0"
       x="-0.10682371"
       width="1.2136474"
       y="-1.3517308"
       height="3.7034614">
      <feGaussianBlur
         inkscape:collect="always"
         stdDeviation="1.8304688"
         id="feGaussianBlur11492-5-8" />
    </filter>
    <filter
       color-interpolation-filters="sRGB"
       inkscape:collect="always"
       id="filter11472-2-8"
       x="-0.051793315"
       width="1.1035866"
       y="-0.6553846"
       height="2.3107691">
      <feGaussianBlur
         inkscape:collect="always"
         stdDeviation="0.8875"
         id="feGaussianBlur11474-3-4" />
    </filter>
    <linearGradient
       inkscape:collect="always"
       id="linearGradient3837">
      <stop
         style="stop-color:#c3beba;stop-opacity:1;"
         offset="0"
         id="stop3839" />
      <stop
         style="stop-color:#e2e1de;stop-opacity:1"
         offset="1"
         id="stop3841" />
    </linearGradient>
    <linearGradient
       inkscape:collect="always"
       xlink:href="#linearGradient3837"
       id="linearGradient4159"
       gradientUnits="userSpaceOnUse"
       gradientTransform="matrix(0.95238095,0,0,0.875,-33.824402,-74.437499)"
       x1="7"
       y1="51"
       x2="24"
       y2="51" />
    <radialGradient
       inkscape:collect="always"
       xlink:href="#linearGradient3991-2-6"
       id="radialGradient3300"
       gradientUnits="userSpaceOnUse"
       gradientTransform="matrix(2.6699524,0,0,2.0864141,-23.095766,-52.716814)"
       cx="17.047955"
       cy="33.641567"
       fx="17.047955"
       fy="33.641567"
       r="13.703125" />
    <linearGradient
       inkscape:collect="always"
       id="linearGradient3991-2-6">
      <stop
         style="stop-color:#ffffff;stop-opacity:1;"
         offset="0"
         id="stop3993-6-8" />
      <stop
         style="stop-color:#ffffff;stop-opacity:0;"
         offset="1"
         id="stop3995-6-3" />
    </linearGradient>
    <radialGradient
       inkscape:collect="always"
       xlink:href="#linearGradient3999-1-7"
       id="radialGradient3292"
       gradientUnits="userSpaceOnUse"
       gradientTransform="matrix(8.8874294,0,0,9.3500469,-117.55916,-383.60227)"
       cx="14.980141"
       cy="44.726048"
       fx="14.980141"
       fy="44.726048"
       r="4.359839" />
    <linearGradient
       inkscape:collect="always"
       id="linearGradient3999-1-7">
      <stop
         style="stop-color:#ffffff;stop-opacity:1;"
         offset="0"
         id="stop4001-2-6" />
      <stop
         style="stop-color:#ffffff;stop-opacity:0;"
         offset="1"
         id="stop4003-9-5" />
    </linearGradient>
    <linearGradient
       inkscape:collect="always"
       id="linearGradient3983-4-1">
      <stop
         style="stop-color:#ffffff;stop-opacity:1;"
         offset="0"
         id="stop3985-7-3" />
      <stop
         style="stop-color:#ffffff;stop-opacity:0;"
         offset="1"
         id="stop3987-8-6" />
    </linearGradient>
    <linearGradient
       inkscape:collect="always"
       id="linearGradient4007-0-4">
      <stop
         style="stop-color:#ffffff;stop-opacity:1;"
         offset="0"
         id="stop4009-0-6" />
      <stop
         style="stop-color:#ffffff;stop-opacity:0;"
         offset="1"
         id="stop4011-1-4" />
    </linearGradient>
    <linearGradient
       inkscape:collect="always"
       id="linearGradient3991-2-6-2">
      <stop
         style="stop-color:#ffffff;stop-opacity:1;"
         offset="0"
         id="stop3993-6-8-8" />
      <stop
         style="stop-color:#ffffff;stop-opacity:0;"
         offset="1"
         id="stop3995-6-3-5" />
    </linearGradient>
    <radialGradient
       inkscape:collect="always"
       xlink:href="#linearGradient3999-1-7-3"
       id="radialGradient3114"
       gradientUnits="userSpaceOnUse"
       gradientTransform="matrix(6.0596109,0,0,6.375032,-80.421584,-259.15272)"
       cx="14.980141"
       cy="44.726048"
       fx="14.980141"
       fy="44.726048"
       r="4.359839" />
    <linearGradient
       inkscape:collect="always"
       id="linearGradient3999-1-7-3">
      <stop
         style="stop-color:#ffffff;stop-opacity:1;"
         offset="0"
         id="stop4001-2-6-8" />
      <stop
         style="stop-color:#ffffff;stop-opacity:0;"
         offset="1"
         id="stop4003-9-5-7" />
    </linearGradient>
    <radialGradient
       inkscape:collect="always"
       xlink:href="#linearGradient3999-1-7-3"
       id="radialGradient4691"
       gradientUnits="userSpaceOnUse"
       gradientTransform="matrix(6.0596109,0,0,-6.375032,-71.76533,328.37147)"
       cx="14.980141"
       cy="44.726048"
       fx="14.980141"
       fy="44.726048"
       r="4.359839" />
    <radialGradient
       inkscape:collect="always"
       xlink:href="#linearGradient3991-2-6-2"
       id="radialGradient4694"
       gradientUnits="userSpaceOnUse"
       gradientTransform="matrix(1.8204221,0,0,-1.4225551,-6.4544955,91.798396)"
       cx="17.047955"
       cy="33.641567"
       fx="17.047955"
       fy="33.641567"
       r="13.703125" />
    <radialGradient
       inkscape:collect="always"
       xlink:href="#linearGradient4007-0-4"
       id="radialGradient4697"
       gradientUnits="userSpaceOnUse"
       gradientTransform="matrix(2.2739145,0,0,-1.959257,-12.418051,127.56579)"
       cx="12.845966"
       cy="48.693901"
       fx="12.845966"
       fy="48.693901"
       r="10.719415" />
    <radialGradient
       inkscape:collect="always"
       xlink:href="#linearGradient3983-4-1"
       id="radialGradient4700"
       gradientUnits="userSpaceOnUse"
       gradientTransform="matrix(3.1906793,-0.30293736,-0.29800432,-3.1395237,-30.076275,187.71223)"
       cx="23.192139"
       cy="44.638508"
       fx="23.192139"
       fy="44.638508"
       r="8.9880199" />
    <radialGradient
       inkscape:collect="always"
       xlink:href="#linearGradient3999-1-7-3"
       id="radialGradient4704"
       gradientUnits="userSpaceOnUse"
       gradientTransform="matrix(-6.0596109,0,0,6.375032,123.12108,-253.37147)"
       cx="14.980141"
       cy="44.726048"
       fx="14.980141"
       fy="44.726048"
       r="4.359839" />
    <filter
       inkscape:collect="always"
       id="filter4737">
      <feGaussianBlur
         inkscape:collect="always"
         stdDeviation="0.48750003"
         id="feGaussianBlur4739" />
    </filter>
    <filter
       color-interpolation-filters="sRGB"
       inkscape:collect="always"
       id="filter11490-5-0-1"
       x="-0.10682371"
       width="1.2136474"
       y="-1.3517308"
       height="3.7034614">
      <feGaussianBlur
         inkscape:collect="always"
         stdDeviation="1.8304688"
         id="feGaussianBlur11492-5-8-8" />
    </filter>
    <filter
       color-interpolation-filters="sRGB"
       inkscape:collect="always"
       id="filter11472-2-8-7"
       x="-0.051793315"
       width="1.1035866"
       y="-0.6553846"
       height="2.3107691">
      <feGaussianBlur
         inkscape:collect="always"
         stdDeviation="0.8875"
         id="feGaussianBlur11474-3-4-0" />
    </filter>
  </defs>
  <sodipodi:namedview
     id="base"
     pagecolor="#ffffff"
     bordercolor="#666666"
     borderopacity="1.0"
     inkscape:pageopacity="0"
     inkscape:pageshadow="2"
     inkscape:zoom="11.313708"
     inkscape:cx="28.021333"
     inkscape:cy="15.42119"
     inkscape:current-layer="layer1"
     showgrid="false"
     inkscape:document-units="px"
     inkscape:grid-bbox="true"
     inkscape:window-width="1366"
     inkscape:window-height="709"
     inkscape:window-x="0"
     inkscape:window-y="27"
     inkscape:window-maximized="1"
     showguides="true"
     inkscape:guide-bbox="true">
    <inkscape:grid
       type="xygrid"
       id="grid2982"
       empspacing="5"
       visible="true"
       enabled="true"
       snapvisiblegridlinesonly="true" />
  </sodipodi:namedview>
  <metadata
     id="metadata2990">
    <rdf:RDF>
      <cc:Work
         rdf:about="">
        <dc:format>image/svg+xml</dc:format>
        <dc:type
           rdf:resource="http://purl.org/dc/dcmitype/StillImage" />
        <dc:title />
      </cc:Work>
    </rdf:RDF>
  </metadata>
  <g
     id="layer1"
     inkscape:label="Layer 1"
     inkscape:groupmode="layer"
     transform="translate(0,-16)">
    <g
       id="g3990">
      <rect
         transform="matrix(0.9216359,0,0,1,2.4807384,-0.24883795)"
         ry="1.625"
         rx="1.7631692"
         y="51.605713"
         x="3.4375"
         height="3.25"
         width="41.125"
         id="rect11476"
         style="color:#000000;fill:#000000;fill-opacity:1;fill-rule:nonzero;stroke:none;stroke-width:1;marker:none;visibility:visible;display:inline;overflow:visible;filter:url(#filter11490-5-0-1);enable-background:accumulate" />
      <rect
         transform="matrix(0.92541589,0,0,1.0652463,1.4646861,-3.8551008)"
         style="color:#000000;fill:#000000;fill-opacity:1;fill-rule:nonzero;stroke:none;stroke-width:1;marker:none;visibility:visible;display:inline;overflow:visible;filter:url(#filter11472-2-8-7);enable-background:accumulate"
         id="rect11446"
         width="41.125"
         height="3.25"
         x="4.4374099"
         y="51.730713"
         rx="1.7559673"
         ry="1.5254687" />
    </g>
    <rect
       transform="matrix(0.17026392,2.3308569e-4,-2.3857596e-4,0.16634569,-1.4313965,13.672808)"
       ry="10.788308"
       rx="10.540042"
       y="49.529438"
       x="31.814575"
       height="187"
       width="235.5"
       id="rect10522"
       style="opacity:0.55612242;color:#000000;fill:#000000;fill-opacity:1;fill-rule:nonzero;stroke:none;stroke-width:2;marker:none;visibility:visible;display:inline;overflow:visible;filter:url(#filter11507);enable-background:accumulate" />
    <path
       inkscape:connector-curvature="0"
       style="color:#000000;fill:url(#linearGradient4020);fill-opacity:1;fill-rule:nonzero;stroke:none;stroke-width:2;marker:none;visibility:visible;display:inline;overflow:visible;enable-background:accumulate"
       d="m 5.84375,21.999998 c -0.994202,-0.0014 -1.811116,0.787048 -1.8125,1.78125 L 4,52.156248 c -0.0014,0.994202 0.787048,1.779847 1.78125,1.78125 l 36.375,0.0625 c 0.994202,0.0014 1.811116,-0.787048 1.8125,-1.78125 L 44,23.843748 c 0.0014,-0.994202 -0.787048,-1.779847 -1.78125,-1.78125 l -36.375,-0.0625 z m 1.5625,2.5 33.21875,0.0625 c 0.483082,6.84e-4 0.875674,0.389018 0.875,0.875 l -0.03125,21.1875 c -6.74e-4,0.485982 -0.391918,0.875684 -0.875,0.875 L 7.375,47.437498 C 6.891918,47.436814 6.499326,47.04848 6.5,46.562498 l 0.03125,-21.1875 c 6.74e-4,-0.485982 0.391918,-0.875684 0.875,-0.875 z"
       id="rect10524" />
    <path
       inkscape:connector-curvature="0"
       style="opacity:0.4;color:#000000;fill:#000000;fill-opacity:1;fill-rule:nonzero;stroke:none;stroke-width:2;marker:none;visibility:visible;display:inline;overflow:visible;enable-background:accumulate"
       d="m 7.262317,24.004279 c -0.675892,-9.51e-4 -1.217973,0.443676 -1.21875,1 l -0.03125,21.4375 c -7.77e-4,0.556323 0.542858,0.99905 1.21875,1 l 0.125,0 c -0.483082,-6.84e-4 -0.844424,-0.389018 -0.84375,-0.875 l 0.03125,-21.1875 c 6.74e-4,-0.485982 0.360668,-0.875684 0.84375,-0.875 l 33.25,0.03125 c 0.483082,6.84e-4 0.875674,0.389018 0.875,0.875 l -0.03125,21.21875 c -6.74e-4,0.485982 -0.391918,0.875684 -0.875,0.875 l 0.15625,0 c 0.675892,9.5e-4 1.217973,-0.443677 1.21875,-1 l 0.03125,-21.4375 c 7.77e-4,-0.556324 -0.542858,-1.030299 -1.21875,-1.03125 l -33.53125,-0.03125 z"
       id="rect10528" />
    <rect
       transform="matrix(0.999999,0.00141561,-0.00138697,0.99999904,0,0)"
       ry="0.87722546"
       rx="0.87199056"
       y="24.489498"
       x="6.564589"
       height="22.952982"
       width="34.970631"
       id="rect10538"
       style="color:#000000;fill:url(#radialGradient4115);fill-opacity:1;fill-rule:nonzero;stroke:none;stroke-width:2;marker:none;visibility:visible;display:inline;overflow:visible;enable-background:accumulate" />
    <path
       sodipodi:nodetypes="scscsccssccccc"
       inkscape:connector-curvature="0"
       id="rect3818"
       d="m 11.9375,27.5 c -1,0 -1,1 -1,1 l 0,6 c 0,1 1,1 1,1 l 9,0 c 1,0 1,-1 1,-1 l 0,-6 c 0,0 0,-1 -1,-1 z m 0,2 9,0 0,5 -9,0 z"
       style="font-size:medium;font-style:normal;font-variant:normal;font-weight:normal;font-stretch:normal;text-indent:0;text-align:start;text-decoration:none;line-height:normal;letter-spacing:normal;word-spacing:normal;text-transform:none;direction:ltr;block-progression:tb;writing-mode:lr-tb;text-anchor:start;baseline-shift:baseline;color:#000000;fill:#8100ff;fill-opacity:0;stroke:none;stroke-width:2;marker:none;visibility:visible;display:inline;overflow:visible;enable-background:accumulate;font-family:Sans;-inkscape-font-specification:Sans" />
    <path
       sodipodi:nodetypes="sssssssss"
       inkscape:connector-curvature="0"
       id="rect3822"
       d="m 13,27 c -1.090703,0 -2,0.909297 -2,2 l 0,15 c 0,1.090703 0.909297,2 2,2 l 22,0 c 1.090703,0 2,-0.909297 2,-2 l 0,-15 c 0,-1.090703 -0.909297,-2 -2,-2 z"
       style="font-size:medium;font-style:normal;font-variant:normal;font-weight:normal;font-stretch:normal;text-indent:0;text-align:start;text-decoration:none;line-height:normal;letter-spacing:normal;word-spacing:normal;text-transform:none;direction:ltr;block-progression:tb;writing-mode:lr-tb;text-anchor:start;baseline-shift:baseline;opacity:0.5;color:#000000;fill:#ffffff;fill-opacity:1;fill-rule:nonzero;stroke:none;stroke-width:2;marker:none;visibility:visible;display:inline;overflow:visible;enable-background:accumulate;font-family:Sans;-inkscape-font-specification:Sans" />
    <path
       style="font-size:medium;font-style:normal;font-variant:normal;font-weight:normal;font-stretch:normal;text-indent:0;text-align:start;text-decoration:none;line-height:normal;letter-spacing:normal;word-spacing:normal;text-transform:none;direction:ltr;block-progression:tb;writing-mode:lr-tb;text-anchor:start;baseline-shift:baseline;color:#000000;fill:#333333;fill-opacity:1;stroke:none;stroke-width:2;marker:none;visibility:visible;display:inline;overflow:visible;filter:url(#filter3920);enable-background:accumulate;font-family:Sans;-inkscape-font-specification:Sans"
       d="m 12,27 c -1,0 -1,1 -1,1 l 0,17 c 0,1 1,1 1,1 l 24,0 c 1,0 1,-1 1,-1 l 0,-17 c 0,0 0,-1 -1,-1 z m 0,3 24,0 0,15 -24,0 z"
       id="path3918"
       inkscape:connector-curvature="0"
       sodipodi:nodetypes="scscsccssccccc" />
    <g
       transform="translate(42.46875,-2)"
       id="g3482"
       style="fill:#000000;fill-opacity:1">
      <path
         sodipodi:nodetypes="cccccccccccccccccccccccccccccccccccccccccccccccccccccccccccccccccccccccccccccccccc"
         inkscape:connector-curvature="0"
         transform="translate(0,28)"
         id="path4144"
         d="m -13.71875,4 0.03125,0.0625 -0.625,0 -0.34375,0.59375 -0.4375,0.46875 -0.75,0.15625 0.4375,0.46875 0.125,0.4375 -0.5625,0 -0.75,0.40625 0,1.15625 0.34375,0 0.3125,0.34375 0.71875,-0.34375 0.28125,-0.71875 0.5,-0.3125 0.125,-0.28125 L -13.46875,6.25 -13,6.78125 l 0.5,0.25 -0.28125,0.5625 0.46875,-0.125 0.21875,-0.5625 -0.5625,-0.65625 0.21875,0 0.5625,0.46875 0.125,0.625 0.5,0.59375 0.125,-0.84375 0.28125,-0.125 c 0.28093,0.291639 0.482141,0.64053 0.71875,0.96875 L -9.25,8 -8.75,8.3125 -8.96875,8.625 -9.5,9.09375 l -0.71875,0 -0.96875,-0.3125 -0.5,0.0625 L -12.0625,9.25 -13.125,8.1875 -13.875,8 l -1.0625,0.125 -0.96875,0.25 C -16.448255,8.989465 -16.986994,9.61185 -17.5,10.25 l -0.625,1.46875 0.28125,0.3125 -0.5,0.78125 0.5625,1.34375 c 0.483146,0.546539 0.955057,1.10932 1.4375,1.65625 l 0.71875,-0.625 0.3125,0.375 0.78125,-0.5 0.25,0.28125 0.75,0 0.4375,0.5 -0.25,0.90625 0.53125,0.59375 -0.03125,1.0625 0.3125,0.59375 4.90625,0 0,-1.34375 0.53125,-1.09375 0.625,-0.71875 0,-2.0625 c -0.1031353,0.01013 -0.2092217,0.02364 -0.3125,0.03125 l 0.3125,-0.3125 0,-9.5 -6.0625,0 L -12.625,4.0625 -12.90625,4 z m 4.8125,5.875 0.65625,0.71875 0.75,1.65625 0.46875,0.5 -0.25,0.59375 0.4375,0.46875 c -0.1994856,0.01353 -0.3886292,0.03125 -0.59375,0.03125 -0.3618319,-0.760324 -0.6307137,-1.517079 -0.90625,-2.3125 l -0.5,-0.53125 -0.25,-0.9375 z"
         style="opacity:0.59999999999999998;fill:#000000;fill-opacity:1;fill-rule:nonzero;stroke:none" />
      <g
         transform="matrix(0.78166322,0,0,0.78166322,-38.223638,22.278762)"
         id="g4162"
         style="opacity:0.59999999999999998;fill:#000000;fill-opacity:1;fill-rule:nonzero;stroke:none">
        <g
           id="g4166"
           style="fill:#000000;fill-opacity:1">
          <path
             inkscape:connector-curvature="0"
             d="m 28.833,12.7749 -0.291,-0.7412 -0.5098,0.165 0.1465,0.9043 0.6543,-0.3281"
             id="path4168"
             style="fill:#000000;fill-opacity:1" />
        </g>
      </g>
      <g
         transform="matrix(0.78166322,0,0,0.78166322,-38.223638,22.278762)"
         id="g4170"
         style="opacity:0.59999999999999998;fill:#000000;fill-opacity:1;fill-rule:nonzero;stroke:none">
        <g
           id="g4174"
           style="fill:#000000;fill-opacity:1">
          <path
             inkscape:connector-curvature="0"
             d="m 29.123,12.6089 -0.1455,0.9883 0.7998,-0.165 0.5811,-0.5752 -0.5088,-0.4941 C 29.6787,11.9078 29.4824,11.483 29.2685,11.0465 l -0.4355,0 0,0.4932 0.29,0.3291 0,0.7402"
             id="path4176"
             style="fill:#000000;fill-opacity:1" />
        </g>
      </g>
      <path
         sodipodi:nodetypes="cccccccccccccccccccccccccccccccccccccccccccccccc"
         inkscape:connector-curvature="0"
         transform="translate(0,28)"
         id="path4184"
         d="m -30.46875,4 0,5.46875 0.8125,0.1875 0.625,0.78125 0.09375,-1.28125 1.09375,-0.90625 0.40625,-0.96875 0.78125,-0.3125 0.46875,-0.65625 1,-0.1875 0.53125,-0.78125 -1.53125,0 0.96875,-0.4375 0.65625,0 0.96875,-0.3125 0.125,-0.40625 L -23.6875,4 -27.03125,4 -27.34375,4.65625 -27.46875,4 z m 0.53125,8.875 -0.53125,0.0625 0,1.21875 0.125,0.15625 0.78125,0.5625 0.46875,-0.0625 0.34375,0.15625 0,0.09375 -0.46875,1.21875 -0.34375,0.53125 0.125,0.25 -0.28125,0.96875 0.53125,0.96875 7.8125,0 0.1875,-0.25 0.09375,-0.96875 c -0.932837,-0.462588 -1.85537,-0.961233 -2.78125,-1.4375 l -0.4375,-0.875 -0.875,-0.21875 -0.4375,-1.21875 -1.15625,0.125 -0.9375,-0.6875 -1.03125,0.90625 0,0.125 c -0.309539,-0.08934 -0.693135,-0.111786 -0.96875,-0.28125 l -0.21875,-0.625 z"
         style="opacity:0.59999999999999998;fill:#000000;fill-opacity:1;fill-rule:nonzero;stroke:none" />
      <g
         transform="matrix(0.78166322,0,0,0.78166322,-38.223638,22.278762)"
         id="g4230"
         style="opacity:0.59999999999999998;fill:#000000;fill-opacity:1;fill-rule:nonzero;stroke:none">
        <g
           id="g4234"
           style="fill:#000000;fill-opacity:1">
          <path
             inkscape:connector-curvature="0"
             d="m 18.7285,14.6665 0.4365,-0.6582 -0.6548,-0.4932 0.2183,1.1514"
             id="path4236"
             style="fill:#000000;fill-opacity:1" />
        </g>
      </g>
    </g>
    <g
       id="g4713"
       style="filter:url(#filter4737)">
      <path
         style="fill:url(#radialGradient4700);fill-rule:evenodd;stroke:none"
         d="m 33.968753,45 c -0.03476,-0.07214 -0.05805,-0.146354 -0.09375,-0.21875 -0.948495,-1.923301 -2.215851,-3.893496 -3.875,-5.75 -0.284239,-0.318241 -0.600778,-0.629541 -0.90625,-0.9375 -1.858554,-1.873696 -3.895651,-3.363623 -5.90625,-4.46875 -2.010599,-1.105128 -3.983242,-1.835965 -5.65625,-2.3125 -1.673007,-0.476535 -3.063213,-0.709864 -4.031249,-0.84375 -0.968037,-0.133887 -1.501582,-0.171732 -1.5,-0.21875 0.0016,-0.04702 0.54497,-0.11629 1.53125,-0.0625 0.986279,0.05378 2.404469,0.231128 4.124999,0.65625 1.720531,0.425121 3.736713,1.117497 5.8125,2.21875 2.075788,1.101253 4.214242,2.605422 6.125,4.53125 0.314051,0.316528 0.614598,0.640897 0.90625,0.96875 1.700738,1.912955 2.999696,3.983469 3.9375,5.96875 0.07414,0.156943 0.117626,0.313185 0.1875,0.46875 z"
         id="path4715"
         inkscape:connector-curvature="0"
         sodipodi:nodetypes="cscssssccssscscc" />
      <path
         style="fill:url(#radialGradient4697);fill-rule:evenodd;stroke:none"
         d="m 12.000004,38.375 0,-1.46875 c 0.217325,-0.474351 0.452242,-0.955184 0.71875,-1.4375 C 13.760321,33.583761 15.198339,31.67022 17.000003,30 l 1.0625,0 c -2.025788,1.731825 -3.626968,3.729276 -4.781249,5.75 -0.504301,0.882845 -0.929605,1.771523 -1.28125,2.625 z"
         id="path4717"
         inkscape:connector-curvature="0"
         sodipodi:nodetypes="ccsccsc" />
      <path
         style="fill:url(#radialGradient4694);fill-rule:evenodd;stroke:none"
         d="m 31.281253,44.5625 c -2.222955,-0.01896 -4.678658,-0.242984 -7.1875,-0.78125 -1.099161,-0.235822 -2.136206,-0.521979 -3.15625,-0.84375 -2.072925,-0.654048 -3.99129,-1.46654 -5.624999,-2.3125 -1.287259,-0.666561 -2.351015,-1.351685 -3.3125,-2 l 0,-0.53125 c 1.030473,0.648235 2.208727,1.320319 3.59375,2 1.625305,0.797597 3.492394,1.59035 5.531249,2.21875 1.002964,0.309197 2.046321,0.581093 3.125,0.8125 2.462092,0.528188 4.877485,0.759645 7.0625,0.8125 1.74069,0.0421 3.276792,-0.04801 4.6875,-0.1875 l 0,0.53125 c -1.405806,0.179715 -2.984845,0.29604 -4.71875,0.28125 z"
         id="path4719"
         inkscape:connector-curvature="0"
         sodipodi:nodetypes="sscsccscssccs" />
      <path
         style="fill:url(#radialGradient4691);fill-rule:evenodd;stroke:none"
         d="m 18.968753,45 c -0.430688,-2.169749 -0.602897,-4.572889 -0.3125,-7.0625 0.230406,-1.975304 0.747214,-3.870611 1.40625,-5.5625 0.330002,-0.846737 0.695333,-1.628521 1.09375,-2.375 l 0.6875,0 c -0.431281,0.811372 -0.83692,1.666143 -1.1875,2.59375 -0.623337,1.648383 -1.088941,3.488751 -1.3125,5.40625 -0.287459,2.465587 -0.129078,4.846471 0.28125,7 z"
         id="path4721"
         inkscape:connector-curvature="0"
         sodipodi:nodetypes="csccccscc" />
      <path
         sodipodi:nodetypes="csccccscc"
         inkscape:connector-curvature="0"
         id="path4723"
         d="m 32.652165,30 c 0.430688,2.169749 0.337732,5.235802 0.04734,7.725413 -0.230406,1.975304 -0.747214,3.207698 -1.40625,4.899587 -0.330002,0.846737 -0.695333,1.628521 -1.09375,2.375 l -0.6875,0 c 0.431281,-0.811372 0.83692,-1.666143 1.1875,-2.59375 C 31.322837,40.757867 31.788441,38.917499 32.012,37 32.299459,34.534413 32.410328,32.153529 32,30 z"
         style="fill:url(#radialGradient4704);fill-rule:evenodd;stroke:none" />
    </g>
    <path
       sodipodi:nodetypes="scscsccssccccc"
       inkscape:connector-curvature="0"
       id="rect3818-4"
       d="m 12,27 c -1,0 -1,1 -1,1 l 0,17 c 0,1 1,1 1,1 l 24,0 c 1,0 1,-1 1,-1 l 0,-17 c 0,0 0,-1 -1,-1 z m 0,3 24,0 0,15 -24,0 z"
       style="font-size:medium;font-style:normal;font-variant:normal;font-weight:normal;font-stretch:normal;text-indent:0;text-align:start;text-decoration:none;line-height:normal;letter-spacing:normal;word-spacing:normal;text-transform:none;direction:ltr;block-progression:tb;writing-mode:lr-tb;text-anchor:start;baseline-shift:baseline;color:#000000;fill:#333333;fill-opacity:1;stroke:none;stroke-width:2;marker:none;visibility:visible;display:inline;overflow:visible;enable-background:accumulate;font-family:Sans;-inkscape-font-specification:Sans" />
    <g
       id="g4039"
       transform="translate(-1,-0.99999999)">
      <path
         sodipodi:type="arc"
         style="fill:#dd4814;fill-opacity:1;stroke:none"
         id="path3979"
         sodipodi:cx="57.5"
         sodipodi:cy="20.5"
         sodipodi:rx="2.5"
         sodipodi:ry="2.5"
         d="M 60,20.5 C 60,21.880712 58.880712,23 57.5,23 56.119288,23 55,21.880712 55,20.5 55,19.119288 56.119288,18 57.5,18 c 1.380712,0 2.5,1.119288 2.5,2.5 z"
         transform="matrix(0.2,0,0,0.2,2,25.4)" />
      <path
         sodipodi:type="arc"
         style="fill:#777777;fill-opacity:1;stroke:none"
         id="path4005"
         sodipodi:cx="57.5"
         sodipodi:cy="20.5"
         sodipodi:rx="2.5"
         sodipodi:ry="2.5"
         d="M 60,20.5 C 60,21.880712 58.880712,23 57.5,23 56.119288,23 55,21.880712 55,20.5 55,19.119288 56.119288,18 57.5,18 c 1.380712,0 2.5,1.119288 2.5,2.5 z"
         transform="matrix(0.2,0,0,0.2,3,25.4)" />
      <path
         transform="matrix(0.2,0,0,0.2,4,25.4)"
         d="M 60,20.5 C 60,21.880712 58.880712,23 57.5,23 56.119288,23 55,21.880712 55,20.5 55,19.119288 56.119288,18 57.5,18 c 1.380712,0 2.5,1.119288 2.5,2.5 z"
         sodipodi:ry="2.5"
         sodipodi:rx="2.5"
         sodipodi:cy="20.5"
         sodipodi:cx="57.5"
         id="path4007"
         style="fill:#777777;fill-opacity:1;stroke:none"
         sodipodi:type="arc" />
      <path
         transform="matrix(0.2,0,0,0.2,3,25.4)"
         d="M 60,20.5 C 60,21.880712 58.880712,23 57.5,23 56.119288,23 55,21.880712 55,20.5 55,19.119288 56.119288,18 57.5,18 c 1.380712,0 2.5,1.119288 2.5,2.5 z"
         sodipodi:ry="2.5"
         sodipodi:rx="2.5"
         sodipodi:cy="20.5"
         sodipodi:cx="57.5"
         id="path4009"
         style="fill:#777777;fill-opacity:1;stroke:none;filter:url(#filter4015)"
         sodipodi:type="arc" />
      <path
         sodipodi:type="arc"
         style="fill:#777777;fill-opacity:1;stroke:none;filter:url(#filter4025)"
         id="path4019"
         sodipodi:cx="57.5"
         sodipodi:cy="20.5"
         sodipodi:rx="2.5"
         sodipodi:ry="2.5"
         d="M 60,20.5 C 60,21.880712 58.880712,23 57.5,23 56.119288,23 55,21.880712 55,20.5 55,19.119288 56.119288,18 57.5,18 c 1.380712,0 2.5,1.119288 2.5,2.5 z"
         transform="matrix(0.2,0,0,0.2,4,25.4)" />
      <path
         transform="matrix(0.2,0,0,0.2,2,25.4)"
         d="M 60,20.5 C 60,21.880712 58.880712,23 57.5,23 56.119288,23 55,21.880712 55,20.5 55,19.119288 56.119288,18 57.5,18 c 1.380712,0 2.5,1.119288 2.5,2.5 z"
         sodipodi:ry="2.5"
         sodipodi:rx="2.5"
         sodipodi:cy="20.5"
         sodipodi:cx="57.5"
         id="path4029"
         style="fill:#dd4814;fill-opacity:1;stroke:none;filter:url(#filter4035)"
         sodipodi:type="arc" />
    </g>
    <rect
       style="fill:none;fill-opacity:1;stroke:none"
       id="rect4189"
       width="16.705399"
       height="23.776466"
       x="6.7175145"
       y="7.2529716"
       rx="0.87199056"
       ry="0.87722546"
       transform="translate(0,16)" />
    <path
       inkscape:connector-curvature="0"
       sodipodi:nodetypes="ccccc"
       id="path10592"
       d="m 20.779029,25.016466 6,0 -4.486155,15.605426 -2.960354,-0.160917 z"
       style="opacity:0.3;fill:url(#radialGradient3404);fill-opacity:1;stroke:none;display:inline;enable-background:new" />
    <path
       inkscape:connector-curvature="0"
       style="opacity:0.3;fill:url(#radialGradient3407);fill-opacity:1;stroke:none;display:inline;enable-background:new"
       d="M 30.115007,25.07117 40.895026,25 41,45.90916 21,46 z"
       id="path10590"
       sodipodi:nodetypes="ccccc" />
    <g
       id="g4706">
      <path
         sodipodi:nodetypes="cscssssccssscscc"
         inkscape:connector-curvature="0"
         id="path4688"
         d="m 33.968753,45 c -0.03476,-0.07214 -0.05805,-0.146354 -0.09375,-0.21875 -0.948495,-1.923301 -2.215851,-3.893496 -3.875,-5.75 -0.284239,-0.318241 -0.600778,-0.629541 -0.90625,-0.9375 -1.858554,-1.873696 -3.895651,-3.363623 -5.90625,-4.46875 -2.010599,-1.105128 -3.983242,-1.835965 -5.65625,-2.3125 -1.673007,-0.476535 -3.063213,-0.709864 -4.031249,-0.84375 -0.968037,-0.133887 -1.501582,-0.171732 -1.5,-0.21875 0.0016,-0.04702 0.54497,-0.11629 1.53125,-0.0625 0.986279,0.05378 2.404469,0.231128 4.124999,0.65625 1.720531,0.425121 3.736713,1.117497 5.8125,2.21875 2.075788,1.101253 4.214242,2.605422 6.125,4.53125 0.314051,0.316528 0.614598,0.640897 0.90625,0.96875 1.700738,1.912955 2.999696,3.983469 3.9375,5.96875 0.07414,0.156943 0.117626,0.313185 0.1875,0.46875 z"
         style="fill:url(#radialGradient4700);fill-rule:evenodd;stroke:none" />
      <path
         sodipodi:nodetypes="ccsccsc"
         inkscape:connector-curvature="0"
         id="path4696"
         d="m 12.000004,38.375 0,-1.46875 c 0.217325,-0.474351 0.452242,-0.955184 0.71875,-1.4375 C 13.760321,33.583761 15.198339,31.67022 17.000003,30 l 1.0625,0 c -2.025788,1.731825 -3.626968,3.729276 -4.781249,5.75 -0.504301,0.882845 -0.929605,1.771523 -1.28125,2.625 z"
         style="fill:url(#radialGradient4697);fill-rule:evenodd;stroke:none" />
      <path
         sodipodi:nodetypes="sscsccscssccs"
         inkscape:connector-curvature="0"
         id="path4704"
         d="m 31.281253,44.5625 c -2.222955,-0.01896 -4.678658,-0.242984 -7.1875,-0.78125 -1.099161,-0.235822 -2.136206,-0.521979 -3.15625,-0.84375 -2.072925,-0.654048 -3.99129,-1.46654 -5.624999,-2.3125 -1.287259,-0.666561 -2.351015,-1.351685 -3.3125,-2 l 0,-0.53125 c 1.030473,0.648235 2.208727,1.320319 3.59375,2 1.625305,0.797597 3.492394,1.59035 5.531249,2.21875 1.002964,0.309197 2.046321,0.581093 3.125,0.8125 2.462092,0.528188 4.877485,0.759645 7.0625,0.8125 1.74069,0.0421 3.276792,-0.04801 4.6875,-0.1875 l 0,0.53125 c -1.405806,0.179715 -2.984845,0.29604 -4.71875,0.28125 z"
         style="fill:url(#radialGradient4694);fill-rule:evenodd;stroke:none" />
      <path
         sodipodi:nodetypes="csccccscc"
         inkscape:connector-curvature="0"
         id="path4712"
         d="m 18.968753,45 c -0.430688,-2.169749 -0.602897,-4.572889 -0.3125,-7.0625 0.230406,-1.975304 0.747214,-3.870611 1.40625,-5.5625 0.330002,-0.846737 0.695333,-1.628521 1.09375,-2.375 l 0.6875,0 c -0.431281,0.811372 -0.83692,1.666143 -1.1875,2.59375 -0.623337,1.648383 -1.088941,3.488751 -1.3125,5.40625 -0.287459,2.465587 -0.129078,4.846471 0.28125,7 z"
         style="fill:url(#radialGradient4691);fill-rule:evenodd;stroke:none" />
      <path
         style="fill:url(#radialGradient4704);fill-rule:evenodd;stroke:none"
         d="m 32.652165,30 c 0.430688,2.169749 0.337732,5.235802 0.04734,7.725413 -0.230406,1.975304 -0.747214,3.207698 -1.40625,4.899587 -0.330002,0.846737 -0.695333,1.628521 -1.09375,2.375 l -0.6875,0 c 0.431281,-0.811372 0.83692,-1.666143 1.1875,-2.59375 C 31.322837,40.757867 31.788441,38.917499 32.012,37 32.299459,34.534413 32.410328,32.153529 32,30 z"
         id="path4702"
         inkscape:connector-curvature="0"
         sodipodi:nodetypes="csccccscc" />
    </g>
  </g>
</svg>
