<?xml version="1.0" encoding="UTF-8" standalone="no"?>
<!-- Created with Inkscape (http://www.inkscape.org/) -->

<svg
   xmlns:dc="http://purl.org/dc/elements/1.1/"
   xmlns:cc="http://creativecommons.org/ns#"
   xmlns:rdf="http://www.w3.org/1999/02/22-rdf-syntax-ns#"
   xmlns:svg="http://www.w3.org/2000/svg"
   xmlns="http://www.w3.org/2000/svg"
   xmlns:xlink="http://www.w3.org/1999/xlink"
   xmlns:sodipodi="http://sodipodi.sourceforge.net/DTD/sodipodi-0.dtd"
   xmlns:inkscape="http://www.inkscape.org/namespaces/inkscape"
   width="48"
   height="48"
   id="svg2985"
   version="1.1"
   inkscape:version="0.48.4 r9939"
   sodipodi:docname="unity-settings-dash.svg"
   inkscape:export-filename="/home/sam/design/icons/unity-tweak-tool/36/wm-settings-hotcorners.png"
   inkscape:export-xdpi="300"
   inkscape:export-ydpi="300">
  <defs
     id="defs2987">
    <linearGradient
       id="linearGradient4195">
      <stop
         id="stop4197"
         offset="0"
         style="stop-color:#df5e28;stop-opacity:0.94117647;" />
      <stop
         id="stop4199"
         offset="1"
         style="stop-color:#1a1716;stop-opacity:0.941" />
    </linearGradient>
    <linearGradient
       inkscape:collect="always"
       id="linearGradient10954">
      <stop
         style="stop-color:#909090;stop-opacity:1;"
         offset="0"
         id="stop10956" />
      <stop
         style="stop-color:#cecece;stop-opacity:1"
         offset="1"
         id="stop10958" />
    </linearGradient>
    <linearGradient
       inkscape:collect="always"
       id="linearGradient10938">
      <stop
         style="stop-color:#dadada;stop-opacity:1"
         offset="0"
         id="stop10940" />
      <stop
         style="stop-color:#f6f6f5;stop-opacity:1"
         offset="1"
         id="stop10942" />
    </linearGradient>
    <linearGradient
       inkscape:collect="always"
       id="linearGradient11438">
      <stop
         style="stop-color:#babdb6;stop-opacity:1;"
         offset="0"
         id="stop11440" />
      <stop
         style="stop-color:#4a4d46;stop-opacity:1"
         offset="1"
         id="stop11442" />
    </linearGradient>
    <linearGradient
       inkscape:collect="always"
       id="linearGradient10966">
      <stop
         style="stop-color:#ffffff;stop-opacity:1;"
         offset="0"
         id="stop10968" />
      <stop
         style="stop-color:#f0f0f0;stop-opacity:1"
         offset="1"
         id="stop10970" />
    </linearGradient>
    <linearGradient
       id="linearGradient11473">
      <stop
         style="stop-color:#3877c4;stop-opacity:1;"
         offset="0"
         id="stop11475" />
      <stop
         id="stop7562"
         offset="1"
         style="stop-color:#1c3b62;stop-opacity:1;" />
    </linearGradient>
    <linearGradient
       id="linearGradient4788"
       inkscape:collect="always">
      <stop
         id="stop4790"
         offset="0"
         style="stop-color:#ffffff;stop-opacity:1;" />
      <stop
         id="stop4792"
         offset="1"
         style="stop-color:#ffffff;stop-opacity:0;" />
    </linearGradient>
    <radialGradient
       inkscape:collect="always"
       xlink:href="#linearGradient12771"
       id="radialGradient12777"
       cx="144.16689"
       cy="129.17393"
       fx="144.16689"
       fy="129.17393"
       r="97.906487"
       gradientTransform="matrix(1.1657896,-0.05054328,0.0329754,0.74679303,-28.160936,39.99441)"
       gradientUnits="userSpaceOnUse" />
    <linearGradient
       inkscape:collect="always"
       id="linearGradient12771">
      <stop
         style="stop-color:#ffffff;stop-opacity:1;"
         offset="0"
         id="stop12773" />
      <stop
         style="stop-color:#ffffff;stop-opacity:0;"
         offset="1"
         id="stop12775" />
    </linearGradient>
    <radialGradient
       inkscape:collect="always"
       xlink:href="#linearGradient12771"
       id="radialGradient3521"
       cx="144.16689"
       cy="129.17393"
       fx="144.16689"
       fy="129.17393"
       r="97.906487"
       gradientTransform="matrix(1.1657896,-0.05054328,0.0329754,0.74679303,-28.160936,39.99441)"
       gradientUnits="userSpaceOnUse" />
    <radialGradient
       inkscape:collect="always"
       xlink:href="#linearGradient12771"
       id="radialGradient3529"
       cx="144.16689"
       cy="129.17393"
       fx="144.16689"
       fy="129.17393"
       r="97.906487"
       gradientTransform="matrix(1.1657896,-0.05054328,0.0329754,0.74679303,-28.160936,39.99441)"
       gradientUnits="userSpaceOnUse" />
    <radialGradient
       inkscape:collect="always"
       xlink:href="#linearGradient12771"
       id="radialGradient3537"
       cx="144.16689"
       cy="129.17393"
       fx="144.16689"
       fy="129.17393"
       r="97.906487"
       gradientTransform="matrix(1.1657896,-0.05054328,0.0329754,0.74679303,-28.160936,39.99441)"
       gradientUnits="userSpaceOnUse" />
    <radialGradient
       inkscape:collect="always"
       xlink:href="#linearGradient12771"
       id="radialGradient3545"
       cx="144.16689"
       cy="129.17393"
       fx="144.16689"
       fy="129.17393"
       r="97.906487"
       gradientTransform="matrix(1.1657896,-0.05054328,0.0329754,0.74679303,-28.160936,39.99441)"
       gradientUnits="userSpaceOnUse" />
    <radialGradient
       inkscape:collect="always"
       xlink:href="#linearGradient12771"
       id="radialGradient3553"
       cx="144.16689"
       cy="129.17393"
       fx="144.16689"
       fy="129.17393"
       r="97.906487"
       gradientTransform="matrix(1.1657896,-0.05054328,0.0329754,0.74679303,-28.160936,39.99441)"
       gradientUnits="userSpaceOnUse" />
    <radialGradient
       inkscape:collect="always"
       xlink:href="#linearGradient12771"
       id="radialGradient3561"
       cx="144.16689"
       cy="129.17393"
       fx="144.16689"
       fy="129.17393"
       r="97.906487"
       gradientTransform="matrix(1.1657896,-0.05054328,0.0329754,0.74679303,-28.160936,39.99441)"
       gradientUnits="userSpaceOnUse" />
    <radialGradient
       inkscape:collect="always"
       xlink:href="#linearGradient12771"
       id="radialGradient3569"
       cx="144.16689"
       cy="129.17393"
       fx="144.16689"
       fy="129.17393"
       r="97.906487"
       gradientTransform="matrix(1.1657896,-0.05054328,0.0329754,0.74679303,-28.160936,39.99441)"
       gradientUnits="userSpaceOnUse" />
    <radialGradient
       inkscape:collect="always"
       xlink:href="#linearGradient12771"
       id="radialGradient3577"
       cx="144.16689"
       cy="129.17393"
       fx="144.16689"
       fy="129.17393"
       r="97.906487"
       gradientTransform="matrix(1.1657896,-0.05054328,0.0329754,0.74679303,-28.160936,39.99441)"
       gradientUnits="userSpaceOnUse" />
    <radialGradient
       inkscape:collect="always"
       xlink:href="#linearGradient12771"
       id="radialGradient3585"
       cx="144.16689"
       cy="129.17393"
       fx="144.16689"
       fy="129.17393"
       r="97.906487"
       gradientTransform="matrix(1.1657896,-0.05054328,0.0329754,0.74679303,-28.160936,39.99441)"
       gradientUnits="userSpaceOnUse" />
    <radialGradient
       inkscape:collect="always"
       xlink:href="#linearGradient12771"
       id="radialGradient3593"
       cx="144.16689"
       cy="129.17393"
       fx="144.16689"
       fy="129.17393"
       r="97.906487"
       gradientTransform="matrix(1.1657896,-0.05054328,0.0329754,0.74679303,-28.160936,39.99441)"
       gradientUnits="userSpaceOnUse" />
    <radialGradient
       inkscape:collect="always"
       xlink:href="#linearGradient12771"
       id="radialGradient3601"
       cx="144.16689"
       cy="129.17393"
       fx="144.16689"
       fy="129.17393"
       r="97.906487"
       gradientTransform="matrix(1.1657896,-0.05054328,0.0329754,0.74679303,-28.160936,39.99441)"
       gradientUnits="userSpaceOnUse" />
    <radialGradient
       r="97.906487"
       fy="129.17393"
       fx="144.16689"
       cy="129.17393"
       cx="144.16689"
       gradientTransform="matrix(1.1657896,-0.05054328,0.0329754,0.74679303,-28.160936,39.99441)"
       gradientUnits="userSpaceOnUse"
       id="radialGradient3665"
       xlink:href="#linearGradient12771"
       inkscape:collect="always" />
    <radialGradient
       inkscape:collect="always"
       xlink:href="#linearGradient10966"
       id="radialGradient3348"
       gradientUnits="userSpaceOnUse"
       gradientTransform="matrix(0.17091321,2.3948575e-4,-1.885288e-4,0.1345469,-0.82414948,18.425831)"
       cx="149.56461"
       cy="258.76071"
       fx="149.56461"
       fy="258.76071"
       r="116.23129" />
    <linearGradient
       inkscape:collect="always"
       xlink:href="#linearGradient10938"
       id="linearGradient3355"
       gradientUnits="userSpaceOnUse"
       gradientTransform="matrix(0.17601918,0,0,0.17980627,-1.587065,12.337364)"
       x1="134.83331"
       y1="68.529434"
       x2="171.90327"
       y2="206.8764" />
    <linearGradient
       inkscape:collect="always"
       xlink:href="#linearGradient11438"
       id="linearGradient3357"
       gradientUnits="userSpaceOnUse"
       x1="184.9511"
       y1="149.20987"
       x2="185.07069"
       y2="236.39699"
       gradientTransform="matrix(0.17980539,0,0,0.17980539,-0.63860179,10.853331)" />
    <radialGradient
       inkscape:collect="always"
       xlink:href="#linearGradient12771"
       id="radialGradient3387"
       gradientUnits="userSpaceOnUse"
       gradientTransform="matrix(1.1657896,-0.05054328,0.0329754,0.74679303,-28.160936,39.99441)"
       cx="144.16689"
       cy="129.17393"
       fx="144.16689"
       fy="129.17393"
       r="97.906487" />
    <radialGradient
       inkscape:collect="always"
       xlink:href="#linearGradient4788"
       id="radialGradient3404"
       gradientUnits="userSpaceOnUse"
       gradientTransform="matrix(-1.8243761,0.00876531,-0.00620867,-1.3078007,609.52907,98.067298)"
       cx="326.0206"
       cy="58"
       fx="326.0206"
       fy="58"
       r="12.5" />
    <radialGradient
       inkscape:collect="always"
       xlink:href="#linearGradient4788"
       id="radialGradient3407"
       gradientUnits="userSpaceOnUse"
       gradientTransform="matrix(-1.8882016,0.00857771,-0.00642588,-1.2798107,636.86026,96.523354)"
       cx="326.0206"
       cy="58"
       fx="326.0206"
       fy="58"
       r="12.5" />
    <radialGradient
       inkscape:collect="always"
       xlink:href="#linearGradient11473"
       id="radialGradient4014"
       gradientUnits="userSpaceOnUse"
       gradientTransform="matrix(0.27084087,0,0,0.17776648,-16.458295,8.8402271)"
       cx="149.56461"
       cy="190.13727"
       fx="149.56461"
       fy="190.13727"
       r="108.51468" />
    <radialGradient
       inkscape:collect="always"
       xlink:href="#linearGradient11473"
       id="radialGradient4017"
       gradientUnits="userSpaceOnUse"
       gradientTransform="matrix(0.27858123,3.9175803e-4,-2.5360296e-4,0.18163781,-17.627197,7.9749097)"
       cx="149.56461"
       cy="190.13727"
       fx="149.56461"
       fy="190.13727"
       r="108.51468" />
    <linearGradient
       inkscape:collect="always"
       xlink:href="#linearGradient10954"
       id="linearGradient4020"
       gradientUnits="userSpaceOnUse"
       gradientTransform="matrix(0.16968376,2.3939518e-4,-2.3776336e-4,0.17084857,-1.344677,13.527818)"
       x1="141.31458"
       y1="237.28619"
       x2="141.31458"
       y2="57.029434" />
    <radialGradient
       inkscape:collect="always"
       xlink:href="#linearGradient4195-5"
       id="radialGradient3889"
       gradientUnits="userSpaceOnUse"
       gradientTransform="matrix(0.20312507,-0.08812329,0.12363256,0.3357866,-42.385541,-18.859714)"
       cx="189.70168"
       cy="230.10397"
       fx="189.70168"
       fy="230.10397"
       r="108.51468" />
    <linearGradient
       id="linearGradient4195-5">
      <stop
         id="stop4197-5"
         offset="0"
         style="stop-color:#ff5200;stop-opacity:1;" />
      <stop
         id="stop4199-9"
         offset="1"
         style="stop-color:#1a1716;stop-opacity:0.941" />
    </linearGradient>
    <radialGradient
       r="108.51468"
       fy="230.10397"
       fx="189.70168"
       cy="230.10397"
       cx="189.70168"
       gradientTransform="matrix(0.20312507,-0.08812329,0.12363256,0.3357866,-42.94693,-18.046408)"
       gradientUnits="userSpaceOnUse"
       id="radialGradient3099"
       xlink:href="#linearGradient4195-5"
       inkscape:collect="always" />
    <linearGradient
       inkscape:collect="always"
       xlink:href="#linearGradient10954-4"
       id="linearGradient4020-4"
       gradientUnits="userSpaceOnUse"
       gradientTransform="matrix(0.16968376,2.3939518e-4,-2.3776336e-4,0.17084857,-4.9446771,-6.472182)"
       x1="141.31458"
       y1="237.28619"
       x2="141.31458"
       y2="57.029434" />
    <linearGradient
       id="linearGradient10954-4">
      <stop
         style="stop-color:#a4a4a4;stop-opacity:1;"
         offset="0"
         id="stop10956-8" />
      <stop
         style="stop-color:#cecece;stop-opacity:1"
         offset="1"
         id="stop10958-8" />
    </linearGradient>
    <linearGradient
       inkscape:collect="always"
       xlink:href="#linearGradient10954-4"
       id="linearGradient6521"
       gradientUnits="userSpaceOnUse"
       gradientTransform="matrix(0.16968376,2.3939518e-4,-2.3776336e-4,0.17084857,-1.3446778,13.527815)"
       x1="141.31458"
       y1="237.28619"
       x2="141.31458"
       y2="57.029434" />
    <radialGradient
       inkscape:collect="always"
       xlink:href="#linearGradient11473"
       id="radialGradient3843"
       gradientUnits="userSpaceOnUse"
       gradientTransform="matrix(0.27084087,0,0,0.17776648,-16.104742,8.8397266)"
       cx="149.56461"
       cy="190.13727"
       fx="149.56461"
       fy="190.13727"
       r="108.51468" />
    <radialGradient
       inkscape:collect="always"
       xlink:href="#linearGradient11473"
       id="radialGradient3848"
       gradientUnits="userSpaceOnUse"
       gradientTransform="matrix(0.27084087,0,0,0.17776648,-16.458295,8.8402271)"
       cx="149.56461"
       cy="190.13727"
       fx="149.56461"
       fy="190.13727"
       r="108.51468" />
    <radialGradient
       inkscape:collect="always"
       xlink:href="#linearGradient11473"
       id="radialGradient3865"
       gradientUnits="userSpaceOnUse"
       gradientTransform="matrix(0.27084087,0,0,0.17776648,-16.458295,8.8402271)"
       cx="149.56461"
       cy="190.13727"
       fx="149.56461"
       fy="190.13727"
       r="108.51468" />
    <radialGradient
       inkscape:collect="always"
       xlink:href="#linearGradient11473"
       id="radialGradient3910"
       gradientUnits="userSpaceOnUse"
       gradientTransform="matrix(0.27084087,0,0,0.17776648,-16.452747,12.840223)"
       cx="149.56461"
       cy="190.13727"
       fx="149.56461"
       fy="190.13727"
       r="108.51468" />
    <radialGradient
       inkscape:collect="always"
       xlink:href="#linearGradient11473-9"
       id="radialGradient4014-8"
       gradientUnits="userSpaceOnUse"
       gradientTransform="matrix(0.27084087,0,0,0.17776648,-16.458295,8.8402271)"
       cx="149.56461"
       cy="190.13727"
       fx="149.56461"
       fy="190.13727"
       r="108.51468" />
    <linearGradient
       id="linearGradient11473-9">
      <stop
         style="stop-color:#a026c4;stop-opacity:1;"
         offset="0"
         id="stop11475-1" />
      <stop
         id="stop8072"
         offset="1"
         style="stop-color:#501362;stop-opacity:1;" />
    </linearGradient>
    <linearGradient
       id="linearGradient4195-0">
      <stop
         id="stop4197-7"
         offset="0"
         style="stop-color:#ff7400;stop-opacity:1;" />
      <stop
         style="stop-color:#7f3a00;stop-opacity:1;"
         offset="1"
         id="stop3847" />
    </linearGradient>
    <filter
       color-interpolation-filters="sRGB"
       inkscape:collect="always"
       id="filter4112"
       x="-0.22"
       width="1.4400001"
       y="-0.22"
       height="1.4400001">
      <feGaussianBlur
         inkscape:collect="always"
         stdDeviation="0.275"
         id="feGaussianBlur4114" />
    </filter>
    <filter
       color-interpolation-filters="sRGB"
       inkscape:collect="always"
       id="filter4108"
       x="-0.22"
       width="1.4400001"
       y="-0.22"
       height="1.4400001">
      <feGaussianBlur
         inkscape:collect="always"
         stdDeviation="0.275"
         id="feGaussianBlur4110" />
    </filter>
    <filter
       color-interpolation-filters="sRGB"
       inkscape:collect="always"
       id="filter4104"
       x="-0.22"
       width="1.4400001"
       y="-0.22"
       height="1.4400001">
      <feGaussianBlur
         inkscape:collect="always"
         stdDeviation="0.275"
         id="feGaussianBlur4106" />
    </filter>
    <filter
       color-interpolation-filters="sRGB"
       inkscape:collect="always"
       id="filter4100"
       x="-0.22"
       width="1.4400001"
       y="-0.22"
       height="1.4400001">
      <feGaussianBlur
         inkscape:collect="always"
         stdDeviation="0.275"
         id="feGaussianBlur4102" />
    </filter>
    <filter
       color-interpolation-filters="sRGB"
       inkscape:collect="always"
       id="filter4096"
       x="-0.22"
       width="1.4400001"
       y="-0.22"
       height="1.4400001">
      <feGaussianBlur
         inkscape:collect="always"
         stdDeviation="0.18333333"
         id="feGaussianBlur4098" />
    </filter>
    <filter
       color-interpolation-filters="sRGB"
       inkscape:collect="always"
       id="filter4082"
       x="-0.054000001"
       width="1.108"
       y="-0.27000001"
       height="1.54">
      <feGaussianBlur
         inkscape:collect="always"
         stdDeviation="0.3375"
         id="feGaussianBlur4084" />
    </filter>
    <filter
       color-interpolation-filters="sRGB"
       inkscape:collect="always"
       id="filter4025-0"
       x="-0.36000001"
       width="1.72"
       y="-0.36000001"
       height="1.72">
      <feGaussianBlur
         inkscape:collect="always"
         stdDeviation="0.75"
         id="feGaussianBlur4027-9" />
    </filter>
    <filter
       color-interpolation-filters="sRGB"
       inkscape:collect="always"
       id="filter4035-9"
       x="-0.36000001"
       width="1.72"
       y="-0.36000001"
       height="1.72">
      <feGaussianBlur
         inkscape:collect="always"
         stdDeviation="0.75"
         id="feGaussianBlur4037-0" />
    </filter>
    <filter
       color-interpolation-filters="sRGB"
       inkscape:collect="always"
       id="filter4015-3"
       x="-0.36000001"
       width="1.72"
       y="-0.36000001"
       height="1.72">
      <feGaussianBlur
         inkscape:collect="always"
         stdDeviation="0.75"
         id="feGaussianBlur4017-6" />
    </filter>
    <radialGradient
       inkscape:collect="always"
       xlink:href="#linearGradient11473-1"
       id="radialGradient4014-6"
       gradientUnits="userSpaceOnUse"
       gradientTransform="matrix(0.27084087,0,0,0.17776648,-16.458295,8.8402271)"
       cx="149.56461"
       cy="190.13727"
       fx="149.56461"
       fy="190.13727"
       r="108.51468" />
    <linearGradient
       id="linearGradient11473-1">
      <stop
         style="stop-color:#e74d75;stop-opacity:1;"
         offset="0"
         id="stop11475-16" />
      <stop
         id="stop5517"
         offset="1"
         style="stop-color:#73263a;stop-opacity:1;" />
    </linearGradient>
    <radialGradient
       r="108.51468"
       fy="207.48761"
       fx="149.29233"
       cy="207.48761"
       cx="149.29233"
       gradientTransform="matrix(0.27084087,0,0,0.17776648,-16.365137,13.081634)"
       gradientUnits="userSpaceOnUse"
       id="radialGradient3218"
       xlink:href="#linearGradient11473-1"
       inkscape:collect="always" />
    <filter
       inkscape:collect="always"
       id="filter4050"
       x="-0.22"
       width="1.44"
       y="-0.22"
       height="1.44">
      <feGaussianBlur
         inkscape:collect="always"
         stdDeviation="0.275"
         id="feGaussianBlur4052" />
    </filter>
    <filter
       inkscape:collect="always"
       id="filter4055"
       x="-0.22"
       width="1.44"
       y="-0.22"
       height="1.44">
      <feGaussianBlur
         inkscape:collect="always"
         stdDeviation="0.275"
         id="feGaussianBlur4057" />
    </filter>
    <filter
       inkscape:collect="always"
       id="filter4059"
       x="-0.22"
       width="1.44"
       y="-0.22"
       height="1.44">
      <feGaussianBlur
         inkscape:collect="always"
         stdDeviation="0.275"
         id="feGaussianBlur4061" />
    </filter>
    <filter
       inkscape:collect="always"
       id="filter4063"
       x="-0.22"
       width="1.44"
       y="-0.22"
       height="1.44">
      <feGaussianBlur
         inkscape:collect="always"
         stdDeviation="0.275"
         id="feGaussianBlur4065" />
    </filter>
    <filter
       inkscape:collect="always"
       id="filter4067"
       x="-0.22"
       width="1.44"
       y="-0.22"
       height="1.44">
      <feGaussianBlur
         inkscape:collect="always"
         stdDeviation="0.275"
         id="feGaussianBlur4069" />
    </filter>
    <filter
       inkscape:collect="always"
       id="filter4071"
       x="-0.22"
       width="1.44"
       y="-0.22"
       height="1.44">
      <feGaussianBlur
         inkscape:collect="always"
         stdDeviation="0.275"
         id="feGaussianBlur4073" />
    </filter>
    <filter
       inkscape:collect="always"
       id="filter4075"
       x="-0.22"
       width="1.44"
       y="-0.22"
       height="1.44">
      <feGaussianBlur
         inkscape:collect="always"
         stdDeviation="0.275"
         id="feGaussianBlur4077" />
    </filter>
    <filter
       inkscape:collect="always"
       id="filter4081">
      <feGaussianBlur
         inkscape:collect="always"
         stdDeviation="0.675"
         id="feGaussianBlur4083" />
    </filter>
    <radialGradient
       inkscape:collect="always"
       xlink:href="#linearGradient11473-1"
       id="radialGradient3476"
       gradientUnits="userSpaceOnUse"
       gradientTransform="matrix(0.27084087,0,0,0.17776648,-16.365137,13.081634)"
       cx="149.29233"
       cy="207.48761"
       fx="149.29233"
       fy="207.48761"
       r="108.51468" />
    <radialGradient
       inkscape:collect="always"
       xlink:href="#linearGradient11473-1"
       id="radialGradient3517"
       gradientUnits="userSpaceOnUse"
       gradientTransform="matrix(0.27084087,0,0,0.17776648,-16.366524,12.081635)"
       cx="149.29233"
       cy="207.48761"
       fx="149.29233"
       fy="207.48761"
       r="108.51468" />
  </defs>
  <sodipodi:namedview
     id="base"
     pagecolor="#ffffff"
     bordercolor="#666666"
     borderopacity="1.0"
     inkscape:pageopacity="0"
     inkscape:pageshadow="2"
     inkscape:zoom="16"
     inkscape:cx="44.283808"
     inkscape:cy="12.536989"
     inkscape:current-layer="layer1"
     showgrid="true"
     inkscape:document-units="px"
     inkscape:grid-bbox="true"
     inkscape:window-width="1366"
     inkscape:window-height="711"
     inkscape:window-x="0"
     inkscape:window-y="27"
     inkscape:window-maximized="1"
     showguides="true"
     inkscape:guide-bbox="true"
     inkscape:snap-bbox="true">
    <inkscape:grid
       type="xygrid"
       id="grid2982"
       empspacing="5"
       visible="true"
       enabled="true"
       snapvisiblegridlinesonly="true" />
  </sodipodi:namedview>
  <metadata
     id="metadata2990">
    <rdf:RDF>
      <cc:Work
         rdf:about="">
        <dc:format>image/svg+xml</dc:format>
        <dc:type
           rdf:resource="http://purl.org/dc/dcmitype/StillImage" />
        <dc:title />
      </cc:Work>
    </rdf:RDF>
  </metadata>
  <g
     id="layer1"
     inkscape:label="Layer 1"
     inkscape:groupmode="layer"
     transform="translate(0,-16)">
    <path
       sodipodi:nodetypes="cccscscscccccc"
       id="path4016"
       d="m 6,26 c -1,0 -1,1 -1,1 l 0,29 c 0,0 0,1 1,1 l 38,0 c 0,0 1,0 1,-1 l 0,-29 c 0,0 0,-1 -1,-1 z m 37,2 0,27 -36,0 0,-27 z"
       style="color:#000000;fill:#b3b3b3;fill-opacity:1;fill-rule:nonzero;stroke:none;stroke-width:10.11600018000000034;marker:none;visibility:visible;display:inline;overflow:visible;enable-background:new"
       inkscape:connector-curvature="0" />
    <rect
       transform="matrix(0.999999,0.00141561,-0.00138697,0.99999904,0,0)"
       ry="0.87722546"
       rx="0.87199056"
       y="25.992897"
       x="5.036056"
       height="28.946177"
       width="38.040184"
       id="rect10538"
       style="color:#000000;fill:url(#radialGradient3517);fill-opacity:1;fill-rule:nonzero;stroke:none;stroke-width:2;marker:none;visibility:visible;display:inline;overflow:visible;enable-background:accumulate" />
    <path
       style="opacity:0.4;fill:#000000;fill-opacity:1;stroke:none"
       d="m 5,55 6,0 0,-12 19,0 0,-13 13,0 0,-4 -38,0 z"
       id="path3849"
       inkscape:connector-curvature="0"
       sodipodi:nodetypes="ccccccccc" />
    <path
       sodipodi:nodetypes="ccccccccsccccc"
       inkscape:connector-curvature="0"
       id="path4079"
       d="m 30,29 0,13 c 0,1 -1,1 -1,1 l -18,0 0,1 0,8 1,0 0,-8 17,0 c 2,0 2,-2 2,-2 l 0,-12 12,0 0,-1 z"
       style="fill:#e74d75;fill-opacity:1;stroke:none;filter:url(#filter4081)" />
    <path
       style="opacity:0.5;fill:#c4385c;fill-opacity:1;stroke:none"
       d="m 5,55 6,0 0,-12 19,0 0,-13 13,0 0,-4 -38,0 z"
       id="rect3064"
       inkscape:connector-curvature="0"
       sodipodi:nodetypes="ccccccccc" />
    <path
       style="opacity:0.5;fill:#ffffff;fill-opacity:1;stroke:none"
       d="m 30,29 0,13 c 0,1 -1,1 -1,1 l -18,0 0,1 0,11 1,0 0,-11 17,0 c 2,0 2,-2 2,-2 l 0,-12 12,0 0,-1 z"
       id="path3059"
       inkscape:connector-curvature="0"
       sodipodi:nodetypes="ccccccccsccccc" />
    <rect
       style="fill:none;stroke:none"
       id="rect4189"
       width="16.705399"
       height="23.776466"
       x="6.804791"
       y="26.494505"
       rx="0.87199056"
       ry="0.87722546" />
    <rect
       y="38"
       x="-19"
       height="3"
       width="3"
       id="rect4014"
       style="opacity:0.5;fill:#ffffff;fill-opacity:1;stroke:none"
       transform="scale(-1,1)" />
    <rect
       y="34"
       x="12"
       height="3"
       width="3"
       id="rect3998"
       style="opacity:0.5;fill:#ffffff;fill-opacity:1;stroke:none" />
    <rect
       y="38"
       x="-15"
       height="3"
       width="3"
       id="rect4016"
       style="opacity:0.2;fill:#ffffff;fill-opacity:1;stroke:none"
       transform="scale(-1,1)" />
    <rect
       y="34"
       x="16.000002"
       height="3"
       width="3"
       id="rect4002"
       style="opacity:0.1;fill:#ffffff;fill-opacity:1;stroke:none" />
    <rect
       y="34"
       x="-27"
       height="3"
       width="3"
       id="rect4018"
       style="opacity:0.2;fill:#ffffff;fill-opacity:1;stroke:none"
       transform="scale(-1,1)" />
    <rect
       y="34"
       x="20.000002"
       height="3"
       width="3"
       id="rect4006"
       style="opacity:0.3;fill:#ffffff;fill-opacity:1;stroke:none" />
    <rect
       y="38"
       x="-23"
       height="3"
       width="3"
       id="rect4023"
       style="opacity:0.4;fill:#ffffff;fill-opacity:1;stroke:none"
       transform="scale(-1,1)" />
    <rect
       style="opacity:0.5;fill:#ffffff;fill-opacity:1;stroke:none"
       id="rect3954"
       width="15"
       height="3"
       x="12"
       y="29" />
    <path
       sodipodi:type="arc"
       style="fill:#ffffff;fill-opacity:1;stroke:none"
       id="path3956"
       sodipodi:cx="4"
       sodipodi:cy="20"
       sodipodi:rx="1"
       sodipodi:ry="1"
       d="m 5,20 c 0,0.552285 -0.4477153,1 -1,1 -0.5522847,0 -1,-0.447715 -1,-1 0,-0.552285 0.4477153,-1 1,-1 0.5522847,0 1,0.447715 1,1 z"
       transform="matrix(1.5,0,0,1.5,2.5,1.5)" />
    <path
       transform="matrix(0.2,0,0,0.2,-4,24.4)"
       d="M 60,20.5 C 60,21.880712 58.880712,23 57.5,23 56.119288,23 55,21.880712 55,20.5 55,19.119288 56.119288,18 57.5,18 c 1.380712,0 2.5,1.119288 2.5,2.5 z"
       sodipodi:ry="2.5"
       sodipodi:rx="2.5"
       sodipodi:cy="20.5"
       sodipodi:cx="57.5"
       id="path3979"
       style="fill:#dd4814;fill-opacity:1;stroke:none"
       sodipodi:type="arc" />
    <path
       sodipodi:type="arc"
       style="opacity:0.5;fill:#ffffff;fill-opacity:1;stroke:none;filter:url(#filter4015-3)"
       id="path4009"
       sodipodi:cx="57.5"
       sodipodi:cy="20.5"
       sodipodi:rx="2.5"
       sodipodi:ry="2.5"
       d="M 60,20.5 C 60,21.880712 58.880712,23 57.5,23 56.119288,23 55,21.880712 55,20.5 55,19.119288 56.119288,18 57.5,18 c 1.380712,0 2.5,1.119288 2.5,2.5 z"
       transform="matrix(0.2,0,0,0.2,-2.988738,24.4)" />
    <path
       sodipodi:type="arc"
       style="fill:#dd4814;fill-opacity:1;stroke:none;filter:url(#filter4035-9)"
       id="path4029"
       sodipodi:cx="57.5"
       sodipodi:cy="20.5"
       sodipodi:rx="2.5"
       sodipodi:ry="2.5"
       d="M 60,20.5 C 60,21.880712 58.880712,23 57.5,23 56.119288,23 55,21.880712 55,20.5 55,19.119288 56.119288,18 57.5,18 c 1.380712,0 2.5,1.119288 2.5,2.5 z"
       transform="matrix(0.2,0,0,0.2,-3.988738,24.4)" />
    <path
       transform="matrix(0.2,0,0,0.2,-3,24.4)"
       d="M 60,20.5 C 60,21.880712 58.880712,23 57.5,23 56.119288,23 55,21.880712 55,20.5 55,19.119288 56.119288,18 57.5,18 c 1.380712,0 2.5,1.119288 2.5,2.5 z"
       sodipodi:ry="2.5"
       sodipodi:rx="2.5"
       sodipodi:cy="20.5"
       sodipodi:cx="57.5"
       id="path4005"
       style="opacity:0.5;fill:#ffffff;fill-opacity:1;stroke:none"
       sodipodi:type="arc" />
    <path
       transform="matrix(0.2,0,0,0.2,-1.988738,24.4)"
       d="M 60,20.5 C 60,21.880712 58.880712,23 57.5,23 56.119288,23 55,21.880712 55,20.5 55,19.119288 56.119288,18 57.5,18 c 1.380712,0 2.5,1.119288 2.5,2.5 z"
       sodipodi:ry="2.5"
       sodipodi:rx="2.5"
       sodipodi:cy="20.5"
       sodipodi:cx="57.5"
       id="path4019"
       style="opacity:0.5;fill:#ffffff;fill-opacity:1;stroke:none;filter:url(#filter4025-0)"
       sodipodi:type="arc" />
    <path
       sodipodi:type="arc"
       style="opacity:0.5;fill:#ffffff;fill-opacity:1;stroke:none"
       id="path4007"
       sodipodi:cx="57.5"
       sodipodi:cy="20.5"
       sodipodi:rx="2.5"
       sodipodi:ry="2.5"
       d="M 60,20.5 C 60,21.880712 58.880712,23 57.5,23 56.119288,23 55,21.880712 55,20.5 55,19.119288 56.119288,18 57.5,18 c 1.380712,0 2.5,1.119288 2.5,2.5 z"
       transform="matrix(0.2,0,0,0.2,-2,24.4)" />
    <path
       style="opacity:0.5;fill:#ffffff;fill-opacity:1;stroke:none"
       d="m 7,34.999999 c 0,-1 1,-1 1,-1 l 0.9999998,0 c 1,0 1,1 1,1 l 0,1 c 0,1 -1,1 -1,1 L 8,36.999999 c -1,0 -1,-1 -1,-1 z"
       id="rect3922"
       inkscape:connector-curvature="0"
       sodipodi:nodetypes="ccccccccc" />
    <path
       style="opacity:0.3;fill:#ffffff;fill-opacity:1;stroke:none"
       d="m 8,37.999999 0.9999998,0 c 1,0 1,1 1,1 l 0,1 c 0,1 -1,1 -1,1 L 8,40.999999 c 0,0 -1,0 -1,-1 l 0,-1 c 0,0 0,-1 1,-1 z"
       id="rect3924"
       inkscape:connector-curvature="0"
       sodipodi:nodetypes="ccccccccc" />
    <path
       style="opacity:0.2;fill:#ffffff;fill-opacity:1;stroke:none"
       d="m 7,42.999999 c 0,-1 1,-1 1,-1 l 0.9999998,0 c 1,0 1,1 1,1 l 0,1 c 0,1 -1,1 -1,1 L 8,44.999999 c -1,0 -1,-1.025165 -1,-1.025165 z"
       id="rect3926"
       inkscape:connector-curvature="0"
       sodipodi:nodetypes="ccccccccc" />
    <path
       style="opacity:0.5;fill:#ffffff;fill-opacity:1;stroke:none"
       d="m 8,50 0.9999998,0 c 1,0 1,1 1,1 l 0,1 c 0,1 -1,1 -1,1 L 8.0156115,53 C 8.0156115,53 7,53 7,52 l 0,-1 c 0,0 0,-1 1,-1 z"
       id="rect3928"
       inkscape:connector-curvature="0"
       sodipodi:nodetypes="ccccccccc" />
    <rect
       y="29"
       x="12"
       height="3"
       width="15"
       id="rect3251"
       style="opacity:0.5;fill:#ffffff;fill-opacity:1;stroke:none;filter:url(#filter4082)" />
    <path
       transform="matrix(1.5,0,0,1.5,2.5,1.5)"
       d="m 5,20 c 0,0.552285 -0.4477153,1 -1,1 -0.5522847,0 -1,-0.447715 -1,-1 0,-0.552285 0.4477153,-1 1,-1 0.5522847,0 1,0.447715 1,1 z"
       sodipodi:ry="1"
       sodipodi:rx="1"
       sodipodi:cy="20"
       sodipodi:cx="4"
       id="path4086"
       style="fill:#ffffff;fill-opacity:1;stroke:none;filter:url(#filter4096)"
       sodipodi:type="arc" />
    <path
       sodipodi:nodetypes="ccccccccc"
       inkscape:connector-curvature="0"
       id="path4088"
       d="m 7,34.999999 c 0,-1 1,-1 1,-1 l 0.9999998,0 c 1,0 1,1 1,1 l 0,1 c 0,1 -1,1 -1,1 L 8,36.999999 c -1,0 -1,-1 -1,-1 z"
       style="opacity:0.5;fill:#ffffff;fill-opacity:1;stroke:none;filter:url(#filter4100)" />
    <path
       sodipodi:nodetypes="ccccccccc"
       inkscape:connector-curvature="0"
       id="path4090"
       d="m 8,37.999999 0.9999998,0 c 1,0 1,1 1,1 l 0,1 c 0,1 -1,1 -1,1 L 8,40.999999 c 0,0 -1,0 -1,-1 l 0,-1 c 0,0 0,-1 1,-1 z"
       style="opacity:0.3;fill:#ffffff;fill-opacity:1;stroke:none;filter:url(#filter4104)" />
    <path
       sodipodi:nodetypes="ccccccccc"
       inkscape:connector-curvature="0"
       id="path4092"
       d="m 7,42.999999 c 0,-1 1,-1 1,-1 l 0.9999998,0 c 1,0 1,1 1,1 l 0,1 c 0,1 -1,1 -1,1 L 8,44.999999 c -1,0 -1,-1.025165 -1,-1.025165 z"
       style="opacity:0.2;fill:#ffffff;fill-opacity:1;stroke:none;filter:url(#filter4108)" />
    <path
       sodipodi:nodetypes="ccccccccc"
       inkscape:connector-curvature="0"
       id="path4094"
       d="m 8,50 0.9999998,0 c 1,0 1,1 1,1 l 0,1 c 0,1 -1,1 -1,1 L 8.0156115,53 C 8.0156115,53 7,53 7,52 l 0,-1 c 0,0 0,-1 1,-1 z"
       style="opacity:0.5;fill:#ffffff;fill-opacity:1;stroke:none;filter:url(#filter4112)" />
    <rect
       transform="matrix(-1,0,0,1,0,-1)"
       style="opacity:0.31400003;fill:#ffffff;fill-opacity:1;stroke:none;filter:url(#filter4050)"
       id="rect4036"
       width="3"
       height="3"
       x="-19"
       y="39" />
    <rect
       style="opacity:0.31400003;fill:#ffffff;fill-opacity:1;stroke:none;filter:url(#filter4055)"
       id="rect4038"
       width="3"
       height="3"
       x="12"
       y="34" />
    <rect
       transform="matrix(-1,0,0,1,0,-1)"
       style="opacity:0.31400003;fill:#ffffff;fill-opacity:1;stroke:none;filter:url(#filter4059)"
       id="rect4040"
       width="3"
       height="3"
       x="-15"
       y="39" />
    <rect
       style="opacity:0.31400003;fill:#ffffff;fill-opacity:1;stroke:none;filter:url(#filter4063)"
       id="rect4042"
       width="3"
       height="3"
       x="16.000002"
       y="34" />
    <rect
       transform="matrix(-1,0,0,1,0,-1)"
       style="opacity:0.31400003;fill:#ffffff;fill-opacity:1;stroke:none;filter:url(#filter4067)"
       id="rect4044"
       width="3"
       height="3"
       x="-27"
       y="35" />
    <rect
       style="opacity:0.31400003;fill:#ffffff;fill-opacity:1;stroke:none;filter:url(#filter4071)"
       id="rect4046"
       width="3"
       height="3"
       x="20.000002"
       y="34" />
    <rect
       transform="matrix(-1,0,0,1,0,-1)"
       style="opacity:0.31400003;fill:#ffffff;fill-opacity:1;stroke:none;filter:url(#filter4075)"
       id="rect4048"
       width="3"
       height="3"
       x="-23"
       y="39" />
    <path
       inkscape:connector-curvature="0"
       style="color:#000000;fill:#333333;fill-opacity:1;fill-rule:nonzero;stroke:none;stroke-width:10.11600018;marker:none;visibility:visible;display:inline;overflow:visible;enable-background:new"
       d="m 5,25 c -1,0 -1,1 -1,1 l 0,29 c 0,0 0,1 1,1 l 38,0 c 0,0 1,0 1,-1 l 0,-29 c 0,0 0,-1 -1,-1 z m 37,2 0,27 -36,0 0,-27 z"
       id="rect3070"
       sodipodi:nodetypes="cccscscscccccc" />
  </g>
</svg>
