<?xml version="1.0" encoding="UTF-8" standalone="no"?>
<!-- Created with Inkscape (http://www.inkscape.org/) -->

<svg
   xmlns:dc="http://purl.org/dc/elements/1.1/"
   xmlns:cc="http://creativecommons.org/ns#"
   xmlns:rdf="http://www.w3.org/1999/02/22-rdf-syntax-ns#"
   xmlns:svg="http://www.w3.org/2000/svg"
   xmlns="http://www.w3.org/2000/svg"
   xmlns:xlink="http://www.w3.org/1999/xlink"
   xmlns:sodipodi="http://sodipodi.sourceforge.net/DTD/sodipodi-0.dtd"
   xmlns:inkscape="http://www.inkscape.org/namespaces/inkscape"
   width="48"
   height="48"
   id="svg2985"
   version="1.1"
   inkscape:version="0.48.4 r9939"
   sodipodi:docname="unity-settings-dash.svg"
   inkscape:export-filename="/home/sam/design/icons/unity-tweak-tool/36/wm-settings-window-snapping.png"
   inkscape:export-xdpi="90"
   inkscape:export-ydpi="90">
  <defs
     id="defs2987">
    <linearGradient
       id="linearGradient4195">
      <stop
         id="stop4197"
         offset="0"
         style="stop-color:#df5e28;stop-opacity:0.94117647;" />
      <stop
         id="stop4199"
         offset="1"
         style="stop-color:#1a1716;stop-opacity:0.941" />
    </linearGradient>
    <linearGradient
       inkscape:collect="always"
       id="linearGradient10954">
      <stop
         style="stop-color:#909090;stop-opacity:1;"
         offset="0"
         id="stop10956" />
      <stop
         style="stop-color:#cecece;stop-opacity:1"
         offset="1"
         id="stop10958" />
    </linearGradient>
    <linearGradient
       inkscape:collect="always"
       id="linearGradient10938">
      <stop
         style="stop-color:#dadada;stop-opacity:1"
         offset="0"
         id="stop10940" />
      <stop
         style="stop-color:#f6f6f5;stop-opacity:1"
         offset="1"
         id="stop10942" />
    </linearGradient>
    <linearGradient
       inkscape:collect="always"
       id="linearGradient11438">
      <stop
         style="stop-color:#babdb6;stop-opacity:1;"
         offset="0"
         id="stop11440" />
      <stop
         style="stop-color:#4a4d46;stop-opacity:1"
         offset="1"
         id="stop11442" />
    </linearGradient>
    <linearGradient
       inkscape:collect="always"
       id="linearGradient10966">
      <stop
         style="stop-color:#ffffff;stop-opacity:1;"
         offset="0"
         id="stop10968" />
      <stop
         style="stop-color:#f0f0f0;stop-opacity:1"
         offset="1"
         id="stop10970" />
    </linearGradient>
    <linearGradient
       id="linearGradient11473">
      <stop
         style="stop-color:#e74d75;stop-opacity:1;"
         offset="0"
         id="stop11475" />
      <stop
         id="stop5517"
         offset="1"
         style="stop-color:#73263a;stop-opacity:1;" />
    </linearGradient>
    <linearGradient
       id="linearGradient4788"
       inkscape:collect="always">
      <stop
         id="stop4790"
         offset="0"
         style="stop-color:#ffffff;stop-opacity:1;" />
      <stop
         id="stop4792"
         offset="1"
         style="stop-color:#ffffff;stop-opacity:0;" />
    </linearGradient>
    <radialGradient
       inkscape:collect="always"
       xlink:href="#linearGradient12771"
       id="radialGradient12777"
       cx="144.16689"
       cy="129.17393"
       fx="144.16689"
       fy="129.17393"
       r="97.906487"
       gradientTransform="matrix(1.1657896,-0.05054328,0.0329754,0.74679303,-28.160936,39.99441)"
       gradientUnits="userSpaceOnUse" />
    <linearGradient
       inkscape:collect="always"
       id="linearGradient12771">
      <stop
         style="stop-color:#ffffff;stop-opacity:1;"
         offset="0"
         id="stop12773" />
      <stop
         style="stop-color:#ffffff;stop-opacity:0;"
         offset="1"
         id="stop12775" />
    </linearGradient>
    <radialGradient
       inkscape:collect="always"
       xlink:href="#linearGradient12771"
       id="radialGradient3521"
       cx="144.16689"
       cy="129.17393"
       fx="144.16689"
       fy="129.17393"
       r="97.906487"
       gradientTransform="matrix(1.1657896,-0.05054328,0.0329754,0.74679303,-28.160936,39.99441)"
       gradientUnits="userSpaceOnUse" />
    <radialGradient
       inkscape:collect="always"
       xlink:href="#linearGradient12771"
       id="radialGradient3529"
       cx="144.16689"
       cy="129.17393"
       fx="144.16689"
       fy="129.17393"
       r="97.906487"
       gradientTransform="matrix(1.1657896,-0.05054328,0.0329754,0.74679303,-28.160936,39.99441)"
       gradientUnits="userSpaceOnUse" />
    <radialGradient
       inkscape:collect="always"
       xlink:href="#linearGradient12771"
       id="radialGradient3537"
       cx="144.16689"
       cy="129.17393"
       fx="144.16689"
       fy="129.17393"
       r="97.906487"
       gradientTransform="matrix(1.1657896,-0.05054328,0.0329754,0.74679303,-28.160936,39.99441)"
       gradientUnits="userSpaceOnUse" />
    <radialGradient
       inkscape:collect="always"
       xlink:href="#linearGradient12771"
       id="radialGradient3545"
       cx="144.16689"
       cy="129.17393"
       fx="144.16689"
       fy="129.17393"
       r="97.906487"
       gradientTransform="matrix(1.1657896,-0.05054328,0.0329754,0.74679303,-28.160936,39.99441)"
       gradientUnits="userSpaceOnUse" />
    <radialGradient
       inkscape:collect="always"
       xlink:href="#linearGradient12771"
       id="radialGradient3553"
       cx="144.16689"
       cy="129.17393"
       fx="144.16689"
       fy="129.17393"
       r="97.906487"
       gradientTransform="matrix(1.1657896,-0.05054328,0.0329754,0.74679303,-28.160936,39.99441)"
       gradientUnits="userSpaceOnUse" />
    <radialGradient
       inkscape:collect="always"
       xlink:href="#linearGradient12771"
       id="radialGradient3561"
       cx="144.16689"
       cy="129.17393"
       fx="144.16689"
       fy="129.17393"
       r="97.906487"
       gradientTransform="matrix(1.1657896,-0.05054328,0.0329754,0.74679303,-28.160936,39.99441)"
       gradientUnits="userSpaceOnUse" />
    <radialGradient
       inkscape:collect="always"
       xlink:href="#linearGradient12771"
       id="radialGradient3569"
       cx="144.16689"
       cy="129.17393"
       fx="144.16689"
       fy="129.17393"
       r="97.906487"
       gradientTransform="matrix(1.1657896,-0.05054328,0.0329754,0.74679303,-28.160936,39.99441)"
       gradientUnits="userSpaceOnUse" />
    <radialGradient
       inkscape:collect="always"
       xlink:href="#linearGradient12771"
       id="radialGradient3577"
       cx="144.16689"
       cy="129.17393"
       fx="144.16689"
       fy="129.17393"
       r="97.906487"
       gradientTransform="matrix(1.1657896,-0.05054328,0.0329754,0.74679303,-28.160936,39.99441)"
       gradientUnits="userSpaceOnUse" />
    <radialGradient
       inkscape:collect="always"
       xlink:href="#linearGradient12771"
       id="radialGradient3585"
       cx="144.16689"
       cy="129.17393"
       fx="144.16689"
       fy="129.17393"
       r="97.906487"
       gradientTransform="matrix(1.1657896,-0.05054328,0.0329754,0.74679303,-28.160936,39.99441)"
       gradientUnits="userSpaceOnUse" />
    <radialGradient
       inkscape:collect="always"
       xlink:href="#linearGradient12771"
       id="radialGradient3593"
       cx="144.16689"
       cy="129.17393"
       fx="144.16689"
       fy="129.17393"
       r="97.906487"
       gradientTransform="matrix(1.1657896,-0.05054328,0.0329754,0.74679303,-28.160936,39.99441)"
       gradientUnits="userSpaceOnUse" />
    <radialGradient
       inkscape:collect="always"
       xlink:href="#linearGradient12771"
       id="radialGradient3601"
       cx="144.16689"
       cy="129.17393"
       fx="144.16689"
       fy="129.17393"
       r="97.906487"
       gradientTransform="matrix(1.1657896,-0.05054328,0.0329754,0.74679303,-28.160936,39.99441)"
       gradientUnits="userSpaceOnUse" />
    <radialGradient
       r="97.906487"
       fy="129.17393"
       fx="144.16689"
       cy="129.17393"
       cx="144.16689"
       gradientTransform="matrix(1.1657896,-0.05054328,0.0329754,0.74679303,-28.160936,39.99441)"
       gradientUnits="userSpaceOnUse"
       id="radialGradient3665"
       xlink:href="#linearGradient12771"
       inkscape:collect="always" />
    <radialGradient
       inkscape:collect="always"
       xlink:href="#linearGradient10966"
       id="radialGradient3348"
       gradientUnits="userSpaceOnUse"
       gradientTransform="matrix(0.17091321,2.3948575e-4,-1.885288e-4,0.1345469,-0.82414948,18.425831)"
       cx="149.56461"
       cy="258.76071"
       fx="149.56461"
       fy="258.76071"
       r="116.23129" />
    <linearGradient
       inkscape:collect="always"
       xlink:href="#linearGradient10938"
       id="linearGradient3355"
       gradientUnits="userSpaceOnUse"
       gradientTransform="matrix(0.17601918,0,0,0.17980627,-1.587065,12.337364)"
       x1="134.83331"
       y1="68.529434"
       x2="171.90327"
       y2="206.8764" />
    <linearGradient
       inkscape:collect="always"
       xlink:href="#linearGradient11438"
       id="linearGradient3357"
       gradientUnits="userSpaceOnUse"
       x1="184.9511"
       y1="149.20987"
       x2="185.07069"
       y2="236.39699"
       gradientTransform="matrix(0.17980539,0,0,0.17980539,-0.63860179,10.853331)" />
    <radialGradient
       inkscape:collect="always"
       xlink:href="#linearGradient12771"
       id="radialGradient3387"
       gradientUnits="userSpaceOnUse"
       gradientTransform="matrix(1.1657896,-0.05054328,0.0329754,0.74679303,-28.160936,39.99441)"
       cx="144.16689"
       cy="129.17393"
       fx="144.16689"
       fy="129.17393"
       r="97.906487" />
    <radialGradient
       inkscape:collect="always"
       xlink:href="#linearGradient4788"
       id="radialGradient3404"
       gradientUnits="userSpaceOnUse"
       gradientTransform="matrix(-1.8243761,0.00876531,-0.00620867,-1.3078007,609.52907,98.067298)"
       cx="326.0206"
       cy="58"
       fx="326.0206"
       fy="58"
       r="12.5" />
    <radialGradient
       inkscape:collect="always"
       xlink:href="#linearGradient4788"
       id="radialGradient3407"
       gradientUnits="userSpaceOnUse"
       gradientTransform="matrix(-1.8882016,0.00857771,-0.00642588,-1.2798107,636.86026,96.523354)"
       cx="326.0206"
       cy="58"
       fx="326.0206"
       fy="58"
       r="12.5" />
    <radialGradient
       inkscape:collect="always"
       xlink:href="#linearGradient11473"
       id="radialGradient4014"
       gradientUnits="userSpaceOnUse"
       gradientTransform="matrix(0.27084087,0,0,0.17776648,-16.458295,8.8402271)"
       cx="149.56461"
       cy="190.13727"
       fx="149.56461"
       fy="190.13727"
       r="108.51468" />
    <linearGradient
       inkscape:collect="always"
       xlink:href="#linearGradient10954"
       id="linearGradient4020"
       gradientUnits="userSpaceOnUse"
       gradientTransform="matrix(0.16968376,2.3939518e-4,-2.3776336e-4,0.17084857,-1.344677,13.527818)"
       x1="141.31458"
       y1="237.28619"
       x2="141.31458"
       y2="57.029434" />
    <radialGradient
       inkscape:collect="always"
       xlink:href="#linearGradient4195-5"
       id="radialGradient3889"
       gradientUnits="userSpaceOnUse"
       gradientTransform="matrix(0.20312507,-0.08812329,0.12363256,0.3357866,-42.385541,-18.859714)"
       cx="189.70168"
       cy="230.10397"
       fx="189.70168"
       fy="230.10397"
       r="108.51468" />
    <linearGradient
       id="linearGradient4195-5">
      <stop
         id="stop4197-5"
         offset="0"
         style="stop-color:#ff5200;stop-opacity:1;" />
      <stop
         id="stop4199-9"
         offset="1"
         style="stop-color:#1a1716;stop-opacity:0.941" />
    </linearGradient>
    <filter
       inkscape:collect="always"
       id="filter3866">
      <feGaussianBlur
         inkscape:collect="always"
         stdDeviation="0.6875"
         id="feGaussianBlur3868" />
    </filter>
    <filter
       color-interpolation-filters="sRGB"
       inkscape:collect="always"
       id="filter4015"
       x="-0.36000001"
       width="1.72"
       y="-0.36000001"
       height="1.72">
      <feGaussianBlur
         inkscape:collect="always"
         stdDeviation="0.75"
         id="feGaussianBlur4017" />
    </filter>
    <filter
       color-interpolation-filters="sRGB"
       inkscape:collect="always"
       id="filter4025"
       x="-0.36000001"
       width="1.72"
       y="-0.36000001"
       height="1.72">
      <feGaussianBlur
         inkscape:collect="always"
         stdDeviation="0.75"
         id="feGaussianBlur4027" />
    </filter>
    <filter
       color-interpolation-filters="sRGB"
       inkscape:collect="always"
       id="filter4035"
       x="-0.36000001"
       width="1.72"
       y="-0.36000001"
       height="1.72">
      <feGaussianBlur
         inkscape:collect="always"
         stdDeviation="0.75"
         id="feGaussianBlur4037" />
    </filter>
    <filter
       inkscape:collect="always"
       id="filter4054"
       x="-0.27"
       width="1.54"
       y="-0.27"
       height="1.54">
      <feGaussianBlur
         inkscape:collect="always"
         stdDeviation="0.3375"
         id="feGaussianBlur4056" />
    </filter>
    <filter
       inkscape:collect="always"
       id="filter4058"
       x="-0.27"
       width="1.54"
       y="-0.27"
       height="1.54">
      <feGaussianBlur
         inkscape:collect="always"
         stdDeviation="0.3375"
         id="feGaussianBlur4060" />
    </filter>
    <filter
       inkscape:collect="always"
       id="filter4062"
       x="-0.27"
       width="1.54"
       y="-0.27"
       height="1.54">
      <feGaussianBlur
         inkscape:collect="always"
         stdDeviation="0.3375"
         id="feGaussianBlur4064" />
    </filter>
    <filter
       inkscape:collect="always"
       id="filter4066"
       x="-0.27"
       width="1.54"
       y="-0.27"
       height="1.54">
      <feGaussianBlur
         inkscape:collect="always"
         stdDeviation="0.3375"
         id="feGaussianBlur4068" />
    </filter>
    <filter
       inkscape:collect="always"
       id="filter4070"
       x="-0.27"
       width="1.54"
       y="-0.27"
       height="1.54">
      <feGaussianBlur
         inkscape:collect="always"
         stdDeviation="0.3375"
         id="feGaussianBlur4072" />
    </filter>
    <filter
       inkscape:collect="always"
       id="filter4074"
       x="-0.27"
       width="1.54"
       y="-0.27"
       height="1.54">
      <feGaussianBlur
         inkscape:collect="always"
         stdDeviation="0.3375"
         id="feGaussianBlur4076" />
    </filter>
    <filter
       inkscape:collect="always"
       id="filter4078"
       x="-0.27"
       width="1.54"
       y="-0.27"
       height="1.54">
      <feGaussianBlur
         inkscape:collect="always"
         stdDeviation="0.3375"
         id="feGaussianBlur4080" />
    </filter>
    <filter
       inkscape:collect="always"
       id="filter4082"
       x="-0.054"
       width="1.108"
       y="-0.27"
       height="1.54">
      <feGaussianBlur
         inkscape:collect="always"
         stdDeviation="0.3375"
         id="feGaussianBlur4084" />
    </filter>
    <filter
       inkscape:collect="always"
       id="filter4096"
       x="-0.22"
       width="1.44"
       y="-0.22"
       height="1.44">
      <feGaussianBlur
         inkscape:collect="always"
         stdDeviation="0.18333333"
         id="feGaussianBlur4098" />
    </filter>
    <filter
       inkscape:collect="always"
       id="filter4100"
       x="-0.22"
       width="1.44"
       y="-0.22"
       height="1.44">
      <feGaussianBlur
         inkscape:collect="always"
         stdDeviation="0.275"
         id="feGaussianBlur4102" />
    </filter>
    <filter
       inkscape:collect="always"
       id="filter4104"
       x="-0.22"
       width="1.44"
       y="-0.22"
       height="1.44">
      <feGaussianBlur
         inkscape:collect="always"
         stdDeviation="0.275"
         id="feGaussianBlur4106" />
    </filter>
    <filter
       inkscape:collect="always"
       id="filter4108"
       x="-0.22"
       width="1.44"
       y="-0.22"
       height="1.44">
      <feGaussianBlur
         inkscape:collect="always"
         stdDeviation="0.275"
         id="feGaussianBlur4110" />
    </filter>
    <filter
       inkscape:collect="always"
       id="filter4112"
       x="-0.22"
       width="1.44"
       y="-0.22"
       height="1.44">
      <feGaussianBlur
         inkscape:collect="always"
         stdDeviation="0.275"
         id="feGaussianBlur4114" />
    </filter>
    <filter
       color-interpolation-filters="sRGB"
       inkscape:collect="always"
       id="filter6306"
       x="-0.06666667"
       width="1.1333333"
       y="-0.60000002"
       height="2.2">
      <feGaussianBlur
         inkscape:collect="always"
         stdDeviation="1"
         id="feGaussianBlur6308" />
    </filter>
    <filter
       color-interpolation-filters="sRGB"
       inkscape:collect="always"
       id="filter6294"
       x="-0.031666666"
       width="1.0633333"
       y="-0.56999999"
       height="2.1400001">
      <feGaussianBlur
         inkscape:collect="always"
         stdDeviation="0.475"
         id="feGaussianBlur6296" />
    </filter>
    <linearGradient
       inkscape:collect="always"
       xlink:href="#linearGradient10954-4"
       id="linearGradient4020-4"
       gradientUnits="userSpaceOnUse"
       gradientTransform="matrix(0.16968376,2.3939518e-4,-2.3776336e-4,0.17084857,-1.3446766,13.527816)"
       x1="141.31458"
       y1="237.28619"
       x2="141.31458"
       y2="57.029434" />
    <linearGradient
       id="linearGradient10954-4">
      <stop
         style="stop-color:#a4a4a4;stop-opacity:1;"
         offset="0"
         id="stop10956-8" />
      <stop
         style="stop-color:#cecece;stop-opacity:1"
         offset="1"
         id="stop10958-8" />
    </linearGradient>
  </defs>
  <sodipodi:namedview
     id="base"
     pagecolor="#ffffff"
     bordercolor="#666666"
     borderopacity="1.0"
     inkscape:pageopacity="0"
     inkscape:pageshadow="2"
     inkscape:zoom="1"
     inkscape:cx="8.4998349"
     inkscape:cy="-1.863396"
     inkscape:current-layer="layer1"
     showgrid="false"
     inkscape:document-units="px"
     inkscape:grid-bbox="true"
     inkscape:window-width="1366"
     inkscape:window-height="711"
     inkscape:window-x="0"
     inkscape:window-y="27"
     inkscape:window-maximized="1"
     showguides="true"
     inkscape:guide-bbox="true"
     inkscape:snap-bbox="true">
    <inkscape:grid
       type="xygrid"
       id="grid2982"
       empspacing="5"
       visible="true"
       enabled="true"
       snapvisiblegridlinesonly="true" />
  </sodipodi:namedview>
  <metadata
     id="metadata2990">
    <rdf:RDF>
      <cc:Work
         rdf:about="">
        <dc:format>image/svg+xml</dc:format>
        <dc:type
           rdf:resource="http://purl.org/dc/dcmitype/StillImage" />
        <dc:title />
      </cc:Work>
    </rdf:RDF>
  </metadata>
  <g
     id="layer1"
     inkscape:label="Layer 1"
     inkscape:groupmode="layer"
     transform="translate(0,-16)">
    <rect
       ry="0"
       y="52"
       x="6"
       height="4"
       width="36"
       id="rect6310"
       style="opacity:0.45;fill:#000000;fill-opacity:1;fill-rule:nonzero;stroke:none;filter:url(#filter6306)" />
    <rect
       ry="1"
       rx="0"
       y="53"
       x="6"
       height="2"
       width="36"
       id="rect6312"
       style="opacity:0.35;fill:#000000;fill-opacity:1;fill-rule:nonzero;stroke:none;filter:url(#filter6294)" />
    <path
       inkscape:connector-curvature="0"
       style="fill:#a4a4a4;fill-opacity:1;stroke:none;display:inline;enable-background:new"
       d="m 41,19.999998 c 2,0 3,3 3,4 0,-0.554 -1,-1 -1,-1 l -37.9999996,0 c 0,0 -1,0.446 -1,1 0,-1 1,-4 3,-4 z"
       id="path6314"
       sodipodi:nodetypes="ccssccc" />
    <path
       sodipodi:nodetypes="ccccccccc"
       id="path6316"
       d="m 6.0000004,21.999998 c 0,0 -2,0 -2,2 l 0,28 c 0,0 0,2 2,2 l 35.9999996,0 c 2,0 2,-2 2,-2 l 0,-28 c 0,-2 -2,-2 -2,-2 z"
       style="color:#000000;fill:url(#linearGradient4020-4);fill-opacity:1;fill-rule:nonzero;stroke:none;stroke-width:2;marker:none;visibility:visible;display:inline;overflow:visible;enable-background:accumulate"
       inkscape:connector-curvature="0" />
    <rect
       transform="matrix(0.999999,0.00141561,-0.00138697,0.99999904,0,0)"
       ry="0.87722546"
       rx="0.87199056"
       y="24.489498"
       x="6.564589"
       height="22.952982"
       width="34.970631"
       id="rect10538"
       style="color:#000000;fill:url(#radialGradient4014);fill-opacity:1;fill-rule:nonzero;stroke:none;stroke-width:2;marker:none;visibility:visible;display:inline;overflow:visible;enable-background:accumulate" />
    <path
       style="opacity:0.5;fill:#c4385c;fill-opacity:1;stroke:none"
       d="m 6.9997817,24 c -0.483079,0 -1.012535,0.761832 -1,1 L 6,47 c 4.7e-6,0.476957 0.516921,1 1,1 L 9.0002183,48 12,48 12,40 30,40 30,26 41,26 40.999782,24 9,24 z"
       id="rect3064"
       inkscape:connector-curvature="0"
       sodipodi:nodetypes="scssccccccccs" />
    <path
       style="opacity:0.4;fill:#000000;fill-opacity:1;stroke:none"
       d="m 7.0002184,24.000005 c -0.4830791,10e-7 -1.0125352,0.761832 -1,1 l 0,21.999995 c 0,0.476957 0.5169209,1 1,1 L 12,48 l 0,0 -0.01563,-8.046875 18,0 0,-12.999995 L 41,27 41,24 10.000218,24 z"
       id="path3849"
       inkscape:connector-curvature="0"
       sodipodi:nodetypes="scssccccccccs" />
    <path
       sodipodi:nodetypes="csccccccsccccc"
       inkscape:connector-curvature="0"
       transform="translate(0,16)"
       id="path3864"
       d="m 30,10 0,13 c 0,1 -1,1 -1,1 l -17,0 0,1 0,6 1,0 0,-6 16,0 c 2,0 2,-2 2,-2 l 0,-12 10,0 0,-1 z"
       style="fill:#e74d75;fill-opacity:1;stroke:none;filter:url(#filter3866)" />
    <path
       style="fill:#e74d75;fill-opacity:1;stroke:none"
       d="m 30,10 0,13 c 0,1 -1,1 -1,1 l -17,0 0,1 0,6 1,0 0,-6 16,0 c 2,0 2,-2 2,-2 l 0,-12 10,0 0,-1 z"
       id="path3059"
       transform="translate(0,16)"
       inkscape:connector-curvature="0"
       sodipodi:nodetypes="csccccccsccccc" />
    <rect
       style="fill:none;fill-opacity:1;stroke:none"
       id="rect4189"
       width="16.705399"
       height="23.776466"
       x="6.7175145"
       y="7.2529716"
       rx="0.87199056"
       ry="0.87722546"
       transform="translate(0,16)" />
    <rect
       y="35"
       x="-20"
       height="3"
       width="3"
       id="rect4014"
       style="opacity:0.5;fill:#ffffff;fill-opacity:1;stroke:none"
       transform="scale(-1,1)" />
    <rect
       y="31"
       x="13"
       height="3"
       width="3"
       id="rect3998"
       style="opacity:0.5;fill:#ffffff;fill-opacity:1;stroke:none" />
    <rect
       y="35"
       x="-16"
       height="3"
       width="3"
       id="rect4016"
       style="opacity:0.2;fill:#ffffff;fill-opacity:1;stroke:none"
       transform="scale(-1,1)" />
    <rect
       y="31"
       x="17.000002"
       height="3"
       width="3"
       id="rect4002"
       style="opacity:0.1;fill:#ffffff;fill-opacity:1;stroke:none" />
    <rect
       y="31"
       x="-28"
       height="3"
       width="3"
       id="rect4018"
       style="opacity:0.2;fill:#ffffff;fill-opacity:1;stroke:none"
       transform="scale(-1,1)" />
    <rect
       y="31"
       x="21.000002"
       height="3"
       width="3"
       id="rect4006"
       style="opacity:0.3;fill:#ffffff;fill-opacity:1;stroke:none" />
    <rect
       y="35"
       x="-24"
       height="3"
       width="3"
       id="rect4023"
       style="opacity:0.4;fill:#ffffff;fill-opacity:1;stroke:none"
       transform="scale(-1,1)" />
    <rect
       style="opacity:0.5;fill:#ffffff;fill-opacity:1;stroke:none"
       id="rect3954"
       width="15"
       height="3"
       x="13"
       y="26" />
    <path
       sodipodi:type="arc"
       style="fill:#ffffff;fill-opacity:1;stroke:none"
       id="path3956"
       sodipodi:cx="4"
       sodipodi:cy="20"
       sodipodi:rx="1"
       sodipodi:ry="1"
       d="m 5,20 c 0,0.552285 -0.4477153,1 -1,1 -0.5522847,0 -1,-0.447715 -1,-1 0,-0.552285 0.4477153,-1 1,-1 0.5522847,0 1,0.447715 1,1 z"
       transform="matrix(1.5,0,0,1.5,3.5,-1.5)" />
    <path
       transform="matrix(0.2,0,0,0.2,-4,21.4)"
       d="M 60,20.5 C 60,21.880712 58.880712,23 57.5,23 56.119288,23 55,21.880712 55,20.5 55,19.119288 56.119288,18 57.5,18 c 1.380712,0 2.5,1.119288 2.5,2.5 z"
       sodipodi:ry="2.5"
       sodipodi:rx="2.5"
       sodipodi:cy="20.5"
       sodipodi:cx="57.5"
       id="path3979"
       style="fill:#dd4814;fill-opacity:1;stroke:none"
       sodipodi:type="arc" />
    <path
       sodipodi:type="arc"
       style="fill:#ffffff;fill-opacity:1;stroke:none;filter:url(#filter4015);opacity:0.5"
       id="path4009"
       sodipodi:cx="57.5"
       sodipodi:cy="20.5"
       sodipodi:rx="2.5"
       sodipodi:ry="2.5"
       d="M 60,20.5 C 60,21.880712 58.880712,23 57.5,23 56.119288,23 55,21.880712 55,20.5 55,19.119288 56.119288,18 57.5,18 c 1.380712,0 2.5,1.119288 2.5,2.5 z"
       transform="matrix(0.2,0,0,0.2,-2.9887378,21.4)" />
    <path
       sodipodi:type="arc"
       style="fill:#dd4814;fill-opacity:1;stroke:none;filter:url(#filter4035)"
       id="path4029"
       sodipodi:cx="57.5"
       sodipodi:cy="20.5"
       sodipodi:rx="2.5"
       sodipodi:ry="2.5"
       d="M 60,20.5 C 60,21.880712 58.880712,23 57.5,23 56.119288,23 55,21.880712 55,20.5 55,19.119288 56.119288,18 57.5,18 c 1.380712,0 2.5,1.119288 2.5,2.5 z"
       transform="matrix(0.2,0,0,0.2,-3.9887378,21.4)" />
    <path
       transform="matrix(0.2,0,0,0.2,-3,21.4)"
       d="M 60,20.5 C 60,21.880712 58.880712,23 57.5,23 56.119288,23 55,21.880712 55,20.5 55,19.119288 56.119288,18 57.5,18 c 1.380712,0 2.5,1.119288 2.5,2.5 z"
       sodipodi:ry="2.5"
       sodipodi:rx="2.5"
       sodipodi:cy="20.5"
       sodipodi:cx="57.5"
       id="path4005"
       style="fill:#ffffff;fill-opacity:1;stroke:none;opacity:0.5"
       sodipodi:type="arc" />
    <path
       transform="matrix(0.2,0,0,0.2,-1.9887378,21.4)"
       d="M 60,20.5 C 60,21.880712 58.880712,23 57.5,23 56.119288,23 55,21.880712 55,20.5 55,19.119288 56.119288,18 57.5,18 c 1.380712,0 2.5,1.119288 2.5,2.5 z"
       sodipodi:ry="2.5"
       sodipodi:rx="2.5"
       sodipodi:cy="20.5"
       sodipodi:cx="57.5"
       id="path4019"
       style="fill:#ffffff;fill-opacity:1;stroke:none;filter:url(#filter4025);opacity:0.5"
       sodipodi:type="arc" />
    <path
       sodipodi:type="arc"
       style="fill:#ffffff;fill-opacity:1;stroke:none;opacity:0.5"
       id="path4007"
       sodipodi:cx="57.5"
       sodipodi:cy="20.5"
       sodipodi:rx="2.5"
       sodipodi:ry="2.5"
       d="M 60,20.5 C 60,21.880712 58.880712,23 57.5,23 56.119288,23 55,21.880712 55,20.5 55,19.119288 56.119288,18 57.5,18 c 1.380712,0 2.5,1.119288 2.5,2.5 z"
       transform="matrix(0.2,0,0,0.2,-2,21.4)" />
    <path
       style="opacity:0.5;fill:#ffffff;fill-opacity:1;stroke:none"
       d="m 8,32 c 0,-1 1,-1 1,-1 l 1,0 c 1,0 1,1 1,1 l 0,1 c 0,1 -1,1 -1,1 L 9,34 C 8,34 8,33 8,33 z"
       id="rect3922"
       inkscape:connector-curvature="0"
       sodipodi:nodetypes="ccccccccc" />
    <path
       style="opacity:0.3;fill:#ffffff;fill-opacity:1;stroke:none"
       d="m 9,35 1,0 c 1,0 1,1 1,1 l 0,1 c 0,1 -1,1 -1,1 l -1,0 c 0,0 -1,0 -1,-1 l 0,-1 c 0,0 0,-1 1,-1 z"
       id="rect3924"
       inkscape:connector-curvature="0"
       sodipodi:nodetypes="ccccccccc" />
    <path
       style="opacity:0.2;fill:#ffffff;fill-opacity:1;stroke:none"
       d="m 8,40 c 0,-1 1,-1 1,-1 l 1,0 c 1,0 1,1 1,1 l 0,1 c 0,1 -1,1 -1,1 L 9,42 C 8,42 8,40.974835 8,40.974835 z"
       id="rect3926"
       inkscape:connector-curvature="0"
       sodipodi:nodetypes="ccccccccc" />
    <path
       style="opacity:0.5;fill:#ffffff;fill-opacity:1;stroke:none"
       d="m 9,43 1,0 c 1,0 1,1 1,1 l 0,1 c 0,1 -1,1 -1,1 L 9.0156115,46 C 9.0156115,46 8,46 8,45 l 0,-1 c 0,0 0,-1 1,-1 z"
       id="rect3928"
       inkscape:connector-curvature="0"
       sodipodi:nodetypes="ccccccccc" />
    <path
       inkscape:connector-curvature="0"
       style="opacity:0.3;fill:url(#radialGradient3407);fill-opacity:1;stroke:none;display:inline;enable-background:new"
       d="M 30.115007,25.07117 40.895026,25 41,45.90916 21,46 z"
       id="path10590"
       sodipodi:nodetypes="ccccc" />
    <rect
       transform="scale(-1,1)"
       style="opacity:0.50000000000000000;fill:#ffffff;fill-opacity:1;stroke:none;filter:url(#filter4054)"
       id="rect3237"
       width="3"
       height="3"
       x="-20"
       y="35" />
    <rect
       style="opacity:0.50000000000000000;fill:#ffffff;fill-opacity:1;stroke:none;filter:url(#filter4058)"
       id="rect3239"
       width="3"
       height="3"
       x="13"
       y="31" />
    <rect
       transform="scale(-1,1)"
       style="opacity:0.20000000000000001;fill:#ffffff;fill-opacity:1;stroke:none;filter:url(#filter4062)"
       id="rect3241"
       width="3"
       height="3"
       x="-16"
       y="35" />
    <rect
       style="opacity:0.10000000000000001;fill:#ffffff;fill-opacity:1;stroke:none;filter:url(#filter4066)"
       id="rect3243"
       width="3"
       height="3"
       x="17.000002"
       y="31" />
    <rect
       transform="scale(-1,1)"
       style="opacity:0.20000000000000001;fill:#ffffff;fill-opacity:1;stroke:none;filter:url(#filter4070)"
       id="rect3245"
       width="3"
       height="3"
       x="-28"
       y="31" />
    <rect
       style="opacity:0.29999999999999999;fill:#ffffff;fill-opacity:1;stroke:none;filter:url(#filter4074)"
       id="rect3247"
       width="3"
       height="3"
       x="21.000002"
       y="31" />
    <rect
       transform="scale(-1,1)"
       style="opacity:0.40000000000000002;fill:#ffffff;fill-opacity:1;stroke:none;filter:url(#filter4078)"
       id="rect3249"
       width="3"
       height="3"
       x="-24"
       y="35" />
    <rect
       y="26"
       x="13"
       height="3"
       width="15"
       id="rect3251"
       style="opacity:0.50000000000000000;fill:#ffffff;fill-opacity:1;stroke:none;filter:url(#filter4082)" />
    <path
       transform="matrix(1.5,0,0,1.5,3.5,-1.5)"
       d="m 5,20 c 0,0.552285 -0.4477153,1 -1,1 -0.5522847,0 -1,-0.447715 -1,-1 0,-0.552285 0.4477153,-1 1,-1 0.5522847,0 1,0.447715 1,1 z"
       sodipodi:ry="1"
       sodipodi:rx="1"
       sodipodi:cy="20"
       sodipodi:cx="4"
       id="path4086"
       style="fill:#ffffff;fill-opacity:1;stroke:none;filter:url(#filter4096)"
       sodipodi:type="arc" />
    <path
       sodipodi:nodetypes="ccccccccc"
       inkscape:connector-curvature="0"
       id="path4088"
       d="m 8,32 c 0,-1 1,-1 1,-1 l 1,0 c 1,0 1,1 1,1 l 0,1 c 0,1 -1,1 -1,1 L 9,34 C 8,34 8,33 8,33 z"
       style="opacity:0.50000000000000000;fill:#ffffff;fill-opacity:1;stroke:none;filter:url(#filter4100)" />
    <path
       sodipodi:nodetypes="ccccccccc"
       inkscape:connector-curvature="0"
       id="path4090"
       d="m 9,35 1,0 c 1,0 1,1 1,1 l 0,1 c 0,1 -1,1 -1,1 l -1,0 c 0,0 -1,0 -1,-1 l 0,-1 c 0,0 0,-1 1,-1 z"
       style="opacity:0.29999999999999999;fill:#ffffff;fill-opacity:1;stroke:none;filter:url(#filter4104)" />
    <path
       sodipodi:nodetypes="ccccccccc"
       inkscape:connector-curvature="0"
       id="path4092"
       d="m 8,40 c 0,-1 1,-1 1,-1 l 1,0 c 1,0 1,1 1,1 l 0,1 c 0,1 -1,1 -1,1 L 9,42 C 8,42 8,40.974835 8,40.974835 z"
       style="opacity:0.20000000000000001;fill:#ffffff;fill-opacity:1;stroke:none;filter:url(#filter4108)" />
    <path
       sodipodi:nodetypes="ccccccccc"
       inkscape:connector-curvature="0"
       id="path4094"
       d="m 9,43 1,0 c 1,0 1,1 1,1 l 0,1 c 0,1 -1,1 -1,1 L 9.0156115,46 C 9.0156115,46 8,46 8,45 l 0,-1 c 0,0 0,-1 1,-1 z"
       style="opacity:0.50000000000000000;fill:#ffffff;fill-opacity:1;stroke:none;filter:url(#filter4112)" />
    <path
       inkscape:connector-curvature="0"
       sodipodi:nodetypes="ccccc"
       id="path10592"
       d="m 20.779029,25.016466 6,0 -4.486155,15.605426 -2.960354,-0.160917 z"
       style="opacity:0.3;fill:url(#radialGradient3404);fill-opacity:1;stroke:none;display:inline;enable-background:new" />
    <path
       inkscape:connector-curvature="0"
       id="path6318"
       d="m 6.8437504,23.999998 c -0.28125,0.04687 -0.84375,0.25 -0.84375,1 l 0,22 c -7.77e-4,0.556323 0.324108,0.99905 1,1 l 33.9999996,0 c 0,0 1,0 1,-1 l 0,-22 c 0,0 0,-1 -1,-1 l -33.9999996,0 c 0,0 -0.0625,-0.01563 -0.15625,0 z m 0.15625,1 33.9999996,0 0,22 -33.9999996,0 0,-22 z"
       style="color:#000000;fill:#999999;fill-opacity:1;fill-rule:nonzero;stroke:none;stroke-width:2;marker:none;visibility:visible;display:inline;overflow:visible;enable-background:accumulate" />
  </g>
</svg>
