<?xml version="1.0" encoding="UTF-8" standalone="no"?>
<!-- Created with Inkscape (http://www.inkscape.org/) -->

<svg
   xmlns:dc="http://purl.org/dc/elements/1.1/"
   xmlns:cc="http://creativecommons.org/ns#"
   xmlns:rdf="http://www.w3.org/1999/02/22-rdf-syntax-ns#"
   xmlns:svg="http://www.w3.org/2000/svg"
   xmlns="http://www.w3.org/2000/svg"
   xmlns:xlink="http://www.w3.org/1999/xlink"
   xmlns:sodipodi="http://sodipodi.sourceforge.net/DTD/sodipodi-0.dtd"
   xmlns:inkscape="http://www.inkscape.org/namespaces/inkscape"
   width="48"
   height="48"
   id="svg2985"
   version="1.1"
   inkscape:version="0.48.4 r9939"
   sodipodi:docname="unity-settings-additional.svg"
   inkscape:export-filename="/home/sam/design/icons/unity-tweak-tool/36/wm-settings-hotcorners.png"
   inkscape:export-xdpi="300"
   inkscape:export-ydpi="300">
  <defs
     id="defs2987">
    <linearGradient
       id="linearGradient4484">
      <stop
         id="stop4486"
         offset="0"
         style="stop-color:#bfb6b6;stop-opacity:1;" />
      <stop
         id="stop4488"
         offset="1"
         style="stop-color:#7f7f7f;stop-opacity:1;" />
    </linearGradient>
    <linearGradient
       id="linearGradient4195">
      <stop
         id="stop4197"
         offset="0"
         style="stop-color:#df5e28;stop-opacity:0.94117647;" />
      <stop
         id="stop4199"
         offset="1"
         style="stop-color:#1a1716;stop-opacity:0.941" />
    </linearGradient>
    <linearGradient
       inkscape:collect="always"
       id="linearGradient10938">
      <stop
         style="stop-color:#dadada;stop-opacity:1"
         offset="0"
         id="stop10940" />
      <stop
         style="stop-color:#f6f6f5;stop-opacity:1"
         offset="1"
         id="stop10942" />
    </linearGradient>
    <linearGradient
       inkscape:collect="always"
       id="linearGradient11438">
      <stop
         style="stop-color:#babdb6;stop-opacity:1;"
         offset="0"
         id="stop11440" />
      <stop
         style="stop-color:#4a4d46;stop-opacity:1"
         offset="1"
         id="stop11442" />
    </linearGradient>
    <linearGradient
       inkscape:collect="always"
       id="linearGradient10966">
      <stop
         style="stop-color:#ffffff;stop-opacity:1;"
         offset="0"
         id="stop10968" />
      <stop
         style="stop-color:#f0f0f0;stop-opacity:1"
         offset="1"
         id="stop10970" />
    </linearGradient>
    <linearGradient
       id="linearGradient11473">
      <stop
         id="stop4086"
         offset="0"
         style="stop-color:#333333;stop-opacity:1;" />
      <stop
         id="stop4084"
         offset="1"
         style="stop-color:#000000;stop-opacity:1;" />
    </linearGradient>
    <radialGradient
       inkscape:collect="always"
       xlink:href="#linearGradient12771"
       id="radialGradient12777"
       cx="144.16689"
       cy="129.17393"
       fx="144.16689"
       fy="129.17393"
       r="97.906487"
       gradientTransform="matrix(1.1657896,-0.05054328,0.0329754,0.74679303,-28.160936,39.99441)"
       gradientUnits="userSpaceOnUse" />
    <linearGradient
       inkscape:collect="always"
       id="linearGradient12771">
      <stop
         style="stop-color:#ffffff;stop-opacity:1;"
         offset="0"
         id="stop12773" />
      <stop
         style="stop-color:#ffffff;stop-opacity:0;"
         offset="1"
         id="stop12775" />
    </linearGradient>
    <radialGradient
       inkscape:collect="always"
       xlink:href="#linearGradient12771"
       id="radialGradient3521"
       cx="144.16689"
       cy="129.17393"
       fx="144.16689"
       fy="129.17393"
       r="97.906487"
       gradientTransform="matrix(1.1657896,-0.05054328,0.0329754,0.74679303,-28.160936,39.99441)"
       gradientUnits="userSpaceOnUse" />
    <radialGradient
       inkscape:collect="always"
       xlink:href="#linearGradient12771"
       id="radialGradient3529"
       cx="144.16689"
       cy="129.17393"
       fx="144.16689"
       fy="129.17393"
       r="97.906487"
       gradientTransform="matrix(1.1657896,-0.05054328,0.0329754,0.74679303,-28.160936,39.99441)"
       gradientUnits="userSpaceOnUse" />
    <radialGradient
       inkscape:collect="always"
       xlink:href="#linearGradient12771"
       id="radialGradient3537"
       cx="144.16689"
       cy="129.17393"
       fx="144.16689"
       fy="129.17393"
       r="97.906487"
       gradientTransform="matrix(1.1657896,-0.05054328,0.0329754,0.74679303,-28.160936,39.99441)"
       gradientUnits="userSpaceOnUse" />
    <radialGradient
       inkscape:collect="always"
       xlink:href="#linearGradient12771"
       id="radialGradient3545"
       cx="144.16689"
       cy="129.17393"
       fx="144.16689"
       fy="129.17393"
       r="97.906487"
       gradientTransform="matrix(1.1657896,-0.05054328,0.0329754,0.74679303,-28.160936,39.99441)"
       gradientUnits="userSpaceOnUse" />
    <radialGradient
       inkscape:collect="always"
       xlink:href="#linearGradient12771"
       id="radialGradient3553"
       cx="144.16689"
       cy="129.17393"
       fx="144.16689"
       fy="129.17393"
       r="97.906487"
       gradientTransform="matrix(1.1657896,-0.05054328,0.0329754,0.74679303,-28.160936,39.99441)"
       gradientUnits="userSpaceOnUse" />
    <radialGradient
       inkscape:collect="always"
       xlink:href="#linearGradient12771"
       id="radialGradient3561"
       cx="144.16689"
       cy="129.17393"
       fx="144.16689"
       fy="129.17393"
       r="97.906487"
       gradientTransform="matrix(1.1657896,-0.05054328,0.0329754,0.74679303,-28.160936,39.99441)"
       gradientUnits="userSpaceOnUse" />
    <radialGradient
       inkscape:collect="always"
       xlink:href="#linearGradient12771"
       id="radialGradient3569"
       cx="144.16689"
       cy="129.17393"
       fx="144.16689"
       fy="129.17393"
       r="97.906487"
       gradientTransform="matrix(1.1657896,-0.05054328,0.0329754,0.74679303,-28.160936,39.99441)"
       gradientUnits="userSpaceOnUse" />
    <radialGradient
       inkscape:collect="always"
       xlink:href="#linearGradient12771"
       id="radialGradient3577"
       cx="144.16689"
       cy="129.17393"
       fx="144.16689"
       fy="129.17393"
       r="97.906487"
       gradientTransform="matrix(1.1657896,-0.05054328,0.0329754,0.74679303,-28.160936,39.99441)"
       gradientUnits="userSpaceOnUse" />
    <radialGradient
       inkscape:collect="always"
       xlink:href="#linearGradient12771"
       id="radialGradient3585"
       cx="144.16689"
       cy="129.17393"
       fx="144.16689"
       fy="129.17393"
       r="97.906487"
       gradientTransform="matrix(1.1657896,-0.05054328,0.0329754,0.74679303,-28.160936,39.99441)"
       gradientUnits="userSpaceOnUse" />
    <radialGradient
       inkscape:collect="always"
       xlink:href="#linearGradient12771"
       id="radialGradient3593"
       cx="144.16689"
       cy="129.17393"
       fx="144.16689"
       fy="129.17393"
       r="97.906487"
       gradientTransform="matrix(1.1657896,-0.05054328,0.0329754,0.74679303,-28.160936,39.99441)"
       gradientUnits="userSpaceOnUse" />
    <radialGradient
       inkscape:collect="always"
       xlink:href="#linearGradient12771"
       id="radialGradient3601"
       cx="144.16689"
       cy="129.17393"
       fx="144.16689"
       fy="129.17393"
       r="97.906487"
       gradientTransform="matrix(1.1657896,-0.05054328,0.0329754,0.74679303,-28.160936,39.99441)"
       gradientUnits="userSpaceOnUse" />
    <radialGradient
       r="97.906487"
       fy="129.17393"
       fx="144.16689"
       cy="129.17393"
       cx="144.16689"
       gradientTransform="matrix(1.1657896,-0.05054328,0.0329754,0.74679303,-28.160936,39.99441)"
       gradientUnits="userSpaceOnUse"
       id="radialGradient3665"
       xlink:href="#linearGradient12771"
       inkscape:collect="always" />
    <radialGradient
       inkscape:collect="always"
       xlink:href="#linearGradient10966"
       id="radialGradient3348"
       gradientUnits="userSpaceOnUse"
       gradientTransform="matrix(0.17091321,2.3948575e-4,-1.885288e-4,0.1345469,-0.82414948,18.425831)"
       cx="149.56461"
       cy="258.76071"
       fx="149.56461"
       fy="258.76071"
       r="116.23129" />
    <linearGradient
       inkscape:collect="always"
       xlink:href="#linearGradient10938"
       id="linearGradient3355"
       gradientUnits="userSpaceOnUse"
       gradientTransform="matrix(0.17601918,0,0,0.17980627,-1.587065,12.337364)"
       x1="134.83331"
       y1="68.529434"
       x2="171.90327"
       y2="206.8764" />
    <linearGradient
       inkscape:collect="always"
       xlink:href="#linearGradient11438"
       id="linearGradient3357"
       gradientUnits="userSpaceOnUse"
       x1="184.9511"
       y1="149.20987"
       x2="185.07069"
       y2="236.39699"
       gradientTransform="matrix(0.17980539,0,0,0.17980539,-0.63860179,10.853331)" />
    <radialGradient
       inkscape:collect="always"
       xlink:href="#linearGradient12771"
       id="radialGradient3387"
       gradientUnits="userSpaceOnUse"
       gradientTransform="matrix(1.1657896,-0.05054328,0.0329754,0.74679303,-28.160936,39.99441)"
       cx="144.16689"
       cy="129.17393"
       fx="144.16689"
       fy="129.17393"
       r="97.906487" />
    <radialGradient
       inkscape:collect="always"
       xlink:href="#linearGradient4195-5"
       id="radialGradient3889"
       gradientUnits="userSpaceOnUse"
       gradientTransform="matrix(0.20312507,-0.08812329,0.12363256,0.3357866,-42.385541,-18.859714)"
       cx="189.70168"
       cy="230.10397"
       fx="189.70168"
       fy="230.10397"
       r="108.51468" />
    <linearGradient
       id="linearGradient4195-5">
      <stop
         id="stop4197-5"
         offset="0"
         style="stop-color:#ff5200;stop-opacity:1;" />
      <stop
         id="stop4199-9"
         offset="1"
         style="stop-color:#1a1716;stop-opacity:0.941" />
    </linearGradient>
    <radialGradient
       r="108.51468"
       fy="230.10397"
       fx="189.70168"
       cy="230.10397"
       cx="189.70168"
       gradientTransform="matrix(0.20312507,-0.08812329,0.12363256,0.3357866,-42.94693,-18.046408)"
       gradientUnits="userSpaceOnUse"
       id="radialGradient3099"
       xlink:href="#linearGradient4195-5"
       inkscape:collect="always" />
    <radialGradient
       inkscape:collect="always"
       xlink:href="#linearGradient4788"
       id="radialGradient3407"
       gradientUnits="userSpaceOnUse"
       gradientTransform="matrix(0.44957215,0.00204231,0.00152998,-0.30471707,-131.03052,54.029382)"
       cx="326.0206"
       cy="58"
       fx="326.0206"
       fy="58"
       r="12.5" />
    <linearGradient
       id="linearGradient4788"
       inkscape:collect="always">
      <stop
         id="stop4790"
         offset="0"
         style="stop-color:#ffffff;stop-opacity:1;" />
      <stop
         id="stop4792"
         offset="1"
         style="stop-color:#ffffff;stop-opacity:0;" />
    </linearGradient>
    <radialGradient
       inkscape:collect="always"
       xlink:href="#linearGradient4788"
       id="radialGradient3404"
       gradientUnits="userSpaceOnUse"
       gradientTransform="matrix(-1.8243761,0.00876531,-0.00620867,-1.3078007,609.52907,98.067298)"
       cx="326.0206"
       cy="58"
       fx="326.0206"
       fy="58"
       r="12.5" />
    <radialGradient
       r="12.5"
       fy="58"
       fx="326.0206"
       cy="58"
       cx="326.0206"
       gradientTransform="matrix(-0.43437559,0.00208698,-0.00147825,-0.31138136,151.32309,54.396989)"
       gradientUnits="userSpaceOnUse"
       id="radialGradient3092"
       xlink:href="#linearGradient4788"
       inkscape:collect="always" />
    <radialGradient
       inkscape:collect="always"
       xlink:href="#linearGradient4788"
       id="radialGradient4370"
       gradientUnits="userSpaceOnUse"
       gradientTransform="matrix(-0.43437559,0.00208698,-0.00147825,-0.31138136,163.02309,54.896987)"
       cx="326.0206"
       cy="58"
       fx="326.0206"
       fy="58"
       r="12.5" />
    <radialGradient
       inkscape:collect="always"
       xlink:href="#linearGradient4788"
       id="radialGradient4372"
       gradientUnits="userSpaceOnUse"
       gradientTransform="matrix(-0.44957215,0.00204231,-0.00152998,-0.30471707,169.53052,54.52938)"
       cx="326.0206"
       cy="58"
       fx="326.0206"
       fy="58"
       r="12.5" />
    <radialGradient
       inkscape:collect="always"
       xlink:href="#linearGradient4788"
       id="radialGradient4378"
       gradientUnits="userSpaceOnUse"
       gradientTransform="matrix(-0.43437559,0.00208698,-0.00147825,-0.31138136,173.02309,54.896987)"
       cx="326.0206"
       cy="58"
       fx="326.0206"
       fy="58"
       r="12.5" />
    <radialGradient
       inkscape:collect="always"
       xlink:href="#linearGradient4788"
       id="radialGradient4380"
       gradientUnits="userSpaceOnUse"
       gradientTransform="matrix(-0.44957215,0.00204231,-0.00152998,-0.30471707,179.53052,54.52938)"
       cx="326.0206"
       cy="58"
       fx="326.0206"
       fy="58"
       r="12.5" />
    <radialGradient
       inkscape:collect="always"
       xlink:href="#linearGradient11473"
       id="radialGradient4394"
       cx="14"
       cy="42.666668"
       fx="14"
       fy="42.666668"
       r="4"
       gradientTransform="matrix(2.25,2.3630469e-7,-1.312804e-7,1.2500002,-19.499995,-11.333348)"
       gradientUnits="userSpaceOnUse" />
    <radialGradient
       inkscape:collect="always"
       xlink:href="#linearGradient11473"
       id="radialGradient4396"
       cx="24"
       cy="42.666668"
       fx="24"
       fy="42.666668"
       r="4"
       gradientTransform="matrix(2.25,2.3630478e-7,-1.3128046e-7,1.2500003,-29.999995,-11.333354)"
       gradientUnits="userSpaceOnUse" />
    <radialGradient
       inkscape:collect="always"
       xlink:href="#linearGradient11473"
       id="radialGradient4398"
       cx="34"
       cy="42.666668"
       fx="34"
       fy="42.666668"
       r="4"
       gradientTransform="matrix(2.2500001,-8.3078572e-8,4.6154766e-8,1.2500002,-40.500004,-11.333342)"
       gradientUnits="userSpaceOnUse" />
    <radialGradient
       inkscape:collect="always"
       xlink:href="#linearGradient4788"
       id="radialGradient4456"
       gradientUnits="userSpaceOnUse"
       gradientTransform="matrix(-0.43437559,0.00208698,-0.00147825,-0.31138136,163.32309,54.396989)"
       cx="326.0206"
       cy="58"
       fx="326.0206"
       fy="58"
       r="12.5" />
    <radialGradient
       inkscape:collect="always"
       xlink:href="#linearGradient4788"
       id="radialGradient4458"
       gradientUnits="userSpaceOnUse"
       gradientTransform="matrix(-0.44957215,0.00204231,-0.00152998,-0.30471707,169.83052,54.029382)"
       cx="326.0206"
       cy="58"
       fx="326.0206"
       fy="58"
       r="12.5" />
    <radialGradient
       inkscape:collect="always"
       xlink:href="#linearGradient4788"
       id="radialGradient4464"
       gradientUnits="userSpaceOnUse"
       gradientTransform="matrix(-0.43437559,0.00208698,-0.00147825,-0.31138136,175.32309,54.396989)"
       cx="326.0206"
       cy="58"
       fx="326.0206"
       fy="58"
       r="12.5" />
    <radialGradient
       inkscape:collect="always"
       xlink:href="#linearGradient4788"
       id="radialGradient4466"
       gradientUnits="userSpaceOnUse"
       gradientTransform="matrix(-0.44957215,0.00204231,-0.00152998,-0.30471707,181.83052,54.029382)"
       cx="326.0206"
       cy="58"
       fx="326.0206"
       fy="58"
       r="12.5" />
    <filter
       inkscape:collect="always"
       id="filter4472">
      <feGaussianBlur
         inkscape:collect="always"
         stdDeviation="0.17"
         id="feGaussianBlur4474" />
    </filter>
    <filter
       inkscape:collect="always"
       id="filter4476">
      <feGaussianBlur
         inkscape:collect="always"
         stdDeviation="0.17"
         id="feGaussianBlur4478" />
    </filter>
    <filter
       inkscape:collect="always"
       id="filter4480">
      <feGaussianBlur
         inkscape:collect="always"
         stdDeviation="0.17"
         id="feGaussianBlur4482" />
    </filter>
    <radialGradient
       inkscape:collect="always"
       xlink:href="#linearGradient4788"
       id="radialGradient4496"
       gradientUnits="userSpaceOnUse"
       gradientTransform="matrix(0.43437559,0.00208698,0.00147825,-0.31138136,-124.52309,54.396989)"
       cx="326.0206"
       cy="58"
       fx="326.0206"
       fy="58"
       r="12.5" />
    <linearGradient
       inkscape:collect="always"
       xlink:href="#linearGradient10954"
       id="linearGradient4020"
       gradientUnits="userSpaceOnUse"
       gradientTransform="matrix(0.16968376,2.3939518e-4,-2.3776336e-4,0.17084857,-1.344677,13.527818)"
       x1="141.31458"
       y1="237.28619"
       x2="141.31458"
       y2="57.029434" />
    <linearGradient
       inkscape:collect="always"
       id="linearGradient10954">
      <stop
         style="stop-color:#909090;stop-opacity:1;"
         offset="0"
         id="stop10956" />
      <stop
         style="stop-color:#cecece;stop-opacity:1"
         offset="1"
         id="stop10958" />
    </linearGradient>
    <filter
       color-interpolation-filters="sRGB"
       inkscape:collect="always"
       id="filter11490-5-0-0"
       x="-0.10682371"
       width="1.2136474"
       y="-1.3517308"
       height="3.7034614">
      <feGaussianBlur
         inkscape:collect="always"
         stdDeviation="1.8304688"
         id="feGaussianBlur11492-5-8-4" />
    </filter>
    <filter
       color-interpolation-filters="sRGB"
       inkscape:collect="always"
       id="filter11472-2-8-3"
       x="-0.051793315"
       width="1.1035866"
       y="-0.6553846"
       height="2.3107691">
      <feGaussianBlur
         inkscape:collect="always"
         stdDeviation="0.8875"
         id="feGaussianBlur11474-3-4-9" />
    </filter>
    <linearGradient
       inkscape:collect="always"
       xlink:href="#linearGradient10954"
       id="linearGradient3911"
       gradientUnits="userSpaceOnUse"
       gradientTransform="matrix(0.16968376,2.3939518e-4,-2.3776336e-4,0.17084857,-1.3446769,15.527818)"
       x1="141.31458"
       y1="237.28619"
       x2="141.31458"
       y2="57.029434" />
    <filter
       inkscape:collect="always"
       id="filter3947">
      <feGaussianBlur
         inkscape:collect="always"
         stdDeviation="0.6976563"
         id="feGaussianBlur3949" />
    </filter>
    <filter
       inkscape:collect="always"
       id="filter4076">
      <feGaussianBlur
         inkscape:collect="always"
         stdDeviation="0.6851563"
         id="feGaussianBlur4078" />
    </filter>
    <filter
       inkscape:collect="always"
       id="filter4080">
      <feGaussianBlur
         inkscape:collect="always"
         stdDeviation="0.18000002"
         id="feGaussianBlur4082" />
    </filter>
  </defs>
  <sodipodi:namedview
     id="base"
     pagecolor="#ffffff"
     bordercolor="#666666"
     borderopacity="1.0"
     inkscape:pageopacity="0"
     inkscape:pageshadow="2"
     inkscape:zoom="1"
     inkscape:cx="25.123872"
     inkscape:cy="25.232532"
     inkscape:current-layer="layer1"
     showgrid="false"
     inkscape:document-units="px"
     inkscape:grid-bbox="true"
     inkscape:window-width="1366"
     inkscape:window-height="709"
     inkscape:window-x="0"
     inkscape:window-y="27"
     inkscape:window-maximized="1"
     showguides="true"
     inkscape:guide-bbox="true">
    <inkscape:grid
       type="xygrid"
       id="grid2982"
       empspacing="5"
       visible="true"
       enabled="true"
       snapvisiblegridlinesonly="true" />
  </sodipodi:namedview>
  <metadata
     id="metadata2990">
    <rdf:RDF>
      <cc:Work
         rdf:about="">
        <dc:format>image/svg+xml</dc:format>
        <dc:type
           rdf:resource="http://purl.org/dc/dcmitype/StillImage" />
        <dc:title></dc:title>
      </cc:Work>
    </rdf:RDF>
  </metadata>
  <g
     id="layer1"
     inkscape:label="Layer 1"
     inkscape:groupmode="layer"
     transform="translate(0,-16)">
    <path
       id="path3099"
       d="m 5.84375,23.999998 c -0.9942021,-0.0014 -1.811116,0.787048 -1.8125,1.78125 L 4,54.156248 c -0.0014,0.994202 0.7870479,1.779847 1.78125,1.78125 l 36.375,0.0625 c 0.994202,0.0014 1.811116,-0.787048 1.8125,-1.78125 L 44,25.843748 c 0.0014,-0.994202 -0.787048,-1.779847 -1.78125,-1.78125 l -36.375,-0.0625 z m 3.5,13 5.3125,0 c 0.62854,0 1.34375,0.690866 1.34375,1.3125 l 0,3.375 c 0,0.621634 -0.71521,1.3125 -1.34375,1.3125 l -5.3125,0 C 8.71521,42.999998 8,42.309132 8,41.687498 l 0,-3.375 c 0,-0.621634 0.71521,-1.3125 1.34375,-1.3125 z m 12,0 5.3125,0 c 0.62854,0 1.34375,0.690866 1.34375,1.3125 l 0,3.375 c 0,0.621634 -0.71521,1.3125 -1.34375,1.3125 l -5.3125,0 C 20.71521,42.999998 20,42.309132 20,41.687498 l 0,-3.375 c 0,-0.621634 0.71521,-1.3125 1.34375,-1.3125 z m 12,0 5.3125,0 c 0.62854,0 1.34375,0.690866 1.34375,1.3125 l 0,3.375 c 0,0.621634 -0.71521,1.3125 -1.34375,1.3125 l -5.3125,0 C 32.71521,42.999998 32,42.309132 32,41.687498 l 0,-3.375 c 0,-0.621634 0.71521,-1.3125 1.34375,-1.3125 z"
       style="color:#000000;fill:#000000;fill-opacity:1;fill-rule:nonzero;stroke:none;stroke-width:2;marker:none;visibility:visible;display:inline;overflow:visible;enable-background:accumulate;opacity:0.80000000000000004;filter:url(#filter4080)"
       inkscape:connector-curvature="0" />
    <g
       id="g3990"
       transform="translate(0,2)">
      <rect
         transform="matrix(0.9216359,0,0,1,2.4807384,-0.24883795)"
         ry="1.625"
         rx="1.7631692"
         y="51.605713"
         x="3.4375"
         height="3.25"
         width="41.125"
         id="rect11476"
         style="color:#000000;fill:#000000;fill-opacity:1;fill-rule:nonzero;stroke:none;stroke-width:1;marker:none;visibility:visible;display:inline;overflow:visible;filter:url(#filter11490-5-0-0);enable-background:accumulate" />
      <rect
         transform="matrix(0.92541589,0,0,1.0652463,1.4646861,-3.8551008)"
         style="color:#000000;fill:#000000;fill-opacity:1;fill-rule:nonzero;stroke:none;stroke-width:1;marker:none;visibility:visible;display:inline;overflow:visible;filter:url(#filter11472-2-8-3);enable-background:accumulate"
         id="rect11446"
         width="41.125"
         height="3.25"
         x="4.4374099"
         y="51.730713"
         rx="1.7559673"
         ry="1.5254687" />
    </g>
    <path
       sodipodi:nodetypes="sssssssss"
       inkscape:connector-curvature="0"
       id="path3012"
       d="m 8,41.681316 c 0,0.621634 0.704793,1.318682 1.333333,1.318682 1.333334,0 4,0 5.333333,0 0.62854,0 1.333334,-0.697048 1.333334,-1.318682 0,-1.318682 0,-2.043954 0,-3.362636 0,-0.621634 -0.704794,-1.318682 -1.333334,-1.318682 -1.333333,0 -3.999999,0 -5.333333,0 C 8.704793,36.999998 8,37.697046 8,38.31868 c 0,1.318682 0,2.043954 0,3.362636 z"
       style="fill:url(#radialGradient4394);fill-opacity:1;stroke:none" />
    <path
       sodipodi:nodetypes="sssssssss"
       inkscape:connector-curvature="0"
       id="path4253"
       d="m 20,41.681316 c 0,0.621634 0.704793,1.318682 1.333333,1.318682 1.333334,0 4,0 5.333333,0 0.62854,0 1.333334,-0.697048 1.333334,-1.318682 0,-1.318682 0,-2.043954 0,-3.362636 0,-0.621634 -0.704794,-1.318682 -1.333334,-1.318682 -1.333333,0 -3.999999,0 -5.333333,0 -0.62854,0 -1.333333,0.697048 -1.333333,1.318682 0,1.318682 0,2.043954 0,3.362636 z"
       style="fill:url(#radialGradient4396);fill-opacity:1.0;stroke:none" />
    <path
       style="fill:url(#radialGradient4398);fill-opacity:1;stroke:none"
       d="m 32,41.681316 c 0,0.621634 0.704793,1.318682 1.333333,1.318682 1.333334,0 4,0 5.333333,0 0.62854,0 1.333334,-0.697048 1.333334,-1.318682 0,-1.318682 0,-2.043954 0,-3.362636 0,-0.621634 -0.704794,-1.318682 -1.333334,-1.318682 -1.333333,0 -3.999999,0 -5.333333,0 -0.62854,0 -1.333333,0.697048 -1.333333,1.318682 0,1.318682 0,2.043954 0,3.362636 z"
       id="path4249"
       inkscape:connector-curvature="0"
       sodipodi:nodetypes="sssssssss" />
    <path
       inkscape:connector-curvature="0"
       style="color:#000000;fill:#000000;fill-opacity:1;fill-rule:nonzero;stroke:none;stroke-width:2;marker:none;visibility:visible;display:inline;overflow:visible;enable-background:accumulate;filter:url(#filter4076)"
       d="M 8,30 C 7.0057979,29.9986 6.188884,30.787048 6.1875,31.78125 l 0.03125,16.4375 C 6.21735,49.212952 7.0057979,49.998597 8,50 L 39.1875,49.78125 C 40.181702,49.78265 40.998616,48.994202 41,48 l 0,-16 c 0.0014,-0.994202 -0.787048,-1.779847 -1.78125,-1.78125 z m 1.34375,6.999998 5.3125,0 c 0.62854,0 1.34375,0.690866 1.34375,1.3125 l 0,3.375 c 0,0.621634 -0.71521,1.3125 -1.34375,1.3125 l -5.3125,0 C 8.71521,42.999998 8,42.309132 8,41.687498 l 0,-3.375 c 0,-0.621634 0.71521,-1.3125 1.34375,-1.3125 z m 12,0 5.3125,0 c 0.62854,0 1.34375,0.690866 1.34375,1.3125 l 0,3.375 c 0,0.621634 -0.71521,1.3125 -1.34375,1.3125 l -5.3125,0 C 20.71521,42.999998 20,42.309132 20,41.687498 l 0,-3.375 c 0,-0.621634 0.71521,-1.3125 1.34375,-1.3125 z m 12,0 5.3125,0 c 0.62854,0 1.34375,0.690866 1.34375,1.3125 l 0,3.375 c 0,0.621634 -0.71521,1.3125 -1.34375,1.3125 l -5.3125,0 C 32.71521,42.999998 32,42.309132 32,41.687498 l 0,-3.375 c 0,-0.621634 0.71521,-1.3125 1.34375,-1.3125 z"
       id="path3941"
       sodipodi:nodetypes="cccccccccsssssssssssssssssssssssssss" />
    <path
       style="color:#000000;fill:url(#linearGradient3911);fill-opacity:1;fill-rule:nonzero;stroke:none;stroke-width:2;marker:none;visibility:visible;display:inline;overflow:visible;enable-background:accumulate"
       d="m 5.84375,23.999998 c -0.9942021,-0.0014 -1.811116,0.787048 -1.8125,1.78125 L 4,54.156248 c -0.0014,0.994202 0.7870479,1.779847 1.78125,1.78125 l 36.375,0.0625 c 0.994202,0.0014 1.811116,-0.787048 1.8125,-1.78125 L 44,25.843748 c 0.0014,-0.994202 -0.787048,-1.779847 -1.78125,-1.78125 l -36.375,-0.0625 z m 3.5,13 5.3125,0 c 0.62854,0 1.34375,0.690866 1.34375,1.3125 l 0,3.375 c 0,0.621634 -0.71521,1.3125 -1.34375,1.3125 l -5.3125,0 C 8.71521,42.999998 8,42.309132 8,41.687498 l 0,-3.375 c 0,-0.621634 0.71521,-1.3125 1.34375,-1.3125 z m 12,0 5.3125,0 c 0.62854,0 1.34375,0.690866 1.34375,1.3125 l 0,3.375 c 0,0.621634 -0.71521,1.3125 -1.34375,1.3125 l -5.3125,0 C 20.71521,42.999998 20,42.309132 20,41.687498 l 0,-3.375 c 0,-0.621634 0.71521,-1.3125 1.34375,-1.3125 z m 12,0 5.3125,0 c 0.62854,0 1.34375,0.690866 1.34375,1.3125 l 0,3.375 c 0,0.621634 -0.71521,1.3125 -1.34375,1.3125 l -5.3125,0 C 32.71521,42.999998 32,42.309132 32,41.687498 l 0,-3.375 c 0,-0.621634 0.71521,-1.3125 1.34375,-1.3125 z"
       id="rect10524"
       inkscape:connector-curvature="0" />
  </g>
</svg>
