<?xml version="1.0" encoding="UTF-8" standalone="no"?>
<!-- Created with Inkscape (http://www.inkscape.org/) -->

<svg
   xmlns:dc="http://purl.org/dc/elements/1.1/"
   xmlns:cc="http://creativecommons.org/ns#"
   xmlns:rdf="http://www.w3.org/1999/02/22-rdf-syntax-ns#"
   xmlns:svg="http://www.w3.org/2000/svg"
   xmlns="http://www.w3.org/2000/svg"
   xmlns:sodipodi="http://sodipodi.sourceforge.net/DTD/sodipodi-0.dtd"
   xmlns:inkscape="http://www.inkscape.org/namespaces/inkscape"
   width="36"
   height="36"
   id="svg2985"
   version="1.1"
   inkscape:version="0.48.4 r9939"
   sodipodi:docname="desktop-settings-security-dark_36.svg">
  <defs
     id="defs2987" />
  <sodipodi:namedview
     id="base"
     pagecolor="#777777"
     bordercolor="#666666"
     borderopacity="1.0"
     inkscape:pageopacity="0.46666667"
     inkscape:pageshadow="2"
     inkscape:zoom="31.112698"
     inkscape:cx="16.646259"
     inkscape:cy="16.844192"
     inkscape:current-layer="layer1"
     showgrid="true"
     inkscape:document-units="px"
     inkscape:grid-bbox="true"
     inkscape:window-width="1301"
     inkscape:window-height="744"
     inkscape:window-x="65"
     inkscape:window-y="24"
     inkscape:window-maximized="1"
     showguides="true"
     inkscape:guide-bbox="true">
    <inkscape:grid
       type="xygrid"
       id="grid2982"
       empspacing="5"
       visible="true"
       enabled="true"
       snapvisiblegridlinesonly="true" />
  </sodipodi:namedview>
  <metadata
     id="metadata2990">
    <rdf:RDF>
      <cc:Work
         rdf:about="">
        <dc:format>image/svg+xml</dc:format>
        <dc:type
           rdf:resource="http://purl.org/dc/dcmitype/StillImage" />
        <dc:title />
      </cc:Work>
    </rdf:RDF>
  </metadata>
  <g
     id="layer1"
     inkscape:label="Layer 1"
     inkscape:groupmode="layer"
     transform="translate(0,-28)">
    <path
       style="font-size:medium;font-style:normal;font-variant:normal;font-weight:normal;font-stretch:normal;text-indent:0;text-align:start;text-decoration:none;line-height:normal;letter-spacing:normal;word-spacing:normal;text-transform:none;direction:ltr;block-progression:tb;writing-mode:lr-tb;text-anchor:start;baseline-shift:baseline;color:#000000;fill:#333333;fill-opacity:1;stroke:none;stroke-width:2;marker:none;visibility:visible;display:inline;overflow:visible;enable-background:accumulate;font-family:Sans;-inkscape-font-specification:Sans"
       d="m 6,33 c -2.1987028,0 -4,1.801297 -4,4 l 0,15 c 0,2.198703 1.8012972,4 4,4 l 24,0 c 2.198703,0 4,-1.801297 4,-4 l 0,-15 c 0,-2.198703 -1.801297,-4 -4,-4 z m 0,2 24,0 c 1.125297,0 2,0.874703 2,2 l 0,15 c 0,1.125297 -0.874703,2 -2,2 L 6,54 C 4.8747028,54 4,53.125297 4,52 L 4,37 c 0,-1.125297 0.8747028,-2 2,-2 z"
       id="rect2984"
       inkscape:connector-curvature="0"
       sodipodi:nodetypes="ssssssssssssssssss" />
    <g
       id="g3769"
       transform="matrix(1.0769231,0,0,1.0769231,0.76944578,1.4615371)">
      <g
         style="fill:#333333;fill-opacity:1;display:inline"
         id="g4211"
         transform="translate(-12,-244)"
         inkscape:label="lock" />
      <path
         style="color:#bebebe;fill:#333333;fill-opacity:1;fill-rule:nonzero;stroke:none;stroke-width:2;marker:none;visibility:visible;display:inline;overflow:visible"
         d="m 16,10 c -1.771215,0 -3,1.228784 -3,3 l 0,2 c 0,0 -2,0 -2,2 l 0,5 c 0,2 2,2 2,2 l 10,0 c 0,0 2,0 2,-2 l 0,-5 c 0,-2 -2,-2 -2,-2 l 0,-2 c 0,-1.771215 -1.228785,-3 -3,-3 z m 0,2 4,0 c 0.615246,0 1,0.384753 1,1 l 0,2 -6,0 0,-2 c 0,-0.615246 0.384754,-1 1,-1 z m 2,4 c 1.104569,0 2,0.895431 2,2 0,0.65798 -0.322087,1.229261 -0.8125,1.59375 L 20,22 16,22 16.8125,19.59375 C 16.322087,19.229261 16,18.65798 16,18 c 0,-1.104569 0.895431,-2 2,-2 z"
         transform="matrix(0.92857141,0,0,0.92857141,-0.71448535,24.642858)"
         id="path4215"
         inkscape:connector-curvature="0"
         sodipodi:nodetypes="sscssccsscssssssccssssccccss" />
    </g>
    <path
       style="fill:#333333;fill-opacity:1;stroke:none"
       d="m 8,58 c 0,0 0,-1 1,-1 1,0 15.333333,0 18,0 1,0 1,1 1,1 0,0 0,1 -1,1 -2.666667,0 -17,0 -18,0 -1,0 -1,-1 -1,-1 z"
       id="path2987"
       inkscape:connector-curvature="0"
       sodipodi:nodetypes="ccscscc" />
  </g>
</svg>
