<?xml version="1.0" encoding="UTF-8" standalone="no"?>
<!-- Created with Inkscape (http://www.inkscape.org/) -->

<svg
   xmlns:dc="http://purl.org/dc/elements/1.1/"
   xmlns:cc="http://creativecommons.org/ns#"
   xmlns:rdf="http://www.w3.org/1999/02/22-rdf-syntax-ns#"
   xmlns:svg="http://www.w3.org/2000/svg"
   xmlns="http://www.w3.org/2000/svg"
   xmlns:sodipodi="http://sodipodi.sourceforge.net/DTD/sodipodi-0.dtd"
   xmlns:inkscape="http://www.inkscape.org/namespaces/inkscape"
   width="36"
   height="36"
   id="svg2985"
   version="1.1"
   inkscape:version="0.48.4 r9939"
   sodipodi:docname="desktop-settings-light_36.svg">
  <defs
     id="defs2987" />
  <sodipodi:namedview
     id="base"
     pagecolor="#777777"
     bordercolor="#666666"
     borderopacity="1.0"
     inkscape:pageopacity="0.46666667"
     inkscape:pageshadow="2"
     inkscape:zoom="7.7781746"
     inkscape:cx="-6.6366639"
     inkscape:cy="8.6023119"
     inkscape:current-layer="layer1"
     showgrid="true"
     inkscape:document-units="px"
     inkscape:grid-bbox="true"
     inkscape:window-width="1301"
     inkscape:window-height="744"
     inkscape:window-x="65"
     inkscape:window-y="24"
     inkscape:window-maximized="1">
    <inkscape:grid
       type="xygrid"
       id="grid2982"
       empspacing="5"
       visible="true"
       enabled="true"
       snapvisiblegridlinesonly="true" />
  </sodipodi:namedview>
  <metadata
     id="metadata2990">
    <rdf:RDF>
      <cc:Work
         rdf:about="">
        <dc:format>image/svg+xml</dc:format>
        <dc:type
           rdf:resource="http://purl.org/dc/dcmitype/StillImage" />
        <dc:title />
      </cc:Work>
    </rdf:RDF>
  </metadata>
  <g
     id="layer1"
     inkscape:label="Layer 1"
     inkscape:groupmode="layer"
     transform="translate(0,-28)">
    <g
       transform="matrix(-0.69748082,0,0,0.69665085,34.73954,29.302386)"
       id="g3854">
      <path
         style="fill:#eae9e7;fill-opacity:1;fill-rule:evenodd;stroke:none;enable-background:new"
         d="M 9.75 3 C 9.6356131 2.9942875 9.5135254 3.0348534 9.4375 3.125 C 9.3356678 3.2451723 9.3260397 3.4254688 9.40625 3.5625 L 11.5625 7.375 C 11.754307 7.7174666 11.652894 8.1745456 11.34375 8.625 C 11.031683 9.0797528 10.47685 9.5136472 9.8125 9.875 C 9.14801 10.236395 8.4929737 10.450017 7.9375 10.46875 C 7.3853393 10.487441 6.9735455 10.343365 6.78125 10 L 4.625 6.125 C 4.5650864 6.0184124 4.4656696 5.982892 4.34375 5.96875 C 4.2219001 5.954608 4.0813263 5.9722837 4 6.0625 C 3.9560796 6.1093623 3.9212737 6.1876497 3.90625 6.25 C 3.4925881 8.0288283 3.7153829 10.067785 4.5 11.46875 C 5.5715398 13.381962 7.7834728 14.292404 9.96875 13.90625 C 10.797589 14.184485 12.185276 14.665212 13.5 15.84375 L 14.6875 17.09375 C 14.503719 15.867886 14.680672 14.629704 15.625 13.6875 L 16.5 12.8125 C 15.375762 11.641086 14.820465 10.581789 14.5 9.78125 C 14.795034 8.6066967 14.652705 7.3902485 14.03125 6.28125 C 13.247282 4.8809121 11.618702 3.6350373 9.875 3.03125 C 9.837336 3.017526 9.7883614 3.001881 9.75 3 z M 18.6875 14.84375 L 17.75 15.78125 C 17.314588 16.215683 17.284127 16.824611 17.59375 17.3125 L 17.96875 17.96875 L 18.65625 18.375 C 19.157165 18.684898 19.773507 18.631741 20.21875 18.1875 L 21.1875 17.21875 L 18.6875 14.84375 z M 23.375 19.25 L 22.3125 20.3125 C 21.295613 21.327101 19.918629 21.531703 18.59375 21.28125 L 28.34375 31.65625 C 29.316945 32.62766 30.981059 32.485587 32.09375 31.375 C 33.206441 30.264413 33.316987 28.62766 32.34375 27.65625 L 23.375 19.25 z M 30.59375 27.5 L 31.21875 28.21875 L 31.8125 28.90625 L 31.5625 29.78125 L 31.3125 30.65625 L 30.4375 30.84375 L 29.59375 31.03125 L 29 30.3125 L 28.375 29.625 L 28.625 28.75 L 28.875 27.875 L 29.71875 27.71875 L 30.59375 27.5 z "
         transform="matrix(-1.4337312,0,0,1.4354393,49.807162,-1.869496)"
         id="path6912" />
    </g>
    <path
       inkscape:connector-curvature="0"
       style="fill:#eae9e7;fill-opacity:1;stroke:none"
       d="m 29.547864,31.044013 c -0.707574,0.0017 -1.420823,0.265877 -1.961665,0.805503 l -10.898138,10.88517 c -0.92968,0.927589 -1.043221,2.336191 -0.370537,3.396172 L 6.7707557,55.666267 5.3322015,56.058133 3,59.497847 4.4821468,61 7.904162,58.627033 8.3182913,57.211961 17.86506,47.654782 c 1.070983,0.662578 2.470539,0.535723 3.400219,-0.391866 L 32.185213,36.399517 c 1.081684,-1.079252 1.065239,-2.823015 -0.0218,-3.896891 l -0.653888,-0.65311 c -0.543518,-0.536938 -1.254091,-0.807257 -1.961665,-0.805503 z"
       id="rect5288" />
  </g>
</svg>
