<?xml version="1.0" encoding="UTF-8" standalone="no"?>
<!-- Created with Inkscape (http://www.inkscape.org/) -->

<svg
   xmlns:dc="http://purl.org/dc/elements/1.1/"
   xmlns:cc="http://creativecommons.org/ns#"
   xmlns:rdf="http://www.w3.org/1999/02/22-rdf-syntax-ns#"
   xmlns:svg="http://www.w3.org/2000/svg"
   xmlns="http://www.w3.org/2000/svg"
   xmlns:sodipodi="http://sodipodi.sourceforge.net/DTD/sodipodi-0.dtd"
   xmlns:inkscape="http://www.inkscape.org/namespaces/inkscape"
   width="40"
   height="36"
   id="svg2985"
   version="1.1"
   inkscape:version="0.48.4 r9939"
   sodipodi:docname="wm-settings-light_36.svg">
  <defs
     id="defs2987" />
  <sodipodi:namedview
     id="base"
     pagecolor="#777777"
     bordercolor="#666666"
     borderopacity="1.0"
     inkscape:pageopacity="0.46666667"
     inkscape:pageshadow="2"
     inkscape:zoom="22"
     inkscape:cx="15.821538"
     inkscape:cy="21.438853"
     inkscape:current-layer="layer1"
     showgrid="true"
     inkscape:document-units="px"
     inkscape:grid-bbox="true"
     inkscape:window-width="1301"
     inkscape:window-height="744"
     inkscape:window-x="65"
     inkscape:window-y="24"
     inkscape:window-maximized="1"
     showguides="true"
     inkscape:guide-bbox="true">
    <inkscape:grid
       type="xygrid"
       id="grid2982"
       empspacing="5"
       visible="true"
       enabled="true"
       snapvisiblegridlinesonly="true" />
  </sodipodi:namedview>
  <metadata
     id="metadata2990">
    <rdf:RDF>
      <cc:Work
         rdf:about="">
        <dc:format>image/svg+xml</dc:format>
        <dc:type
           rdf:resource="http://purl.org/dc/dcmitype/StillImage" />
        <dc:title></dc:title>
      </cc:Work>
    </rdf:RDF>
  </metadata>
  <g
     id="layer1"
     inkscape:label="Layer 1"
     inkscape:groupmode="layer"
     transform="translate(0,-28)">
    <rect
       ry="0"
       rx="0"
       y="37"
       x="7"
       height="5"
       width="26"
       id="rect2985"
       style="opacity:0.1;fill:#eae9e7;fill-opacity:1;stroke:none" />
    <path
       style="font-size:medium;font-style:normal;font-variant:normal;font-weight:normal;font-stretch:normal;text-indent:0;text-align:start;text-decoration:none;line-height:normal;letter-spacing:normal;word-spacing:normal;text-transform:none;direction:ltr;block-progression:tb;writing-mode:lr-tb;text-anchor:start;baseline-shift:baseline;color:#000000;fill:#eae9e7;fill-opacity:1;stroke:none;stroke-width:1.99982572;marker:none;visibility:visible;display:inline;overflow:visible;enable-background:accumulate;font-family:Sans;-inkscape-font-specification:Sans"
       d="m 9,36 c -3,0 -3,3 -3,3 l 0,15 c 0,3 3,3 3,3 l 22,0 c 0,0 3,0 3,-3 l 0,-15 c 0,-3 -3,-3 -3,-3 z m 0,2 22,0 c 0,0 1,0 1,1 l 0,15 c 0,0 0,1 -1,1 L 9,55 C 9,55 8,55 8,54 L 8,39 c 0,-1 1,-1 1,-1 z"
       id="rect2984"
       inkscape:connector-curvature="0"
       sodipodi:nodetypes="scsccsscsccccccccc" />
    <path
       inkscape:connector-curvature="0"
       id="path3775"
       d="m 40,46 -4,-4 0,8 z"
       style="fill:#eae9e7;fill-opacity:1;stroke:none" />
    <path
       style="fill:#eae9e7;fill-opacity:1;stroke:none"
       d="m 20,30 -4,4 8,0 z"
       id="path3777"
       inkscape:connector-curvature="0" />
    <path
       style="fill:#eae9e7;fill-opacity:1;stroke:none"
       d="m 0,46 4,-4 0,8 z"
       id="path3002"
       inkscape:connector-curvature="0" />
    <path
       inkscape:connector-curvature="0"
       id="path3004"
       d="m 20,63 -4,-4 8,0 z"
       style="fill:#eae9e7;fill-opacity:1;stroke:none" />
    <rect
       style="fill:#eae9e7;fill-opacity:1;stroke:none"
       id="rect3773"
       width="26"
       height="1"
       x="7"
       y="41"
       rx="0"
       ry="0" />
    <path
       style="fill:#eae9e7;fill-opacity:1;stroke:#eae9e7;stroke-width:0.40000001000000002;stroke-linecap:butt;stroke-linejoin:round;stroke-miterlimit:4;stroke-opacity:1;stroke-dasharray:none"
       d="m 9,40 0,-1 1,0 0,1 z"
       id="path3781"
       inkscape:connector-curvature="0" />
    <path
       style="fill:#eae9e7;fill-opacity:1;stroke:#eae9e7;stroke-width:0.40000001000000002;stroke-linecap:butt;stroke-linejoin:round;stroke-miterlimit:4;stroke-opacity:1;stroke-dasharray:none"
       d="m 11,39 0,1 1,0 0,-1 -1,0 z"
       id="path3783"
       inkscape:connector-curvature="0" />
    <path
       style="fill:#eae9e7;fill-opacity:1;stroke:#eae9e7;stroke-width:0.40000001000000002;stroke-linecap:butt;stroke-linejoin:round;stroke-miterlimit:4;stroke-opacity:1;stroke-dasharray:none"
       d="m 13,39 0,1 1,0 0,-1 -1,0 z"
       id="path3785"
       inkscape:connector-curvature="0" />
  </g>
</svg>
