<?xml version="1.0" encoding="UTF-8" standalone="no"?>
<!-- Created with Inkscape (http://www.inkscape.org/) -->

<svg
   xmlns:dc="http://purl.org/dc/elements/1.1/"
   xmlns:cc="http://creativecommons.org/ns#"
   xmlns:rdf="http://www.w3.org/1999/02/22-rdf-syntax-ns#"
   xmlns:svg="http://www.w3.org/2000/svg"
   xmlns="http://www.w3.org/2000/svg"
   xmlns:sodipodi="http://sodipodi.sourceforge.net/DTD/sodipodi-0.dtd"
   xmlns:inkscape="http://www.inkscape.org/namespaces/inkscape"
   width="24"
   height="24"
   id="svg2985"
   version="1.1"
   inkscape:version="0.48.4 r9939"
   sodipodi:docname="unity-tweak-tool-overview-symbolic.svg">
  <defs
     id="defs2987" />
  <sodipodi:namedview
     id="base"
     pagecolor="#777777"
     bordercolor="#666666"
     borderopacity="1.0"
     inkscape:pageopacity="0.46666667"
     inkscape:pageshadow="2"
     inkscape:zoom="15.556349"
     inkscape:cx="7.3183443"
     inkscape:cy="7.4219914"
     inkscape:current-layer="layer1"
     showgrid="false"
     inkscape:document-units="px"
     inkscape:grid-bbox="true"
     inkscape:window-width="1301"
     inkscape:window-height="744"
     inkscape:window-x="65"
     inkscape:window-y="24"
     inkscape:window-maximized="1"
     showguides="true"
     inkscape:guide-bbox="true">
    <inkscape:grid
       type="xygrid"
       id="grid2982"
       empspacing="5"
       visible="true"
       enabled="true"
       snapvisiblegridlinesonly="true" />
  </sodipodi:namedview>
  <metadata
     id="metadata2990">
    <rdf:RDF>
      <cc:Work
         rdf:about="">
        <dc:format>image/svg+xml</dc:format>
        <dc:type
           rdf:resource="http://purl.org/dc/dcmitype/StillImage" />
        <dc:title></dc:title>
      </cc:Work>
    </rdf:RDF>
  </metadata>
  <g
     id="layer1"
     inkscape:label="Layer 1"
     inkscape:groupmode="layer"
     transform="translate(0,-40)">
    <path
       style="fill:#777777;fill-opacity:1;stroke:none"
       d="m 10.03125,42 -3.7187501,1.53125 0.875,2.09375 c -0.59865,0.451069 -1.121966,0.978602 -1.5625,1.5625 l -2.09375,-0.875 -1.53125,3.71875 2.0625,0.875 c -0.09888,0.717326 -0.07149,1.452749 0.03125,2.1875 l -2.09375,0.875 1.53125,3.71875 2.09375,-0.875 c 0.451069,0.59865 0.978602,1.121966 1.5625,1.5625 l -0.875,2.09375 L 10.03125,62 l 0.875,-2.0625 c 0.717326,0.09888 1.452749,0.07149 2.1875,-0.03125 L 13.96875,62 17.6875,60.46875 16.8125,58.375 c 0.59865,-0.451069 1.121966,-0.978602 1.5625,-1.5625 l 2.09375,0.875 L 22,53.96875 l -2.0625,-0.875 c 0.09888,-0.717326 0.07149,-1.452749 -0.03125,-2.1875 L 22,50.03125 20.46875,46.3125 18.375,47.1875 C 17.923931,46.58885 17.396398,46.065534 16.8125,45.625 L 17.6875,43.53125 13.96875,42 l -0.875,2.0625 c -0.717326,-0.09888 -1.452749,-0.07149 -2.1875,0.03125 L 10.03125,42 z M 12,47 c 2.761424,0 5,2.238576 5,5 0,2.761424 -2.238576,5 -5,5 -2.7614241,0 -5.0000001,-2.238576 -5.0000001,-5 0,-2.761424 2.238576,-5 5.0000001,-5 z"
       id="path3944"
       inkscape:connector-curvature="0" />
  </g>
</svg>
