<?xml version="1.0" encoding="UTF-8" standalone="no"?>
<!-- Created with Inkscape (http://www.inkscape.org/) -->

<svg
   xmlns:dc="http://purl.org/dc/elements/1.1/"
   xmlns:cc="http://creativecommons.org/ns#"
   xmlns:rdf="http://www.w3.org/1999/02/22-rdf-syntax-ns#"
   xmlns:svg="http://www.w3.org/2000/svg"
   xmlns="http://www.w3.org/2000/svg"
   xmlns:sodipodi="http://sodipodi.sourceforge.net/DTD/sodipodi-0.dtd"
   xmlns:inkscape="http://www.inkscape.org/namespaces/inkscape"
   width="24"
   height="24"
   id="svg2985"
   version="1.1"
   inkscape:version="0.48.4 r9939"
   sodipodi:docname="wm-settings-dark_24.svg">
  <defs
     id="defs2987" />
  <sodipodi:namedview
     id="base"
     pagecolor="#777777"
     bordercolor="#666666"
     borderopacity="1.0"
     inkscape:pageopacity="0.46666667"
     inkscape:pageshadow="2"
     inkscape:zoom="11"
     inkscape:cx="3.3645952"
     inkscape:cy="-0.39266318"
     inkscape:current-layer="layer1"
     showgrid="true"
     inkscape:document-units="px"
     inkscape:grid-bbox="true"
     inkscape:window-width="1301"
     inkscape:window-height="744"
     inkscape:window-x="65"
     inkscape:window-y="24"
     inkscape:window-maximized="1">
    <inkscape:grid
       type="xygrid"
       id="grid2982"
       empspacing="5"
       visible="true"
       enabled="true"
       snapvisiblegridlinesonly="true" />
  </sodipodi:namedview>
  <metadata
     id="metadata2990">
    <rdf:RDF>
      <cc:Work
         rdf:about="">
        <dc:format>image/svg+xml</dc:format>
        <dc:type
           rdf:resource="http://purl.org/dc/dcmitype/StillImage" />
        <dc:title></dc:title>
      </cc:Work>
    </rdf:RDF>
  </metadata>
  <g
     id="layer1"
     inkscape:label="Layer 1"
     inkscape:groupmode="layer"
     transform="translate(0,-40)">
    <path
       style="font-size:medium;font-style:normal;font-variant:normal;font-weight:normal;font-stretch:normal;text-indent:0;text-align:start;text-decoration:none;line-height:normal;letter-spacing:normal;word-spacing:normal;text-transform:none;direction:ltr;block-progression:tb;writing-mode:lr-tb;text-anchor:start;baseline-shift:baseline;color:#000000;fill:#333333;fill-opacity:1;stroke:none;stroke-width:1.99982572;marker:none;visibility:visible;display:inline;overflow:visible;enable-background:accumulate;font-family:Sans;-inkscape-font-specification:Sans"
       d="m 6,46 c -2,0 -2,2 -2,2 l 0,9 c 0,2 2,2 2,2 l 12,0 c 0,0 2,0 2,-2 l 0,-9 c 0,-1.165687 -0.804523,-2 -2,-2 z m 0.5,2 11,0 c 0,0 0.5,0 0.5,0.5 l 0,8 c 0,0 0,0.5 -0.5,0.5 l -11,0 C 6,57 6,56.5 6,56.5 l 0,-8 C 6,48.5 6,48 6.5,48 z"
       id="rect2984"
       inkscape:connector-curvature="0"
       sodipodi:nodetypes="scsccsssscccccsccc" />
    <path
       style="fill:#333333;stroke:none;stroke-width:1px;stroke-linecap:butt;stroke-linejoin:miter;stroke-opacity:1;fill-opacity:1"
       d="m 1,12 2,-2 0,4 z"
       id="path3773"
       inkscape:connector-curvature="0"
       transform="translate(0,40)" />
    <path
       inkscape:connector-curvature="0"
       id="path3775"
       d="m 23,52 -2,-2 0,4 z"
       style="fill:#333333;fill-opacity:1;stroke:none" />
    <path
       style="fill:#333333;fill-opacity:1;stroke:none"
       d="m 12,43 -2,2 4,0 z"
       id="path3777"
       inkscape:connector-curvature="0" />
    <path
       inkscape:connector-curvature="0"
       id="path3779"
       d="m 12,62 -2,-2 4,0 z"
       style="fill:#333333;fill-opacity:1;stroke:none" />
    <rect
       transform="matrix(0,1,-1,0,0,0)"
       ry="0.80000001"
       rx="0.25"
       y="-19"
       x="49"
       height="14"
       width="1"
       id="rect2993"
       style="fill:#333333;fill-opacity:1;stroke:none" />
  </g>
</svg>
