<?xml version="1.0" encoding="UTF-8" standalone="no"?>
<!-- Created with Inkscape (http://www.inkscape.org/) -->

<svg
   xmlns:dc="http://purl.org/dc/elements/1.1/"
   xmlns:cc="http://creativecommons.org/ns#"
   xmlns:rdf="http://www.w3.org/1999/02/22-rdf-syntax-ns#"
   xmlns:svg="http://www.w3.org/2000/svg"
   xmlns="http://www.w3.org/2000/svg"
   xmlns:sodipodi="http://sodipodi.sourceforge.net/DTD/sodipodi-0.dtd"
   xmlns:inkscape="http://www.inkscape.org/namespaces/inkscape"
   width="36"
   height="36"
   id="svg2985"
   version="1.1"
   inkscape:version="0.48.4 r9939"
   sodipodi:docname="appearance-settings-icons-dark_36.svg">
  <defs
     id="defs2987" />
  <sodipodi:namedview
     id="base"
     pagecolor="#777777"
     bordercolor="#666666"
     borderopacity="1.0"
     inkscape:pageopacity="0.46666667"
     inkscape:pageshadow="2"
     inkscape:zoom="11.313709"
     inkscape:cx="12.403887"
     inkscape:cy="38.255341"
     inkscape:current-layer="layer1"
     showgrid="true"
     inkscape:document-units="px"
     inkscape:grid-bbox="true"
     inkscape:window-width="1301"
     inkscape:window-height="744"
     inkscape:window-x="65"
     inkscape:window-y="24"
     inkscape:window-maximized="1"
     showguides="true"
     inkscape:guide-bbox="true">
    <inkscape:grid
       type="xygrid"
       id="grid2982"
       empspacing="5"
       visible="true"
       enabled="true"
       snapvisiblegridlinesonly="true" />
  </sodipodi:namedview>
  <metadata
     id="metadata2990">
    <rdf:RDF>
      <cc:Work
         rdf:about="">
        <dc:format>image/svg+xml</dc:format>
        <dc:type
           rdf:resource="http://purl.org/dc/dcmitype/StillImage" />
        <dc:title />
      </cc:Work>
    </rdf:RDF>
  </metadata>
  <g
     id="layer1"
     inkscape:label="Layer 1"
     inkscape:groupmode="layer"
     transform="translate(0,-28)">
    <rect
       ry="1"
       rx="1"
       y="48"
       x="20"
       height="9"
       width="9"
       id="rect3759"
       style="opacity:0.2;fill:#333333;fill-opacity:1;stroke:#333333;stroke-width:2;stroke-miterlimit:4;stroke-opacity:1;stroke-dasharray:none" />
    <rect
       style="opacity:0.4;fill:#333333;fill-opacity:1;stroke:#333333;stroke-width:2;stroke-miterlimit:4;stroke-opacity:1;stroke-dasharray:none"
       id="rect3761"
       width="9"
       height="9"
       x="7"
       y="48"
       rx="1"
       ry="1" />
    <rect
       style="opacity:0.3;fill:#333333;fill-opacity:1;stroke:#333333;stroke-width:2;stroke-miterlimit:4;stroke-opacity:1;stroke-dasharray:none"
       id="rect3757"
       width="9"
       height="9"
       x="20"
       y="35"
       rx="1"
       ry="1" />
    <rect
       ry="1"
       rx="1"
       y="35"
       x="7"
       height="9"
       width="9"
       id="rect2987"
       style="fill:#333333;stroke:#333333;stroke-width:2;stroke-miterlimit:4;stroke-opacity:1;stroke-dasharray:none;fill-opacity:1;opacity:0.1" />
    <path
       style="font-size:medium;font-style:normal;font-variant:normal;font-weight:normal;font-stretch:normal;text-indent:0;text-align:start;text-decoration:none;line-height:normal;letter-spacing:normal;word-spacing:normal;text-transform:none;direction:ltr;block-progression:tb;writing-mode:lr-tb;text-anchor:start;baseline-shift:baseline;color:#000000;fill:#333333;fill-opacity:1;stroke:none;stroke-width:2;marker:none;visibility:visible;display:inline;overflow:visible;enable-background:accumulate;font-family:Sans;-inkscape-font-specification:Sans"
       d="m 7,34 c -1,0 -1,1 -1,1 l 0,9 c 0,0 0,1 1,1 l 9,0 c 1.090703,0 1,-1 1,-1 l 0,-9 c 0,-1 -1,-1 -1,-1 z m 0,1 9,0 0,9 -9,0 z"
       id="rect3818"
       inkscape:connector-curvature="0"
       sodipodi:nodetypes="sccsscscsccccc" />
    <path
       sodipodi:nodetypes="sccsscscsccccc"
       inkscape:connector-curvature="0"
       id="path3783"
       d="m 20,34 c -1,0 -1,1 -1,1 l 0,9 c 0,0 0,1 1,1 l 9,0 c 1.090703,0 1,-1 1,-1 l 0,-9 c 0,-1 -1,-1 -1,-1 z m 0,1 9,0 0,9 -9,0 z"
       style="font-size:medium;font-style:normal;font-variant:normal;font-weight:normal;font-stretch:normal;text-indent:0;text-align:start;text-decoration:none;line-height:normal;letter-spacing:normal;word-spacing:normal;text-transform:none;direction:ltr;block-progression:tb;writing-mode:lr-tb;text-anchor:start;baseline-shift:baseline;color:#000000;fill:#333333;fill-opacity:1;stroke:none;stroke-width:2;marker:none;visibility:visible;display:inline;overflow:visible;enable-background:accumulate;font-family:Sans;-inkscape-font-specification:Sans" />
    <path
       style="font-size:medium;font-style:normal;font-variant:normal;font-weight:normal;font-stretch:normal;text-indent:0;text-align:start;text-decoration:none;line-height:normal;letter-spacing:normal;word-spacing:normal;text-transform:none;direction:ltr;block-progression:tb;writing-mode:lr-tb;text-anchor:start;baseline-shift:baseline;color:#000000;fill:#333333;fill-opacity:1;stroke:none;stroke-width:2;marker:none;visibility:visible;display:inline;overflow:visible;enable-background:accumulate;font-family:Sans;-inkscape-font-specification:Sans"
       d="m 20,47 c -1,0 -1,1 -1,1 l 0,9 c 0,0 0,1 1,1 l 9,0 c 1.090703,0 1,-1 1,-1 l 0,-9 c 0,-1 -1,-1 -1,-1 z m 0,1 9,0 0,9 -9,0 z"
       id="path3785"
       inkscape:connector-curvature="0"
       sodipodi:nodetypes="sccsscscsccccc" />
    <path
       sodipodi:nodetypes="sccsscscsccccc"
       inkscape:connector-curvature="0"
       id="path3787"
       d="m 7,47 c -1,0 -1,1 -1,1 l 0,9 c 0,0 0,1 1,1 l 9,0 c 1.090703,0 1,-1 1,-1 l 0,-9 c 0,-1 -1,-1 -1,-1 z m 0,1 9,0 0,9 -9,0 z"
       style="font-size:medium;font-style:normal;font-variant:normal;font-weight:normal;font-stretch:normal;text-indent:0;text-align:start;text-decoration:none;line-height:normal;letter-spacing:normal;word-spacing:normal;text-transform:none;direction:ltr;block-progression:tb;writing-mode:lr-tb;text-anchor:start;baseline-shift:baseline;color:#000000;fill:#333333;fill-opacity:1;stroke:none;stroke-width:2;marker:none;visibility:visible;display:inline;overflow:visible;enable-background:accumulate;font-family:Sans;-inkscape-font-specification:Sans" />
  </g>
</svg>
