<?xml version="1.0" encoding="UTF-8" standalone="no"?>
<!-- Created with Inkscape (http://www.inkscape.org/) -->

<svg
   xmlns:dc="http://purl.org/dc/elements/1.1/"
   xmlns:cc="http://creativecommons.org/ns#"
   xmlns:rdf="http://www.w3.org/1999/02/22-rdf-syntax-ns#"
   xmlns:svg="http://www.w3.org/2000/svg"
   xmlns="http://www.w3.org/2000/svg"
   xmlns:sodipodi="http://sodipodi.sourceforge.net/DTD/sodipodi-0.dtd"
   xmlns:inkscape="http://www.inkscape.org/namespaces/inkscape"
   width="36"
   height="36"
   id="svg2985"
   version="1.1"
   inkscape:version="0.48.4 r9939"
   sodipodi:docname="desktop-settings-light_36.svg">
  <defs
     id="defs2987" />
  <sodipodi:namedview
     id="base"
     pagecolor="#777777"
     bordercolor="#666666"
     borderopacity="1.0"
     inkscape:pageopacity="0.46666667"
     inkscape:pageshadow="2"
     inkscape:zoom="43.999999"
     inkscape:cx="20.088511"
     inkscape:cy="3.2768788"
     inkscape:current-layer="layer1"
     showgrid="true"
     inkscape:document-units="px"
     inkscape:grid-bbox="true"
     inkscape:window-width="1301"
     inkscape:window-height="744"
     inkscape:window-x="65"
     inkscape:window-y="24"
     inkscape:window-maximized="1">
    <inkscape:grid
       type="xygrid"
       id="grid2982"
       empspacing="5"
       visible="true"
       enabled="true"
       snapvisiblegridlinesonly="true" />
  </sodipodi:namedview>
  <metadata
     id="metadata2990">
    <rdf:RDF>
      <cc:Work
         rdf:about="">
        <dc:format>image/svg+xml</dc:format>
        <dc:type
           rdf:resource="http://purl.org/dc/dcmitype/StillImage" />
        <dc:title />
      </cc:Work>
    </rdf:RDF>
  </metadata>
  <g
     id="layer1"
     inkscape:label="Layer 1"
     inkscape:groupmode="layer"
     transform="translate(0,-28)">
    <g
       id="g3081"
       transform="translate(0,-2)">
      <path
         sodipodi:nodetypes="sssssssssssccssccs"
         inkscape:connector-curvature="0"
         id="rect2984"
         d="M 6,34 C 4.2902805,34 3,35.484996 3,37.167763 L 3,55 c 0,1.682767 1.2902805,3 3,3 l 24,0 c 1.70972,0 3,-1.317233 3,-3 l 0,-18 c 0,-1.682768 -1.29028,-3 -3,-3 z m 0,2 24,0 c 1,0 1,1 1,1 l 0,18 c 0,0 0,1 -1,1 L 6,56 C 4.9999391,56 5,55 5,55 L 5,37 c 0,0 -6.09e-5,-1 1,-1 z"
         style="font-size:medium;font-style:normal;font-variant:normal;font-weight:normal;font-stretch:normal;text-indent:0;text-align:start;text-decoration:none;line-height:normal;letter-spacing:normal;word-spacing:normal;text-transform:none;direction:ltr;block-progression:tb;writing-mode:lr-tb;text-anchor:start;baseline-shift:baseline;color:#000000;fill:#eae9e7;fill-opacity:1;stroke:none;stroke-width:2.00033951;marker:none;visibility:visible;display:inline;overflow:visible;enable-background:accumulate;font-family:Sans;-inkscape-font-specification:Sans" />
      <rect
         transform="matrix(0,1,-1,0,0,0)"
         style="fill:#eae9e7;fill-opacity:1;stroke:none"
         id="rect3802"
         width="2"
         height="16"
         x="60"
         y="-26"
         rx="1"
         ry="1" />
      <path
         sodipodi:nodetypes="sccccccccccsccccccccccsccccccccccsccccccccccssssss"
         inkscape:connector-curvature="0"
         style="color:#000000;fill:#eae9e7;fill-opacity:1;fill-rule:nonzero;stroke:none;marker:none;visibility:visible;display:inline;overflow:visible;enable-background:accumulate"
         d="m 17.999999,37.999999 c -0.252172,0 -0.503786,0.01291 -0.750004,0.03566 l -0.46429,2.392875 c -0.382243,0.08377 -0.757777,0.201018 -1.107151,0.357144 l -1.750013,-1.678581 c -0.444151,0.262985 -0.830805,0.587524 -1.214294,0.928578 l 1.035722,2.178587 c -0.254196,0.284562 -0.48486,0.597147 -0.678577,0.928578 l -2.392874,-0.321435 c -0.20311,0.46717 -0.352825,0.955859 -0.464289,1.464297 l 2.107158,1.142865 c -0.01954,0.192104 -0.03566,0.374174 -0.03566,0.571433 0,0.197258 0.01622,0.379329 0.03566,0.571433 l -2.107158,1.142865 c 0.11143,0.508438 0.261179,0.997127 0.464289,1.464297 l 2.392874,-0.321432 c 0.193717,0.331432 0.424381,0.644016 0.678577,0.928579 l -1.035722,2.178586 c 0.383489,0.341055 0.770143,0.665594 1.214294,0.928579 l 1.750013,-1.678583 c 0.349374,0.156126 0.724908,0.273327 1.107151,0.357144 l 0.46429,2.392875 c 0.246218,0.02286 0.497832,0.03566 0.750004,0.03566 0.252174,0 0.503787,-0.01291 0.750006,-0.03566 l 0.464289,-2.392875 c 0.382243,-0.08377 0.757777,-0.201018 1.107151,-0.357144 l 1.750012,1.678583 c 0.444152,-0.262985 0.830807,-0.587524 1.214295,-0.928579 L 22.25003,49.785742 c 0.254196,-0.284563 0.484861,-0.597147 0.678577,-0.928579 l 2.392875,0.321432 c 0.20311,-0.46717 0.352825,-0.955859 0.464289,-1.464297 l -2.107159,-1.142865 c 0.01954,-0.192104 0.03566,-0.374175 0.03566,-0.571433 0,-0.197259 -0.01623,-0.379329 -0.03566,-0.571433 l 2.107159,-1.142865 c -0.11143,-0.508438 -0.26118,-0.997127 -0.46429,-1.464297 l -2.392874,0.321431 C 22.734891,42.811405 22.504226,42.49882 22.25003,42.214258 l 1.035722,-2.178587 c -0.383488,-0.341054 -0.770143,-0.665593 -1.214295,-0.928578 l -1.750012,1.678583 C 19.972071,40.62955 19.596537,40.512349 19.214294,40.428531 l -0.464289,-2.392874 c -0.246219,-0.02286 -0.497832,-0.03566 -0.750006,-0.03566 z m 0,4.571462 c 1.893557,0 3.428597,1.535039 3.428597,3.428596 0,1.893557 -1.53504,3.428596 -3.428596,3.428596 -1.893557,0 -3.428596,-1.535039 -3.428596,-3.428596 0,-1.893557 1.53504,-3.428596 3.428596,-3.428596 z"
         id="path35543-6-4" />
    </g>
  </g>
</svg>
