<?xml version="1.0" encoding="UTF-8" standalone="no"?>
<!-- Created with Inkscape (http://www.inkscape.org/) -->

<svg
   xmlns:dc="http://purl.org/dc/elements/1.1/"
   xmlns:cc="http://creativecommons.org/ns#"
   xmlns:rdf="http://www.w3.org/1999/02/22-rdf-syntax-ns#"
   xmlns:svg="http://www.w3.org/2000/svg"
   xmlns="http://www.w3.org/2000/svg"
   xmlns:sodipodi="http://sodipodi.sourceforge.net/DTD/sodipodi-0.dtd"
   xmlns:inkscape="http://www.inkscape.org/namespaces/inkscape"
   width="36"
   height="36"
   id="svg2985"
   version="1.1"
   inkscape:version="0.48.4 r9939"
   sodipodi:docname="desktop-settings-icons-dark_36.svg">
  <defs
     id="defs2987" />
  <sodipodi:namedview
     id="base"
     pagecolor="#777777"
     bordercolor="#666666"
     borderopacity="1.0"
     inkscape:pageopacity="0.46666667"
     inkscape:pageshadow="2"
     inkscape:zoom="15.556349"
     inkscape:cx="15.757309"
     inkscape:cy="20.915247"
     inkscape:current-layer="layer1"
     showgrid="true"
     inkscape:document-units="px"
     inkscape:grid-bbox="true"
     inkscape:window-width="1301"
     inkscape:window-height="744"
     inkscape:window-x="65"
     inkscape:window-y="24"
     inkscape:window-maximized="1"
     showguides="true"
     inkscape:guide-bbox="true">
    <inkscape:grid
       type="xygrid"
       id="grid2982"
       empspacing="5"
       visible="true"
       enabled="true"
       snapvisiblegridlinesonly="true" />
  </sodipodi:namedview>
  <metadata
     id="metadata2990">
    <rdf:RDF>
      <cc:Work
         rdf:about="">
        <dc:format>image/svg+xml</dc:format>
        <dc:type
           rdf:resource="http://purl.org/dc/dcmitype/StillImage" />
        <dc:title></dc:title>
      </cc:Work>
    </rdf:RDF>
  </metadata>
  <g
     id="layer1"
     inkscape:label="Layer 1"
     inkscape:groupmode="layer"
     transform="translate(0,-28)">
    <rect
       style="fill:none;stroke:#333333;stroke-width:2;stroke-miterlimit:4;stroke-opacity:1;stroke-dasharray:none"
       id="rect2984"
       width="30"
       height="24"
       x="3"
       y="34"
       rx="3"
       ry="3" />
    <path
       style="font-size:medium;font-style:normal;font-variant:normal;font-weight:normal;font-stretch:normal;text-indent:0;text-align:start;text-decoration:none;line-height:normal;letter-spacing:normal;word-spacing:normal;text-transform:none;direction:ltr;block-progression:tb;writing-mode:lr-tb;text-anchor:start;baseline-shift:baseline;color:#000000;fill:#333333;fill-opacity:1;stroke:none;stroke-width:1;marker:none;visibility:visible;display:inline;overflow:visible;enable-background:accumulate;font-family:Sans;-inkscape-font-specification:Sans"
       d="M 7.3635754,38 C 7,38 7,38.363637 7,38.363637 l 0,3.272726 C 7,41.636363 7,42 7.3635754,42 l 3.2721786,0 c 0.396552,0 0.363575,-0.363637 0.363575,-0.363637 l 0,-3.272726 C 10.999329,38 10.635754,38 10.635754,38 z m 0.6373468,1 1.9999998,0 0,2 -1.9999998,0 z"
       id="rect3818"
       inkscape:connector-curvature="0"
       sodipodi:nodetypes="sccsscscsccccc" />
    <path
       sodipodi:nodetypes="sccsscscsccccc"
       inkscape:connector-curvature="0"
       id="path3826"
       d="M 7.3635754,43 C 7,43 7,43.363637 7,43.363637 l 0,3.272726 C 7,46.636363 7,47 7.3635754,47 l 3.2721786,0 c 0.396552,0 0.363575,-0.363637 0.363575,-0.363637 l 0,-3.272726 C 10.999329,43 10.635754,43 10.635754,43 z m 0.6373468,1 1.9999998,0 0,2 -1.9999998,0 z"
       style="font-size:medium;font-style:normal;font-variant:normal;font-weight:normal;font-stretch:normal;text-indent:0;text-align:start;text-decoration:none;line-height:normal;letter-spacing:normal;word-spacing:normal;text-transform:none;direction:ltr;block-progression:tb;writing-mode:lr-tb;text-anchor:start;baseline-shift:baseline;color:#000000;fill:#333333;fill-opacity:1;stroke:none;stroke-width:1;marker:none;visibility:visible;display:inline;overflow:visible;enable-background:accumulate;font-family:Sans;-inkscape-font-specification:Sans" />
    <path
       style="font-size:medium;font-style:normal;font-variant:normal;font-weight:normal;font-stretch:normal;text-indent:0;text-align:start;text-decoration:none;line-height:normal;letter-spacing:normal;word-spacing:normal;text-transform:none;direction:ltr;block-progression:tb;writing-mode:lr-tb;text-anchor:start;baseline-shift:baseline;color:#000000;fill:#333333;fill-opacity:1;stroke:none;stroke-width:1;marker:none;visibility:visible;display:inline;overflow:visible;enable-background:accumulate;font-family:Sans;-inkscape-font-specification:Sans"
       d="M 7.3635754,48 C 7,48 7,48.363637 7,48.363637 l 0,3.272726 C 7,51.636363 7,52 7.3635754,52 l 3.2721786,0 c 0.396552,0 0.363575,-0.363637 0.363575,-0.363637 l 0,-3.272726 C 10.999329,48 10.635754,48 10.635754,48 z m 0.6373468,1 1.9999998,0 0,2 -1.9999998,0 z"
       id="path3847"
       inkscape:connector-curvature="0"
       sodipodi:nodetypes="sccsscscsccccc" />
    <path
       sodipodi:nodetypes="sccsscscs"
       inkscape:connector-curvature="0"
       id="path3849"
       d="M 7.3635754,38 C 7,38 7,38.363637 7,38.363637 l 0,3.272726 C 7,41.636363 7,42 7.3635754,42 l 3.2721786,0 c 0.396552,0 0.363575,-0.363637 0.363575,-0.363637 l 0,-3.272726 C 10.999329,38 10.635754,38 10.635754,38 z"
       style="font-size:medium;font-style:normal;font-variant:normal;font-weight:normal;font-stretch:normal;text-indent:0;text-align:start;text-decoration:none;line-height:normal;letter-spacing:normal;word-spacing:normal;text-transform:none;direction:ltr;block-progression:tb;writing-mode:lr-tb;text-anchor:start;baseline-shift:baseline;color:#000000;fill:#333333;fill-opacity:1;stroke:none;stroke-width:1;marker:none;visibility:visible;display:inline;overflow:visible;enable-background:accumulate;font-family:Sans;-inkscape-font-specification:Sans;opacity:0.1" />
    <path
       style="font-size:medium;font-style:normal;font-variant:normal;font-weight:normal;font-stretch:normal;text-indent:0;text-align:start;text-decoration:none;line-height:normal;letter-spacing:normal;word-spacing:normal;text-transform:none;direction:ltr;block-progression:tb;writing-mode:lr-tb;text-anchor:start;baseline-shift:baseline;opacity:0.3;color:#000000;fill:#333333;fill-opacity:1;stroke:none;stroke-width:1;marker:none;visibility:visible;display:inline;overflow:visible;enable-background:accumulate;font-family:Sans;-inkscape-font-specification:Sans"
       d="M 7.3635754,43 C 7,43 7,43.363637 7,43.363637 l 0,3.272726 C 7,46.636363 7,47 7.3635754,47 l 3.2721786,0 c 0.396552,0 0.363575,-0.363637 0.363575,-0.363637 l 0,-3.272726 C 10.999329,43 10.635754,43 10.635754,43 z"
       id="path3851"
       inkscape:connector-curvature="0"
       sodipodi:nodetypes="sccsscscs" />
    <path
       sodipodi:nodetypes="sccsscscs"
       inkscape:connector-curvature="0"
       id="path3853"
       d="M 7.3635754,48 C 7,48 7,48.363637 7,48.363637 l 0,3.272726 C 7,51.636363 7,52 7.3635754,52 l 3.2721786,0 c 0.396552,0 0.363575,-0.363637 0.363575,-0.363637 l 0,-3.272726 C 10.999329,48 10.635754,48 10.635754,48 z"
       style="font-size:medium;font-style:normal;font-variant:normal;font-weight:normal;font-stretch:normal;text-indent:0;text-align:start;text-decoration:none;line-height:normal;letter-spacing:normal;word-spacing:normal;text-transform:none;direction:ltr;block-progression:tb;writing-mode:lr-tb;text-anchor:start;baseline-shift:baseline;opacity:0.2;color:#000000;fill:#333333;fill-opacity:1;stroke:none;stroke-width:1;marker:none;visibility:visible;display:inline;overflow:visible;enable-background:accumulate;font-family:Sans;-inkscape-font-specification:Sans" />
  </g>
</svg>
