<?xml version="1.0" encoding="UTF-8" standalone="no"?>
<!-- Created with Inkscape (http://www.inkscape.org/) -->

<svg
   xmlns:dc="http://purl.org/dc/elements/1.1/"
   xmlns:cc="http://creativecommons.org/ns#"
   xmlns:rdf="http://www.w3.org/1999/02/22-rdf-syntax-ns#"
   xmlns:svg="http://www.w3.org/2000/svg"
   xmlns="http://www.w3.org/2000/svg"
   xmlns:sodipodi="http://sodipodi.sourceforge.net/DTD/sodipodi-0.dtd"
   xmlns:inkscape="http://www.inkscape.org/namespaces/inkscape"
   width="36"
   height="36"
   id="svg2985"
   version="1.1"
   inkscape:version="0.48.4 r9939"
   sodipodi:docname="home-light_36.svg">
  <defs
     id="defs2987" />
  <sodipodi:namedview
     id="base"
     pagecolor="#777777"
     bordercolor="#666666"
     borderopacity="1.0"
     inkscape:pageopacity="0.46666667"
     inkscape:pageshadow="2"
     inkscape:zoom="7.7781746"
     inkscape:cx="37.51699"
     inkscape:cy="10.851604"
     inkscape:current-layer="layer1"
     showgrid="true"
     inkscape:document-units="px"
     inkscape:grid-bbox="true"
     inkscape:window-width="1301"
     inkscape:window-height="744"
     inkscape:window-x="65"
     inkscape:window-y="24"
     inkscape:window-maximized="1">
    <inkscape:grid
       type="xygrid"
       id="grid2982"
       empspacing="5"
       visible="true"
       enabled="true"
       snapvisiblegridlinesonly="true" />
  </sodipodi:namedview>
  <metadata
     id="metadata2990">
    <rdf:RDF>
      <cc:Work
         rdf:about="">
        <dc:format>image/svg+xml</dc:format>
        <dc:type
           rdf:resource="http://purl.org/dc/dcmitype/StillImage" />
        <dc:title></dc:title>
      </cc:Work>
    </rdf:RDF>
  </metadata>
  <g
     id="layer1"
     inkscape:label="Layer 1"
     inkscape:groupmode="layer"
     transform="translate(0,-28)">
    <path
       style="font-size:medium;font-style:normal;font-variant:normal;font-weight:normal;font-stretch:normal;text-indent:0;text-align:start;text-decoration:none;line-height:normal;letter-spacing:normal;word-spacing:normal;text-transform:none;direction:ltr;block-progression:tb;writing-mode:lr-tb;text-anchor:start;baseline-shift:baseline;color:#000000;fill:#eae9e7;fill-opacity:1;fill-rule:nonzero;stroke:none;stroke-width:2;marker:none;visibility:visible;display:inline;overflow:visible;enable-background:accumulate;font-family:Sans;-inkscape-font-specification:Sans"
       d="m 17.882853,34.008347 c -0.118483,0.01968 -0.232045,0.06835 -0.32801,0.140576 L 5.5590158,44.645271 c -0.5136109,0.368678 -0.1870413,1.365575 0.4451576,1.358902 L 8,46 8,56 c 0,1.499478 1.0031299,2 1.7528689,2 l 3.7486961,0 c 0.749739,0 1.499586,0 1.499478,-0.749739 L 15,50 c 0,-1.499478 0.25026,-2 1,-2 l 4,0 c 0.749739,0 1,0.500522 1,2 l -0.001,7.250261 C 20.998849,58 21.748696,58 22.498435,58 l 3.748696,0 C 26.99687,58 28,57.499478 28,56 l 0,-10 1.995827,0.0042 c 0.632199,0.0067 0.958768,-0.990224 0.445157,-1.358902 L 18.445158,34.148923 c -0.158896,-0.118754 -0.366219,-0.170585 -0.562305,-0.140576 z"
       id="path3844"
       inkscape:connector-curvature="0"
       sodipodi:nodetypes="cccccssssccccssssccccc" />
  </g>
</svg>
