<?xml version="1.0" encoding="UTF-8" standalone="no"?>
<!-- Created with Inkscape (http://www.inkscape.org/) -->

<svg
   xmlns:dc="http://purl.org/dc/elements/1.1/"
   xmlns:cc="http://creativecommons.org/ns#"
   xmlns:rdf="http://www.w3.org/1999/02/22-rdf-syntax-ns#"
   xmlns:svg="http://www.w3.org/2000/svg"
   xmlns="http://www.w3.org/2000/svg"
   xmlns:sodipodi="http://sodipodi.sourceforge.net/DTD/sodipodi-0.dtd"
   xmlns:inkscape="http://www.inkscape.org/namespaces/inkscape"
   width="36"
   height="36"
   id="svg2985"
   version="1.1"
   inkscape:version="0.48.4 r9939"
   sodipodi:docname="wm-settings-workspace-switcher-dark_36.svg">
  <defs
     id="defs2987" />
  <sodipodi:namedview
     id="base"
     pagecolor="#777777"
     bordercolor="#666666"
     borderopacity="1.0"
     inkscape:pageopacity="0.46666667"
     inkscape:pageshadow="2"
     inkscape:zoom="11.313709"
     inkscape:cx="38.696154"
     inkscape:cy="18.228492"
     inkscape:current-layer="layer1"
     showgrid="true"
     inkscape:document-units="px"
     inkscape:grid-bbox="true"
     inkscape:window-width="1301"
     inkscape:window-height="744"
     inkscape:window-x="65"
     inkscape:window-y="24"
     inkscape:window-maximized="1">
    <inkscape:grid
       type="xygrid"
       id="grid2982"
       empspacing="5"
       visible="true"
       enabled="true"
       snapvisiblegridlinesonly="true" />
  </sodipodi:namedview>
  <metadata
     id="metadata2990">
    <rdf:RDF>
      <cc:Work
         rdf:about="">
        <dc:format>image/svg+xml</dc:format>
        <dc:type
           rdf:resource="http://purl.org/dc/dcmitype/StillImage" />
        <dc:title />
      </cc:Work>
    </rdf:RDF>
  </metadata>
  <g
     id="layer1"
     inkscape:label="Layer 1"
     inkscape:groupmode="layer"
     transform="translate(0,-28)">
    <path
       style="font-size:medium;font-style:normal;font-variant:normal;font-weight:normal;font-stretch:normal;text-indent:0;text-align:start;text-decoration:none;line-height:normal;letter-spacing:normal;word-spacing:normal;text-transform:none;direction:ltr;block-progression:tb;writing-mode:lr-tb;text-anchor:start;baseline-shift:baseline;color:#000000;fill:#333333;fill-opacity:1;stroke:none;stroke-width:2;marker:none;visibility:visible;display:inline;overflow:visible;enable-background:accumulate;font-family:Sans;-inkscape-font-specification:Sans"
       d="M 6,5 C 3.8012972,5 2,6.801297 2,9 c 0,6 0,12 0,18 0,2.198703 1.8012972,4 4,4 8,0 16,0 24,0 2.198703,0 4,-1.801297 4,-4 C 34,21 34,15 34,9 34,8.7251621 33.959799,8.447177 33.90625,8.1875 33.799153,7.6681461 33.600888,7.2070566 33.3125,6.78125 32.591531,5.7167335 31.374189,5 30,5 22,5 14,5 6,5 z m 0,2 11,0 0,9 c 0,1 0,1 -1,1 L 4,17 C 4,17 4,11.125352 4,9 4,8.8593379 4.0051345,8.7253621 4.03125,8.59375 4.2140585,7.6724653 5.0153649,7 6,7 z m 13,0 11,0 c 1.125297,0 2,0.874703 2,2 l 0,8 -12,0 c -1,0 -1,0 -1,-1 z M 4,19 16,19 c 1,0 1,0 1,1 l 0,9 -11,0 C 4.8747028,29 4,28.125297 4,27 l 0,-8 c 0,-1.125297 -1.1252972,0 0,0 z m 16,0 12,0 0,8 c 0,1.125297 -0.874703,2 -2,2 l -11,0 0,-9 c 0,-1 0,-1 1,-1 z"
       transform="translate(0,28)"
       id="rect2984"
       inkscape:connector-curvature="0"
       sodipodi:nodetypes="cccccccssccsccsccsscssccccssccssssccssccc" />
    <rect
       style="opacity:0.1;fill:#333333;fill-opacity:1;fill-rule:nonzero;stroke:none"
       id="rect3034"
       width="14"
       height="12"
       x="4"
       y="6"
       transform="translate(0,28)"
       rx="0"
       ry="0" />
  </g>
</svg>
